<svg xmlns="http://www.w3.org/2000/svg" viewBox="0 0 369.15 321.33"><defs><style>.cls-1{fill:red;}.cls-2{fill:#b80000;}</style></defs><title>Asset 3</title><g id="Layer_2" data-name="Layer 2"><g id="Layer_1-2" data-name="Layer 1"><path class="cls-1" d="M321.67.31a42.37,42.37,0,0,0-37.24,42.05v.15h-.86V320.86L140,234.61,1.92,321.33H0V42.52H.43v-.16A42.37,42.37,0,0,1,42.79,0a41.33,41.33,0,0,1,5.13.31Z"/><path class="cls-2" d="M369.15,42.36V181.79H283.57V42.52h.86v-.15a42.37,42.37,0,0,1,37.24-42A41.28,41.28,0,0,1,326.79,0,42.36,42.36,0,0,1,369.15,42.36Z"/></g></g></svg>