<svg xmlns="http://www.w3.org/2000/svg" viewBox="0 0 296.55 300.4"><defs><style>.cls-1{fill:#f4dd19;}.cls-2{fill:#030200;}.cls-3{fill:#fff;}</style></defs><title>Asset 2</title><g id="Layer_2" data-name="Layer 2"><g id="Layer_1-2" data-name="Layer 1"><path class="cls-1" d="M296.55,45.63c0-4.11-1.29-4.82-5-4.82l-24.21,0c.09.38.14.66.23.94.71,2.45.72,5.07,1.87,7.41V64.39c-1,.42-.78,1.42-.9,2.16a66.14,66.14,0,0,1-4,14.17,64.09,64.09,0,0,1-23.8,29.11A65.46,65.46,0,0,1,208.28,121a63.52,63.52,0,0,1-23.57-2.57,2.6,2.6,0,0,0-2.92.69q-33.67,33.24-67.42,66.41-38.66,38-77.32,76.09,0,16.58-.07,33.14c0,4.06.54,5.63,5.26,5.62q124.68-.27,249.35,0c3.85,0,5-.91,5-4.89Q296.36,170.55,296.55,45.63Zm-118.21,160h-.25c0,13.79.62,27.62-.15,41.37-1.17,21.16-13.58,32.49-34.87,32.8-15.14.22-27.54-5.12-35.78-18.49-1.58-2.56-1.82-4.19,1.29-5.8a104.38,104.38,0,0,0,12.36-7.44c3.12-2.21,4.84-2.15,6.73,1.47,3.21,6.13,8.38,9.33,15.54,8.44,6.82-.85,10.21-4.62,10.49-12.25s.14-15.29.15-22.94c0-19.45.11-38.9-.09-58.35,0-3.8,1-4.89,4.73-4.66a132.72,132.72,0,0,0,15.45,0c3.49-.19,4.53.93,4.48,4.44C178.23,178,178.34,191.81,178.34,205.61Zm97,48c-3.28,15-13.94,22.58-28.25,25.12-17.46,3.11-33.78.48-47.21-12.3-10.15-9.66-10-10.59,1.95-17.51l.86-.5c2.6-1.46,5.15-4,7.82-4.1,3-.14,3.77,4,5.81,6,7.42,7.33,16.17,9.49,26.08,6.84,4.53-1.21,8.17-3.92,9.06-8.92.94-5.31-1.2-9.37-5.68-12.28-5.47-3.53-11.57-5.74-17.47-8.36-8.08-3.59-16.12-7.35-21.83-14.36-8.76-10.74-10.3-22.92-5-35.51s16.22-17.76,29.27-19.06c1.31-.13,2.65,0,4,0,13.71-.1,24.87,4.79,32.57,16.59,1.42,2.17,1.27,3.27-1,4.62-4.43,2.61-8.78,5.38-13,8.36-2.49,1.79-3.74,1.47-5.4-1.11-3.65-5.71-9.1-8.07-15.82-7.08-4.68.69-8,3.19-9.11,8-1,4.64.52,8.52,4.28,11.43,3.44,2.66,7.45,4.29,11.41,6,7,3,14.07,5.91,20.46,10.14C273.32,224.91,278.9,237.5,275.39,253.59ZM188.88,40.88l5.9,22.69,26.55,8.68,31.87-31.4ZM139.81,72.29a61.18,61.18,0,0,1-1.48-6.75,68.46,68.46,0,0,1,1.3-24.66q-48.73,0-97.45-.09c-4.1,0-5.23,1-5.22,5.15.17,41.56.11,83.11.11,124.67v4.58q9.06-8.9,18.11-17.8l45.33-44.58q19.35-19,38.71-38A2.29,2.29,0,0,0,139.81,72.29Z"/><path class="cls-2" d="M234.79,158.66c13.72-.1,24.87,4.79,32.57,16.59,1.42,2.17,1.28,3.27-1,4.62-4.43,2.6-8.78,5.37-13,8.36-2.49,1.79-3.74,1.47-5.4-1.12-3.65-5.7-9.1-8.06-15.82-7.07-4.68.69-8,3.19-9.11,8-1,4.64.52,8.52,4.28,11.43,3.44,2.66,7.45,4.29,11.41,6,7,3,14.07,5.91,20.46,10.13,14.11,9.32,19.69,21.91,16.18,38-3.28,15-13.94,22.57-28.25,25.12-17.46,3.1-33.78.48-47.21-12.3-10.14-9.66-10-10.6,1.95-17.51l.86-.5c2.6-1.46,5.15-4,7.82-4.1,3-.14,3.77,4,5.82,6,7.41,7.34,16.16,9.5,26.07,6.85,4.53-1.21,8.17-3.92,9.06-8.92,1-5.31-1.19-9.37-5.68-12.28-5.47-3.53-11.57-5.74-17.47-8.36-8.08-3.59-16.12-7.35-21.83-14.36-8.76-10.74-10.3-22.92-5-35.51s16.22-17.76,29.27-19.06A37.72,37.72,0,0,1,234.79,158.66Z"/><path class="cls-2" d="M178.09,205.6c0,13.8.62,27.63-.15,41.38-1.17,21.16-13.58,32.49-34.87,32.8-15.14.21-27.54-5.12-35.78-18.49-1.58-2.56-1.82-4.2,1.29-5.81a103,103,0,0,0,12.36-7.43c3.12-2.21,4.84-2.15,6.73,1.47,3.21,6.12,8.38,9.33,15.54,8.44,6.82-.86,10.21-4.62,10.49-12.25s.14-15.29.15-22.94c0-19.45.11-38.9-.09-58.35,0-3.8,1-4.89,4.73-4.66a132.72,132.72,0,0,0,15.45,0c3.49-.19,4.53.93,4.48,4.44-.19,13.8-.08,27.6-.08,41.39Z"/><path class="cls-3" d="M0,229.44a27.3,27.3,0,0,0,19.88,26.33l4.06,1.17H32.2c.23-.8,1-.63,1.53-.76a29.16,29.16,0,0,0,13.72-8q37.17-37.23,74.39-74.4,29.76-29.75,59.48-59.53a2.28,2.28,0,0,1,2.58-.62,54.85,54.85,0,0,0,20.79,2.3,58.11,58.11,0,0,0,49.63-36.12,59.2,59.2,0,0,0,3.51-12.7c.1-.67-.12-1.56.79-1.94V51.59c-1-2.1-1-4.44-1.65-6.64-.15-.52-.24-1.06-.52-2.39-2.67,2.85-4.93,5.38-7.31,7.79-8,8-16.06,16-24,24.1a2.9,2.9,0,0,1-3.27.81c-9.67-2.64-19.38-5.18-29.08-7.69a2.25,2.25,0,0,1-1.8-1.9c-2.52-9.64-5-19.29-7.69-28.89a2.89,2.89,0,0,1,.85-3.25q15.33-15.29,30.58-30.64c.23-.23.43-.48.72-.81A57.37,57.37,0,0,0,200.3,0a54.28,54.28,0,0,0-10,.93,58.43,58.43,0,0,0-21.21,8.18,56.94,56.94,0,0,0-19.62,21c-6.13,11.3-8,23.43-6.54,36.13a54.8,54.8,0,0,0,1.31,6,2.1,2.1,0,0,1-.52,2.24q-17.1,17-34.16,34.09l-40,40-44.1,44c-5.93,5.94-11.94,11.8-17.77,17.84A27.14,27.14,0,0,0,0,229.44Zm14.46,4.5a10.76,10.76,0,0,1,10.68-10.62A10.71,10.71,0,0,1,35.52,234a10.53,10.53,0,0,1-21.06-.05Z"/></g></g></svg>