<svg xmlns="http://www.w3.org/2000/svg" viewBox="0 0 415.15 415.15"><defs><style>.cls-1{fill:#2e2e2e;}.cls-2{fill:#fffd8f;}.cls-3{fill:#dedede;}.cls-4{fill:#fff;}</style></defs><title>Asset 1</title><g id="Layer_2" data-name="Layer 2"><g id="Layer_1-2" data-name="Layer 1"><rect class="cls-1" width="415.15" height="415.15"/><path class="cls-2" d="M71.56,142a78.73,78.73,0,0,0-24.87,31.3l-18-31.13L29,142Z"/><path class="cls-2" d="M71.55,267.58H29l-.28-.17,18-31.13A78.8,78.8,0,0,0,71.55,267.58Z"/><path class="cls-2" d="M127.08,126.89a78.65,78.65,0,0,0-8.59-.47,79.57,79.57,0,0,0-8.64.47l8.56-14.83.08,0Z"/><path class="cls-2" d="M127.07,282.71l-8.58,14.87-.08-.05-8.56-14.82a79.57,79.57,0,0,0,8.64.47A78.46,78.46,0,0,0,127.07,282.71Z"/><path class="cls-2" d="M208.25,267.47v.11H165.43a78.64,78.64,0,0,0,24.83-31.25Z"/><path class="cls-2" d="M208.25,142v.11l-18,31.15A78.72,78.72,0,0,0,165.42,142Z"/><path class="cls-2" d="M188.19,204.8A69.71,69.71,0,1,1,88.19,142a69.81,69.81,0,0,1,30.3-6.91,70.26,70.26,0,0,1,14.16,1.44,69.63,69.63,0,0,1,55.54,68.26Z"/><path class="cls-3" d="M390,243.3A69.76,69.76,0,0,1,317.63,273a69,69,0,0,1-16.1-5.46,69.72,69.72,0,0,1,0-125.57l.67-.31a69.69,69.69,0,0,0,58.12,108.19,70.26,70.26,0,0,0,14.16-1.44A69.35,69.35,0,0,0,390,243.3Z"/><path class="cls-2" d="M194.9,209.84a78.62,78.62,0,0,0,.5-8.59,79.58,79.58,0,0,0-.45-8.64l14.81,8.6.05.08Z"/><path class="cls-2" d="M39.88,195.7a79.29,79.29,0,0,0,.36,17.23l-15-8.25,0-.08Z"/><polygon class="cls-4" points="168.18 311.67 168.18 332.37 317.82 332.37 317.82 377.56 168.18 377.56 168.18 398.27 93.18 354.97 168.18 311.67"/><polygon class="cls-4" points="249.52 103.48 249.52 82.78 99.88 82.78 99.88 37.59 249.52 37.59 249.52 16.88 324.52 60.18 249.52 103.48"/></g></g></svg>