<svg xmlns="http://www.w3.org/2000/svg" viewBox="0 0 197.71 195.45"><defs><style>.cls-1{fill:#e01d1d;}.cls-2{fill:#b35200;}.cls-3{fill:#fff;}</style></defs><title>Asset 1</title><g id="Layer_2" data-name="Layer 2"><g id="Layer_1-2" data-name="Layer 1"><path class="cls-1" d="M197.71,74c-1,33.92-22.29,67.07-54.9,80.66-3.93.84-7.41,3.12-12.91,3.46C16.24,44.13,41,77.52,45.39,48.22c9.19-14.84,23.32-28.34,38.73-38C90.57,8.3,97.1,4.49,105,2.54,149.42-10.31,197,27.48,197.71,74Z"/><path class="cls-2" d="M22.6,195.45c-12.55-2.62-27.89-16.16-20.81-30.92l0,0c2.43-.53,3.66-2.58,5.3-4.12h0c17.14-16.73,41.53-24.73,33.25-44.68-.27-7.86-3.1-17.21-5.9-25.88.4-1.6-.42-3.46.93-5.24C60.28,108.55,85.6,134.42,110,159.46c-6.86.58-16.07-2-23.77-3.9-5.73-1.66-13.53-3.42-20.93-1.16-2.85.66-5.6,1.44-6.08,5l.05,0c-2.65.16-3.42,2.58-4.93,4.11a.93.93,0,0,0-.92,1C44.34,174,32.62,195,22.6,195.45Z"/><circle class="cls-3" cx="132.54" cy="100.8" r="13.67"/></g></g></svg>