<svg xmlns="http://www.w3.org/2000/svg" viewBox="0 0 399.32 399.32"><defs><style>.cls-1{fill:#7d7d7d;}.cls-2{fill:#292929;}.cls-3{fill:#141414;}.cls-4{fill:#242424;}.cls-5{fill:#dedede;}</style></defs><title>Asset 2</title><g id="Layer_2" data-name="Layer 2"><g id="Layer_1-2" data-name="Layer 1"><rect class="cls-1" width="399.32" height="399.32" rx="18.89"/><path class="cls-2" d="M204.62,25.24V220.43h-10V25.24a3.19,3.19,0,0,1,3.19-3.2h3.58A3.19,3.19,0,0,1,204.62,25.24Z"/><path class="cls-2" d="M194.66,229.62h10V365.83a3.19,3.19,0,0,1-3.19,3.19h-3.58a3.19,3.19,0,0,1-3.19-3.19Z"/><path class="cls-2" d="M256.22,220.43h-9.93L208,26.38a3.34,3.34,0,0,1-.06-.62,3.19,3.19,0,0,1,2.57-3.13l3.3-.65a3.2,3.2,0,0,1,3.75,2.52Z"/><path class="cls-2" d="M283.81,376.69l-3.29.65a3.19,3.19,0,0,1-3.75-2.51L248.11,229.62H258l28.29,143.32A3.18,3.18,0,0,1,283.81,376.69Z"/><path class="cls-2" d="M141.28,229.62h9.93L122.55,374.83a3.19,3.19,0,0,1-3.75,2.51l-3.3-.65a3.19,3.19,0,0,1-2.51-3.75Z"/><path class="cls-2" d="M191.38,25.75a3.36,3.36,0,0,1-.06.63L153,220.43h-9.93L181.77,24.5A3.2,3.2,0,0,1,185.52,22l3.29.65A3.18,3.18,0,0,1,191.38,25.75Z"/><polygon class="cls-3" points="153.02 220.43 151.21 229.62 141.28 229.62 143.09 220.43 153.02 220.43"/><rect class="cls-4" x="194.66" y="220.43" width="9.96" height="9.19"/><polygon class="cls-3" points="258.03 229.62 248.11 229.62 246.29 220.43 256.22 220.43 258.03 229.62"/><rect class="cls-2" x="56.43" y="217.43" width="286.47" height="9.19" rx="2.76"/><rect class="cls-5" x="50.3" y="34.79" width="298.72" height="182.81"/></g></g></svg>