<svg xmlns="http://www.w3.org/2000/svg" viewBox="0 0 662.36 379.36"><defs><style>.cls-1{fill:#f15a29;}.cls-2{fill:#082dff;}.cls-3{fill:#f18c4d;}.cls-4{fill:#363534;}.cls-5{fill:#525252;}</style></defs><title>Asset 1</title><g id="Layer_2" data-name="Layer 2"><g id="Layer_1-2" data-name="Layer 1"><path class="cls-1" d="M238.76,176.24c-6.66,1.12-12,1.74-13.32,1.64a9.28,9.28,0,0,0-1.58,0,14.26,14.26,0,0,1,4.26-.47A77.28,77.28,0,0,0,238.76,176.24Z"/><path class="cls-2" d="M488.49,129.62c6.69,30.25,16.45,49.27,25,60.75a259.7,259.7,0,0,1-21.9,22.36c-28.34,25.27-59,30.64-85.79,36.76S317,258.68,317,258.68c-8.43,1.53-69.7,15.32-75.83,15.32-.53,0-1.21,0-2-.11h0c-1.67-4.28-3.24-8.24-4.45-11.15-.55-1.31-1-2.42-1.39-3.25-.12-.29-.24-.54-.34-.75,0,0-1-7.85-.49-11.78s1.11-12-1.35-26.38-5.52-31.27-5.4-33.12c0,0,4.3-2,7.73-1.7s33.37-4.31,43.67-9.69,35.82-18.53,41.22-20.24,23.92-2.46,35.82-1.72,47.71-5,58.26-17.42c4.63-5.43,7.37-9.36,9-13.74h0c.31-.37.6-.75.89-1.1,9-11.14,9.67-16.81,10.4-36.29,0,0,15.77-44.95-4.73-71.76a27.06,27.06,0,0,0-1.84-2.15h0c8.78,1.3,17.33,2.69,20.26,2.69,6.12,0,33.7-3.06,55.15-1.52a47.06,47.06,0,0,1,21.38,7,255.33,255.33,0,0,0-15.69,21.81S475.07,69,488.49,129.62Z"/><path class="cls-1" d="M137.66,169.19l-.15.11c-.18-1.91-.31-3.44-.4-4.53s-.14-1.83-.14-1.83-.77-3.83-2.3-10a2.15,2.15,0,0,1,0-1c1.55,6.22,2.33,10.1,2.33,10.1s.06.94.2,2.65C137.34,165.86,137.48,167.38,137.66,169.19Z"/><path class="cls-1" d="M333.22,376.46a10.8,10.8,0,0,1-2.78.05,1.81,1.81,0,0,0,.39-.62A17.11,17.11,0,0,0,333.22,376.46Z"/><path class="cls-1" d="M238.76,176.24c-6.66,1.12-12,1.74-13.32,1.64a9.28,9.28,0,0,0-1.58,0,14.26,14.26,0,0,1,4.26-.47A77.28,77.28,0,0,0,238.76,176.24Z"/><path class="cls-1" d="M168.61,280h-.16c-.52-1.12-1.06-2.26-1.6-3.45-2.47-5.33-5.27-11.38-8.52-18.31a145.92,145.92,0,0,1-5.75-14.35c1.54,4.36,3.23,8.55,5.07,12.49,3.64,7.79,6.71,14.42,9.37,20.16C167.57,277.74,168.1,278.89,168.61,280Z"/><path class="cls-1" d="M333.22,376.46a10.8,10.8,0,0,1-2.78.05,1.81,1.81,0,0,0,.39-.62A17.11,17.11,0,0,0,333.22,376.46Z"/><path class="cls-1" d="M238.76,176.24c-6.66,1.12-12,1.74-13.32,1.64a9.28,9.28,0,0,0-1.58,0,14.26,14.26,0,0,1,4.26-.47A77.28,77.28,0,0,0,238.76,176.24Z"/><path class="cls-3" d="M429.6,60.75h0a118.11,118.11,0,0,1-5.4,27.88c-.62,16.81-1.25,23-7.45,31.76-.2.3-.41.58-.62.86-1.26,1.72-2.72,3.54-4.44,5.55a28.89,28.89,0,0,1-7.84,6.09c-6.35,3.61-14.73,6.4-23.11,8.39-11.85,2.81-23.69,4-29.68,3.65-10.4-.65-25.65-.21-33.6,1-8.09,3.25-32.33,15.73-42.56,21.09-7.3,3.82-23.78,7.23-35.18,9l-.32.06-.64.1a77.28,77.28,0,0,1-10.64,1.18,14.26,14.26,0,0,0-4.26.47,26.13,26.13,0,0,0-4,1.37c-.14,2,3.15,20.11,5.78,35.49s2,24.05,1.44,28.25.53,12.62.53,12.62c.44.93,1.08,2.42,1.86,4.31.35.84.73,1.77,1.13,2.77.13.34.27.68.41,1,1.16,2.89,2.48,6.23,3.84,9.74C239.6,285.7,245,300,246,303.32a97.36,97.36,0,0,0,9.46,20c2.51,4,4.16,7.71,5.59,10.34a11.87,11.87,0,0,0,2.3,3.32c2.1,1.85,10.9,3,13.93,2.77s12.35,1.44,14.32,1.71,7,2.36,10.38,2.76,9.86,5.51,12.1,7.23,11.23,4,13.11,4.68l.2-.51a19.43,19.43,0,0,0,2.1.61c1,.24,2,.49,2.88.74l0-.1c.32.09.66.19,1,.27a48.49,48.49,0,0,1,9.32,3.07,13.51,13.51,0,0,1,2.11,3.95,4.91,4.91,0,0,1-1.4,5.5,7.32,7.32,0,0,1-2.67,1.47c.59,5.85-4.41,5.9-7.53,5.35h0a17.11,17.11,0,0,1-2.39-.57,1.81,1.81,0,0,1-.39.62c-1.2,1.34-4.37,1.53-7.89,1.24h0c-3.83.31-9.36-.65-13.29-1.49-.76,2.45-5,2.82-9.66,2.44h0c-5.49.57-14.05-1.31-17.29-2.06-2.4-.56-6.19-1.76-9.47-2.87,0,.84,0,2,0,3.71a.73.73,0,0,1,0,.22h0c-.16.69-1.06,1.15-2.51,1.41a32.75,32.75,0,0,1-7.3.09h0c-9.48,1.08-35.64-4.19-42.5-7.94a13.64,13.64,0,0,1-4.76-4.35,39.75,39.75,0,0,1-1.38-11.68c0-1-.87-2.8-2.33-5.05-.92-5.24-17.78-23.65-25.23-34.82-5.66-8.49-9.65-17-18.15-35.36-.51-1.12-1-2.27-1.59-3.46-2.66-5.74-5.73-12.37-9.37-20.16-1.84-3.94-3.53-8.13-5.07-12.49l-.16-.46c-9.61-27.3-13.59-60.48-14.91-74.14l.15-.11c-.18-1.81-.32-3.33-.42-4.49-.14-1.71-.2-2.65-.2-2.65s-.78-3.88-2.33-10.1c1.95-7.45,35.61-29.95,43.62-36.5,8.43-6.89,32.94-23.75,57.45-40.6s43.66-13,52.85-19.91,37.53-22.21,37.53-22.21A15.3,15.3,0,0,1,328,30.06a35.83,35.83,0,0,1,6.63-5.86c16.28-11.5,49.62-21.75,71.06-14.69h0a28.13,28.13,0,0,1,13.88,9.43C428.92,31.12,430.53,47.13,429.6,60.75Z"/><path class="cls-1" d="M137.66,169.19l-.15.11c-.18-1.91-.31-3.44-.4-4.53s-.14-1.83-.14-1.83-.77-3.83-2.3-10a2.15,2.15,0,0,1,0-1c1.55,6.22,2.33,10.1,2.33,10.1s.06.94.2,2.65C137.34,165.86,137.48,167.38,137.66,169.19Z"/><path class="cls-1" d="M168.61,280h-.16c-.52-1.12-1.06-2.26-1.6-3.45-2.47-5.33-5.27-11.38-8.52-18.31a145.92,145.92,0,0,1-5.75-14.35c1.54,4.36,3.23,8.55,5.07,12.49,3.64,7.79,6.71,14.42,9.37,20.16C167.57,277.74,168.1,278.89,168.61,280Z"/><path class="cls-1" d="M333.22,376.46a10.8,10.8,0,0,1-2.78.05,1.81,1.81,0,0,0,.39-.62A17.11,17.11,0,0,0,333.22,376.46Z"/><path class="cls-3" d="M657.57,359.7c-3.07-1.37-44.94-6.12-50.05-6.81s-16.68-7.82-16.68-2.38-6.12,6.47-11.91,6.81-5.45-5.44-4.77-8.18-1-8.84-1-12.58,4.77-8.86,4.77-8.86V313.07c1.36-44.94-1.37-20.77-6.47-62.64-3.56-29.2-2.82-48.8-2.05-58,4.3,2.2,11.38,9.17,13.52,9.6,2.68.53,9.12.53,9.66-5.36s8-25.23,16.63-26.3c7-.88,12.19-.32,19.95-9.63,4,6,7.27,16.14,7,34.51-.68,41.54-12.94,86.81-14.3,99.06s1,30,1,30c1,0,15.66,3.75,30.64,9.19S660,351.88,660,351.88C663.35,353.24,660.63,361.07,657.57,359.7Z"/><path class="cls-3" d="M632,150.17a75.47,75.47,0,0,1-5.31,7.45c-7.5,9.11-12.49,8.56-19.2,9.4-8.17,1-15.32,19.41-15.83,25s-6.63,5.6-9.19,5.09c-2-.39-8.56-6.81-12.66-9a3.64,3.64,0,0,0-2.66-.68c-2.89,1-12.76,6.13-12.76,6.13-10.22,9.18-17.36,7.15-20.94,7.15-1.76,0-8.62-3.6-16.64-14.18-8.25-10.86-17.74-29.1-24.21-58.34-12.77-57.7,17.87-83.75,17.87-83.75a227.79,227.79,0,0,1,16.13-22.15C538,9,549.2,2.32,567.18.56,593.23-2,630.5,2.6,652,51.11S642.76,133.32,632,150.17Z"/><path class="cls-1" d="M167,276.55h-.17c-2.47-5.33-5.27-11.38-8.52-18.31a145.92,145.92,0,0,1-5.75-14.35c1.54,4.36,3.23,8.55,5.07,12.49C161.29,264.18,164.36,270.81,167,276.55Z"/><path class="cls-1" d="M137.24,164.7a.42.42,0,0,1-.13.07c.09,1.09.22,2.62.4,4.53l.15-.11C137.48,167.38,137.34,165.86,137.24,164.7ZM167,276.55c-2.66-5.74-5.73-12.37-9.37-20.16-1.84-3.94-3.53-8.13-5.07-12.49a145.92,145.92,0,0,0,5.75,14.35c3.25,6.93,6,13,8.52,18.31.54,1.19,1.08,2.33,1.6,3.45h.16C168.1,278.89,167.57,277.74,167,276.55Z"/><path class="cls-3" d="M107.55,260.63c-6.28-1.7-11.61-2.71-14.24-2.71a58.4,58.4,0,0,0-8.43,1.23c-5.7,1.05-12.47,2-17.61-.21C59.1,255.37,56,256.39,56,256.39c-.24.06-.49.12-.73.16l-.28.05c-.27,0-.53.08-.8.1l-.44,0a9,9,0,0,1-1,0h0a10.67,10.67,0,0,1-1.68-.19,15.1,15.1,0,0,1-6.29-2.84c-6.51-4.79-11-14.52-9.55-23.41l.09-.48c.09-.44.19-.88.3-1.31s.25-.87.4-1.3l.23-.63.26-.63c.08-.2.18-.41.28-.62s.2-.41.3-.62.19-.34.28-.52,0-.05,0-.08l.36-.6c.28-.46.58-.9.91-1.34l.16-.22A59.08,59.08,0,0,1,43,217.11c11.38-12,28.67-21.67,34.51-23h.14c6.35-1.37,27.73,2.48,30.67,3a2.75,2.75,0,0,0,.34.06l6.11-3.43C107.36,211.64,95.57,242,107.55,260.63Z"/><path class="cls-4" d="M160.19,276.68c-8.6-.05-18.79-1-28-4.17a43.82,43.82,0,0,1-16.2-9.36c-.23-.2-.46-.42-.68-.64-18.29-18.28-1.79-55,5.17-72,0-.12.09-.24.14-.34v0c.75-1.83,1.39-3.44,1.84-4.75,1.41-4.08,5-8.07,9.18-11.64,2.14,19.51,7.77,58.32,20.47,85.45C155.14,265.76,157.82,271.55,160.19,276.68Z"/><path class="cls-1" d="M114.88,193.38l-.14.32h0l-6.11,3.43a2.75,2.75,0,0,1-.34-.06Z"/><path class="cls-5" d="M55,329.92a1.75,1.75,0,0,1-.9,1c-6.31,3.85-43.12,4.89-50.67-4.57-8.17-10.2.51-37.26,2.55-49s6.13-33.7,8.68-45.95c1.77-8.48,13.76-9.63,21-9.54-.27.32-.54.66-.8,1s-.51.63-.75,1c-9.05,12.07-1.08,30.4,9.92,35.08a12.92,12.92,0,0,0,6.1,1.09c-1.84,10,.78,25.73.78,30.64C50.93,296.73,56,325.32,55,329.92Z"/><path class="cls-5" d="M92.8,320.21c-1.67,5.42-24.38,10.83-34.93,11-.55-10.12-4.59-33.58-4.59-39.3,0-5.16-2.64-21.22-1.09-32.25l.12,0s3.21-1.07,11.76,2.67c6,2.6,14,1.07,20.28-.11a55.64,55.64,0,0,0-.23,17.19C86.16,291.62,94.84,313.58,92.8,320.21Z"/></g></g></svg>