<svg xmlns="http://www.w3.org/2000/svg" viewBox="0 0 62.54 56.55"><defs><style>.cls-1,.cls-2{fill:none;stroke:#f0f0f0;stroke-miterlimit:10;stroke-width:2px;}.cls-2{stroke-linecap:round;}</style></defs><title>Age</title><g id="Layer_2" data-name="Layer 2"><g id="Layer_1-2" data-name="Layer 1"><line class="cls-1" x1="33.29" y1="55.55" x2="29.25" y2="55.55"/><line class="cls-1" x1="33.29" y1="55.55" x2="29.25" y2="55.55"/><path class="cls-1" d="M61.54,17.74v7.1c-12.63,11.24-22.11,0-22.11,0-10.35,11.76-19.13,0-19.13,0-10.09,10.09-19.3,0-19.3,0v-7.1A8.69,8.69,0,0,1,9.69,9.05H52.86A8.69,8.69,0,0,1,61.54,17.74Z"/><path class="cls-1" d="M61.54,24.84V55.55H1V24.84s9.21,10.09,19.3,0c0,0,8.78,11.76,19.13,0C39.43,24.84,48.91,36.08,61.54,24.84Z"/><line class="cls-2" x1="13.46" y1="1" x2="13.46" y2="8.9"/><line class="cls-2" x1="31.14" y1="1" x2="31.14" y2="8.9"/><line class="cls-2" x1="49.09" y1="1" x2="49.09" y2="8.9"/></g></g></svg>