<svg xmlns="http://www.w3.org/2000/svg" viewBox="0 0 68.57 68.57"><defs><style>.cls-1{fill:none;stroke:#f0f0f0;stroke-linecap:round;stroke-miterlimit:10;stroke-width:2px;}</style></defs><title>Area</title><g id="Layer_2" data-name="Layer 2"><g id="Layer_1-2" data-name="Layer 1"><rect class="cls-1" x="1" y="1" width="66.57" height="66.57" rx="7.55"/><line class="cls-1" x1="44.34" y1="63.19" x2="43.72" y2="63.19"/><path class="cls-1" d="M63.19,43V56.63a6.59,6.59,0,0,1-6.56,6.56H44.34"/><line class="cls-1" x1="63.19" y1="22.01" x2="63.19" y2="23.81"/><path class="cls-1" d="M43.6,5.38h13A6.56,6.56,0,0,1,61.26,7.3h0a6.55,6.55,0,0,1,1.93,4.64V22"/><line class="cls-1" x1="21.22" y1="5.38" x2="22.96" y2="5.38"/><path class="cls-1" d="M5.38,23.75V11.94a6.56,6.56,0,0,1,6.56-6.56h9.28"/><line class="cls-1" x1="5.38" y1="46.12" x2="5.38" y2="44.01"/><path class="cls-1" d="M22.65,63.19H11.94A6.55,6.55,0,0,1,7.3,61.26h0a6.56,6.56,0,0,1-1.92-4.63V46.12"/><polyline class="cls-1" points="7.3 7.3 34.28 34.28 61.27 61.27"/><polyline class="cls-1" points="61.27 7.3 34.28 34.28 7.3 61.27"/></g></g></svg>