<svg xmlns="http://www.w3.org/2000/svg" viewBox="0 0 73.12 63.87"><defs><style>.cls-1{fill:none;stroke:#f0f0f0;stroke-miterlimit:10;stroke-width:2px;}</style></defs><title>BMI</title><g id="Layer_2" data-name="Layer 2"><g id="Layer_1-2" data-name="Layer 1"><path class="cls-1" d="M67.49,8.52V27.31H5.63V8.52A7.52,7.52,0,0,1,13.14,1H60A7.52,7.52,0,0,1,67.49,8.52Z"/><path class="cls-1" d="M67.49,40.32v15A7.52,7.52,0,0,1,60,62.87H13.14a7.52,7.52,0,0,1-7.51-7.52v-15Z"/><rect class="cls-1" x="1" y="27.31" width="71.12" height="13.01"/><line class="cls-1" x1="8.43" y1="27.02" x2="8.43" y2="30.78"/><line class="cls-1" x1="16.47" y1="27.02" x2="16.47" y2="30.78"/><line class="cls-1" x1="24.5" y1="27.02" x2="24.5" y2="30.78"/><line class="cls-1" x1="32.54" y1="27.02" x2="32.54" y2="30.78"/><line class="cls-1" x1="40.58" y1="27.02" x2="40.58" y2="30.78"/><line class="cls-1" x1="48.62" y1="27.02" x2="48.62" y2="30.78"/><line class="cls-1" x1="56.65" y1="27.02" x2="56.65" y2="30.78"/><line class="cls-1" x1="64.69" y1="27.02" x2="64.69" y2="30.78"/><path class="cls-1" d="M48.56,17.91a.76.76,0,0,1,0,.15h-24a.76.76,0,0,1,0-.15,12,12,0,0,1,24,0Z"/><line class="cls-1" x1="48.55" y1="18.06" x2="24.57" y2="18.06"/></g></g></svg>