<svg xmlns="http://www.w3.org/2000/svg" viewBox="0 0 58.7 54.6"><defs><style>.cls-1{fill:none;stroke:#f0f0f0;stroke-linecap:round;stroke-miterlimit:10;stroke-width:2px;}.cls-2{fill:#f0f0f0;}</style></defs><title>Data</title><g id="Layer_2" data-name="Layer 2"><g id="Layer_1-2" data-name="Layer 1"><polyline class="cls-1" points="2.41 22.09 56.29 22.09 40.22 6.03"/><polyline class="cls-1" points="56.29 32.56 2.41 32.56 18.48 48.63"/><path class="cls-2" d="M16.92,10.06c-.13-2.47-.28-5.44-.26-7.64h-.08C16,4.49,15.24,6.7,14.35,9.14l-3.13,8.6H9.49L6.63,9.3c-.85-2.49-1.56-4.78-2-6.88H4.52c0,2.2-.18,5.17-.34,7.83l-.47,7.59H1.53L2.76.13H5.68l3,8.57c.74,2.18,1.34,4.12,1.79,6h.08c.44-1.78,1.07-3.73,1.86-6L15.58.13H18.5l1.11,17.71H17.37Z"/><path class="cls-2" d="M23.13.37A22,22,0,0,1,27.3,0c2.29,0,3.76.39,4.86,1.29a3.7,3.7,0,0,1,1.48,3.12,4.2,4.2,0,0,1-3,3.89v.06a4.56,4.56,0,0,1,3.65,4.44,4.73,4.73,0,0,1-1.5,3.54C31.56,17.47,29.56,18,26.67,18a27.58,27.58,0,0,1-3.54-.21Zm2.28,7.25h2.08c2.41,0,3.83-1.26,3.83-3,0-2.07-1.57-2.89-3.89-2.89a9.65,9.65,0,0,0-2,.16Zm0,8.49a12.27,12.27,0,0,0,1.92.1c2.36,0,4.55-.86,4.55-3.44,0-2.42-2.08-3.42-4.58-3.42H25.41Z"/><path class="cls-2" d="M39.29,53.63a16.65,16.65,0,0,1-5.44,1,9.09,9.09,0,0,1-6.62-2.34,9.13,9.13,0,0,1-2.47-6.6c0-5.28,3.66-9.14,9.59-9.14a10.91,10.91,0,0,1,4.42.82l-.55,1.86a9.22,9.22,0,0,0-3.92-.76c-4.31,0-7.12,2.68-7.12,7.12s2.71,7.15,6.83,7.15a7.32,7.32,0,0,0,3.05-.48V47h-3.6V45.11h5.83Z"/><path class="cls-2" d="M42.79,36.94A22.12,22.12,0,0,1,47,36.57c2.28,0,3.75.4,4.86,1.29A3.72,3.72,0,0,1,53.3,41a4.21,4.21,0,0,1-3,3.89v0A4.57,4.57,0,0,1,54,49.37a4.81,4.81,0,0,1-1.5,3.55c-1.24,1.13-3.23,1.65-6.12,1.65a25.89,25.89,0,0,1-3.55-.21Zm2.28,7.25h2.08c2.42,0,3.84-1.26,3.84-3,0-2.07-1.58-2.89-3.89-2.89a9.77,9.77,0,0,0-2,.16Zm0,8.49a12.06,12.06,0,0,0,1.92.11c2.37,0,4.55-.87,4.55-3.45,0-2.41-2.08-3.41-4.57-3.41h-1.9Z"/></g></g></svg>