<svg xmlns="http://www.w3.org/2000/svg" viewBox="0 0 55 56.55"><defs><style>.cls-1{fill:none;stroke:#f0f0f0;stroke-linecap:round;stroke-miterlimit:10;stroke-width:2px;}</style></defs><title>Date</title><g id="Layer_2" data-name="Layer 2"><g id="Layer_1-2" data-name="Layer 1"><path class="cls-1" d="M54,13.11V50.73a4.82,4.82,0,0,1-4.83,4.82H5.83A4.82,4.82,0,0,1,1,50.73V13.11Z"/><path class="cls-1" d="M54,7.38v5.73H1V7.38A4.82,4.82,0,0,1,5.83,2.56H49.17A4.82,4.82,0,0,1,54,7.38Z"/><line class="cls-1" x1="17.15" y1="1" x2="17.15" y2="3.89"/><line class="cls-1" x1="37.4" y1="1" x2="37.4" y2="3.89"/><line class="cls-1" x1="12.04" y1="24.12" x2="16.46" y2="24.12"/><line class="cls-1" x1="38.54" y1="24.12" x2="42.96" y2="24.12"/><line class="cls-1" x1="12.04" y1="42.67" x2="16.46" y2="42.67"/><line class="cls-1" x1="38.54" y1="42.67" x2="42.96" y2="42.67"/></g></g></svg>