<svg xmlns="http://www.w3.org/2000/svg" viewBox="0 0 90.43 65.48"><defs><style>.cls-1,.cls-3{fill:none;stroke-linecap:round;}.cls-1{stroke:#231f20;}.cls-1,.cls-2,.cls-3{stroke-miterlimit:10;stroke-width:2px;}.cls-2,.cls-4{fill:#f0f0f0;}.cls-2,.cls-3{stroke:#f0f0f0;}</style></defs><title>Mass</title><g id="Layer_2" data-name="Layer 2"><g id="Layer_1-2" data-name="Layer 1"><path class="cls-1" d="M68.8,37.61A23.59,23.59,0,1,1,45.22,14,23.58,23.58,0,0,1,68.8,37.61Z"/><path class="cls-2" d="M48,8.35V1H42.28V8.36C25,10.84,11.43,35,11.43,64.48H79C79,35,65.38,10.73,48,8.35ZM45.22,61.18A23.58,23.58,0,1,1,68.8,37.61,23.58,23.58,0,0,1,45.22,61.18Z"/><line class="cls-3" x1="89.43" y1="1" x2="48.04" y2="1"/><line class="cls-3" x1="42.28" y1="1" x2="1" y2="1"/><line class="cls-3" x1="42.28" y1="8.37" x2="42.28" y2="8.36"/><line class="cls-3" x1="48.04" y1="8.37" x2="48.04" y2="8.35"/><line class="cls-3" x1="45.22" y1="37.6" x2="57.27" y2="22.6"/><circle class="cls-4" cx="45.22" cy="37.6" r="1.89"/></g></g></svg>