<svg xmlns="http://www.w3.org/2000/svg" viewBox="0 0 68.02 68.51"><defs><style>.cls-1{fill:none;stroke:#f0f0f0;stroke-linecap:round;stroke-miterlimit:10;stroke-width:2px;}.cls-2{fill:#f0f0f0;}</style></defs><title>Numerical</title><g id="Layer_2" data-name="Layer 2"><g id="Layer_1-2" data-name="Layer 1"><path class="cls-1" d="M2.79,45.63A33.25,33.25,0,0,0,67,38.41"/><path class="cls-1" d="M1,30.4a33.25,33.25,0,0,1,64.27-7.51"/><line class="cls-1" x1="65.27" y1="22.89" x2="59.55" y2="7.17"/><line class="cls-1" x1="2.79" y1="45.63" x2="8.62" y2="61.65"/><path class="cls-2" d="M32.44,32.57c0,9.68-3.6,15-9.9,15-5.56,0-9.33-5.21-9.42-14.63s4.12-14.8,9.9-14.8C29,18.16,32.44,23.5,32.44,32.57ZM17,33c0,7.4,2.27,11.61,5.78,11.61,3.94,0,5.82-4.6,5.82-11.87,0-7-1.79-11.61-5.78-11.61C19.43,21.14,17,25.26,17,33Z"/><path class="cls-2" d="M44.35,22.23h-.09l-4.95,2.68L38.57,22l6.22-3.33h3.28V47.11H44.35Z"/></g></g></svg>