<svg xmlns="http://www.w3.org/2000/svg" viewBox="0 0 81.92 82.99"><defs><style>.cls-1,.cls-2{fill:none;stroke:#f0f0f0;stroke-linecap:round;stroke-miterlimit:10;}.cls-1{stroke-width:2px;}.cls-2{stroke-width:0.5px;}</style></defs><title>Volume</title><g id="Layer_2" data-name="Layer 2"><g id="Layer_1-2" data-name="Layer 1"><path class="cls-1" d="M80.92,72.11C80.92,77.56,63,82,41,82S1,77.56,1,72.11a2.79,2.79,0,0,1,.39-1.39c2.72-4.8,19.4-8.5,39.57-8.5s36.85,3.7,39.57,8.5A2.9,2.9,0,0,1,80.92,72.11Z"/><path class="cls-1" d="M80.53,70.72h0c-2.72-4.8-19.4-8.5-39.57-8.5s-36.85,3.7-39.57,8.5h0L41,2Z"/><polyline class="cls-2" points="80.81 71.35 80.63 70.9 40.96 70.9 40.96 2"/></g></g></svg>