<svg xmlns="http://www.w3.org/2000/svg" viewBox="0 0 212.11 269.05"><defs><style>.cls-1{fill:#fff;}.cls-1,.cls-2,.cls-3{stroke:#231f20;stroke-miterlimit:10;stroke-width:2px;}.cls-2{fill:#7373fd;}.cls-3{fill:#d86b96;}</style></defs><title>Asset 1</title><g id="Layer_2" data-name="Layer 2"><g id="Layer_1-2" data-name="Layer 1"><path class="cls-1" d="M211,50.8q0,26.28-.1,52.56a7.6,7.6,0,0,1-.2,2.64c.06.63.16,1.27.16,1.91q.07,19.19.1,38.38c0,.8-.1,1.6-.16,2.4,0,.39,0,.78,0,1.18a3.78,3.78,0,0,0-.23,2.13q0,25.08,0,50.16c0,.56.07,1.12.11,1.68A36,36,0,0,1,196,233.18a32.51,32.51,0,0,1-10.44,5,78.84,78.84,0,0,1-20.31,3,30.27,30.27,0,0,1-30.82-27.38c-1.08-11.93,3.61-21.66,13.81-28.31,5.9-3.85,12.58-5.84,19.4-7.34,5.68-1.24,11.38-2.4,17.07-3.61a23,23,0,0,0,4.21-1.13c4.56-1.9,6.68-5.46,6.77-10.24.12-5.73,0-11.47.06-17.21a5.86,5.86,0,0,1,.27-2.63,5.21,5.21,0,0,1-.25-2.62q0-14.07.08-28.13c0-2,.15-4,.24-6-.35-10.89-.36-21.79-.35-32.69a16.82,16.82,0,0,0-.11-2.66c-.56-3.32-2.43-4.87-5.8-5-2.62-.12-5.11.62-7.63,1.12q-21.47,4.29-42.9,8.7-18.61,3.81-37.21,7.68c-.54.11-1.06.38-1.62.06h0l-1,.22c-.39-.37-.68-.23-.9.19l-.85.09c-1.84,1.15-4,1.1-6,1.58-2.43.59-4.9,1-7.35,1.54-4,.86-6.46,3.09-6.85,7.35-.11,1.21-.2,2.41-.2,3.62q0,25.22,0,50.42c0,1,0,1.94-.06,2.91q0,20.64,0,41.27c0,8.16.09,16.33.09,24.49,0,4.61.16,9.22-.22,13.82a41.75,41.75,0,0,1-5.24,18,33.41,33.41,0,0,1-18.08,15,64,64,0,0,1-22.09,3.83,30.76,30.76,0,0,1-20.89-7.78,23.56,23.56,0,0,1-7-10c-1.4-2-1.8-4.28-2.2-6.58-1.49-8.76,0-16.9,5.28-24.17,3.62-5,8.59-8.22,14.22-10.51,7.53-3.06,15.47-4.56,23.38-6.17,2.61-.53,5.23-1,7.83-1.59,6.49-1.47,9.67-5.42,9.68-12,0-11.47,0-22.95,0-34.42a6.16,6.16,0,0,1,.22-2.63,2.4,2.4,0,0,0,0-2.92v-1.91q0-12.47-.08-24.93,0-21.9,0-43.82c0-.88.06-1.77.1-2.65q0-12.85-.09-25.71c0-3,0-6,0-9,0-.57,0-1.13,0-1.7.37-7.1,3.71-11.27,10.67-12.8C80.49,25,88.27,23.55,96,22c18.2-3.68,36.4-7.42,54.62-11,16.56-3.27,33-6.94,49.68-9.78,4.21-.72,7.46.77,9.31,4.33l.27.5a3.76,3.76,0,0,1,.6,2c-.55.58-.52,1.09.21,1.49.06.32.13.63.19.95a2,2,0,0,0-.32,1.38V27a2,2,0,0,0,.33,1.37,24.87,24.87,0,0,1,0,4.88,14.44,14.44,0,0,0,0,6.76,58.77,58.77,0,0,1,0,8.18A8.67,8.67,0,0,1,211,50.8Z"/><path class="cls-2" d="M210.77,203.84c0-.56-.11-1.12-.11-1.68q0-25.08,0-50.16a3.78,3.78,0,0,1,.23-2.13,26,26,0,0,1,.15,4.83q0,23,0,46A7.79,7.79,0,0,1,210.77,203.84Z"/><path class="cls-3" d="M210.92,28.34a2,2,0,0,1-.33-1.37V11.79a2,2,0,0,1,.32-1.38,94.16,94.16,0,0,1,.15,9.94A62.68,62.68,0,0,1,210.92,28.34Z"/><path class="cls-3" d="M210.9,40a14.44,14.44,0,0,1,0-6.76A31.82,31.82,0,0,1,210.9,40Z"/><path class="cls-3" d="M210.72,9.46c-.73-.4-.76-.91-.21-1.49A1.34,1.34,0,0,1,210.72,9.46Z"/><path class="cls-3" d="M62.17,152.14v-2.92A2.4,2.4,0,0,1,62.17,152.14Z"/><path class="cls-3" d="M99.43,84c-.23.4-.53.51-.9.19C98.75,83.72,99,83.58,99.43,84Z"/><path class="cls-3" d="M209.91,6l-.27-.5A.46.46,0,0,1,209.91,6Z"/></g></g></svg>