<svg xmlns="http://www.w3.org/2000/svg" viewBox="0 0 479.22 363.53"><title>Asset 1</title><g id="Layer_2" data-name="Layer 2"><g id="Layer_1-2" data-name="Layer 1"><path d="M450.7,327.06c-22,23.77-49,34-80.34,35.64-18.94,1-37.42-1-54.86-8.79C285.19,340.42,265,317.56,255.07,286c-7.77-24.67-8.72-50-5.17-75.51,5.92-42.56,25.41-78.81,52.39-111.47,25.72-31.13,56.5-56.6,89.46-79.61,9.19-6.42,18.57-12.58,28-18.6,1.83-1.16,2.76-1.24,4,.8,2.67,4.49,5.49,8.92,8.53,13.17,1.62,2.27,1.38,3.31-1,4.83A435.67,435.67,0,0,0,386.22,53c-22.16,18.65-42.31,39.16-57,64.4-10.68,18.36-17.55,37.94-17.7,59.48,0,.86,0,1.72,0,3.51a106.08,106.08,0,0,1,24.74-16c48.32-22.31,106.2-2.74,131.12,44.35C488.17,248,480.94,294.38,450.7,327.06Z"/><path d="M219.35,299.65c-9.77,26-28.56,43.75-53.93,53.9C135.24,365.61,104,367.12,73.3,356,38.6,343.51,16.48,318.29,6.22,283c-7-24.06-7.68-48.65-4.12-73.38,6.07-42.14,25.41-78.07,52.16-110.4,31.92-38.58,71.12-68.63,113-95.42,6.94-4.44,7-4.41,11.45,2.55,1.89,2.93,3.63,6,5.74,8.75,1.67,2.19,1.05,3.13-1.06,4.5-25.54,16.7-49.59,35.29-70.82,57.3-18.15,18.82-33.51,39.56-42.36,64.51A108.24,108.24,0,0,0,63.77,175c9-6.16,17.84-11.25,27.62-14.36,37.62-11.94,71.51-5,100.94,21.16,20.4,18.14,31.18,41.46,32.5,68.76C225.63,267.17,225.28,283.88,219.35,299.65Z"/></g></g></svg>