<svg xmlns="http://www.w3.org/2000/svg" xmlns:xlink="http://www.w3.org/1999/xlink" viewBox="0 0 418.71 418.7"><defs><style>.cls-1{fill:#c92828;}.cls-2{fill:url(#linear-gradient);}</style><linearGradient id="linear-gradient" x1="322.26" y1="321.46" x2="240.93" y2="240.12" gradientUnits="userSpaceOnUse"><stop offset="0" stop-color="#2fbaba"/><stop offset="1" stop-color="#36d7d7"/></linearGradient></defs><title>inversion</title><g id="Layer_2" data-name="Layer 2"><g id="Layer_1-2" data-name="Layer 1"><line class="cls-1" x1="411.82" y1="231.9" x2="232.79" y2="410.93"/><path class="cls-1" d="M418.71,38.13V215.47a22.83,22.83,0,0,1-4.84,14.11H266.33a35.85,35.85,0,0,0-35.86,35.86V413.15a22.93,22.93,0,0,1-15,5.55H38.13A38.13,38.13,0,0,1,0,380.57V38.13A38.13,38.13,0,0,1,38.13,0H380.58A38.13,38.13,0,0,1,418.71,38.13Z"/><path class="cls-2" d="M411.82,231.9l.15-.15a20.35,20.35,0,0,0,1.9-2.17H266.33a35.85,35.85,0,0,0-35.86,35.86V413.15c.44-.38.87-.77,1.29-1.19l1-1Z"/><path class="cls-1" d="M413.87,229.58a20.35,20.35,0,0,1-1.9,2.17l-.15.15"/><path class="cls-1" d="M409.93,229.67s4.44-.91,5.5-2.34Z"/></g></g></svg>