<svg xmlns="http://www.w3.org/2000/svg" viewBox="0 0 306.86 305.76"><defs><style>.cls-1{fill:#231f20;}.cls-2{fill:#14c419;}.cls-3{fill:none;stroke:#e8291e;stroke-miterlimit:10;stroke-width:21px;}</style></defs><title>Asset 2</title><g id="Layer_2" data-name="Layer 2"><g id="Layer_1-2" data-name="Layer 1"><line class="cls-1" x1="1.1" y1="0.55" x2="306.31" y2="305.2"/><path class="cls-2" d="M1.1.55c8.13,4.58,16,9.42,23.75,14.36,3.91,2.44,7.71,5,11.57,7.48s7.63,5.08,11.4,7.66a27.2,27.2,0,0,1,4.74,4.79c1.49,1.69,3.13,3.22,4.71,4.82l9.54,9.52,19.07,19,76.3,76.16,76.3,76.17,38.15,38.08,7.65,11.42c2.5,3.84,5.05,7.65,7.51,11.54,5,7.74,9.86,15.56,14.52,23.61-8.06-4.64-15.89-9.51-23.64-14.47-3.9-2.45-7.71-5-11.56-7.49l-11.43-7.62-38.15-38.09-76.3-76.16L68.93,85.21l-19.08-19-9.54-9.52c-1.6-1.58-3.14-3.22-4.83-4.7a27.9,27.9,0,0,1-4.8-4.73C28.1,43.45,25.56,39.63,23,35.83S18,28.18,15.51,24.27C10.55,16.52,5.69,8.67,1.1.55Z"/><line class="cls-1" y1="305.76" x2="306.86"/><path class="cls-2" d="M0,305.76c4.63-8.15,9.52-16,14.51-23.8,2.47-3.91,5-7.72,7.56-11.59s5.12-7.64,7.72-11.43a28.57,28.57,0,0,1,4.83-4.75c1.7-1.49,3.24-3.13,4.86-4.71l9.59-9.55,19.17-19.11L145,144.38l76.71-76.44L260,29.72l11.48-7.66c3.87-2.51,7.7-5.06,11.61-7.52,7.78-5,15.64-9.88,23.74-14.54-4.7,8.08-9.62,15.92-14.62,23.68-2.48,3.91-5.05,7.73-7.57,11.59L277,46.72,238.61,84.94,161.9,161.38,85.18,237.82,66,256.93l-9.59,9.55c-1.59,1.61-3.24,3.15-4.73,4.84a28.2,28.2,0,0,1-4.77,4.81c-3.79,2.59-7.63,5.13-11.45,7.68s-7.7,5.07-11.62,7.52C16.05,296.29,8.16,301.16,0,305.76Z"/><circle class="cls-3" cx="153.7" cy="153.7" r="136.07"/></g></g></svg>