<svg xmlns="http://www.w3.org/2000/svg" viewBox="0 0 286.22 286.22"><defs><style>.cls-1,.cls-2{fill:#fff;stroke:#231f20;stroke-miterlimit:10;stroke-width:15px;}.cls-2{stroke-linecap:round;}.cls-3{fill:#bf1f1f;}</style></defs><title>sw</title><g id="Layer_2" data-name="Layer 2"><g id="Layer_1-2" data-name="Layer 1"><circle class="cls-1" cx="143.11" cy="143.11" r="135.61"/><line class="cls-2" x1="31.24" y1="49.23" x2="47.79" y2="32.68"/><line class="cls-2" x1="254.35" y1="49.23" x2="237.8" y2="32.68"/><path class="cls-3" d="M143.86,32.68c1.19,13.31,2.08,26.62,3,39.93l1.24,20,1,20c.32,6.65.92,13.31,1.43,20a143,143,0,0,1,.07,20c-.44,6.66-1.16,13.31-2.2,20a132.86,132.86,0,0,1-4.55,20,.79.79,0,0,1-1,.51.81.81,0,0,1-.51-.51,134.1,134.1,0,0,1-4.55-20c-1-6.66-1.76-13.31-2.2-20a141.46,141.46,0,0,1,.08-20c.5-6.65,1.1-13.31,1.42-20l1-20,1.24-20c.92-13.31,1.82-26.62,3-39.93a.75.75,0,0,1,.82-.68A.74.74,0,0,1,143.86,32.68Z"/></g></g></svg>