<svg xmlns="http://www.w3.org/2000/svg" viewBox="0 0 469.06 469.06"><defs><style>.cls-1{fill:none;}.cls-2{fill:#fff;}</style></defs><title>timerBG</title><g id="Layer_2" data-name="Layer 2"><g id="Layer_1-2" data-name="Layer 1"><circle class="cls-1" cx="234.53" cy="234.53" r="234.53"/><line class="cls-2" x1="211.07" y1="11.3" x2="212.16" y2="21.68"/><path class="cls-2" d="M211.17,11.29a6.6,6.6,0,0,1,1.17,2.5,10.41,10.41,0,0,1,.07,2.62c0,.87,0,1.74,0,2.62s0,1.75-.12,2.64l-.2,0c-.25-.85-.44-1.7-.67-2.56s-.4-1.7-.57-2.56a9.47,9.47,0,0,1-.47-2.57,6.41,6.41,0,0,1,.62-2.69Z"/><line class="cls-2" x1="187.86" y1="14.98" x2="190.03" y2="25.18"/><path class="cls-2" d="M188,15a6.42,6.42,0,0,1,1.42,2.36,9.75,9.75,0,0,1,.35,2.59c.1.87.18,1.74.25,2.62s.13,1.75.15,2.63l-.19,0c-.34-.82-.63-1.64-.94-2.47s-.57-1.65-.83-2.48a9.5,9.5,0,0,1-.74-2.51,6.47,6.47,0,0,1,.34-2.74Z"/><line class="cls-2" x1="165.17" y1="21.06" x2="168.39" y2="30.98"/><path class="cls-2" d="M165.27,21a6.47,6.47,0,0,1,1.66,2.2,9.52,9.52,0,0,1,.61,2.54c.19.85.37,1.71.52,2.57s.31,1.73.43,2.61l-.19.06c-.42-.78-.79-1.57-1.19-2.36s-.74-1.58-1.09-2.38a9.56,9.56,0,0,1-1-2.42,6.3,6.3,0,0,1,.05-2.76Z"/><line class="cls-2" x1="143.24" y1="29.48" x2="147.48" y2="39.01"/><path class="cls-2" d="M143.33,29.44a6.48,6.48,0,0,1,1.88,2,10.09,10.09,0,0,1,.88,2.47c.28.83.54,1.66.79,2.5s.48,1.69.69,2.55l-.18.08c-.5-.73-.95-1.48-1.43-2.22s-.9-1.5-1.33-2.26a10.08,10.08,0,0,1-1.25-2.3,6.52,6.52,0,0,1-.24-2.75Z"/><line class="cls-2" x1="102.6" y1="52.94" x2="108.73" y2="61.38"/><path class="cls-2" d="M102.68,52.88a6.54,6.54,0,0,1,2.26,1.58,10,10,0,0,1,1.37,2.23c.44.75.87,1.51,1.29,2.29s.83,1.54,1.21,2.34l-.16.12c-.64-.61-1.24-1.25-1.86-1.88s-1.2-1.28-1.77-1.93a9.74,9.74,0,0,1-1.7-2,6.44,6.44,0,0,1-.8-2.64Z"/><line class="cls-2" x1="84.34" y1="67.73" x2="91.32" y2="75.48"/><path class="cls-2" d="M84.41,67.66A6.57,6.57,0,0,1,86.83,69a9.56,9.56,0,0,1,1.59,2.08c.52.7,1,1.41,1.53,2.14s1,1.45,1.44,2.2l-.15.13c-.7-.53-1.36-1.11-2-1.67s-1.32-1.14-2-1.73a9.83,9.83,0,0,1-1.89-1.81,6.58,6.58,0,0,1-1.08-2.54Z"/><line class="cls-2" x1="67.73" y1="84.34" x2="75.48" y2="91.32"/><path class="cls-2" d="M67.79,84.26a6.58,6.58,0,0,1,2.54,1.08,9.83,9.83,0,0,1,1.81,1.89c.59.65,1.17,1.3,1.73,2s1.14,1.34,1.67,2l-.13.15c-.75-.46-1.47-1-2.2-1.44s-1.44-1-2.14-1.53A9.56,9.56,0,0,1,69,86.83a6.57,6.57,0,0,1-1.33-2.42Z"/><line class="cls-2" x1="52.94" y1="102.6" x2="61.38" y2="108.73"/><path class="cls-2" d="M53,102.52a6.44,6.44,0,0,1,2.64.8,9.74,9.74,0,0,1,2,1.7c.65.57,1.3,1.17,1.93,1.77s1.27,1.22,1.88,1.86l-.12.16c-.8-.38-1.56-.81-2.34-1.21s-1.54-.85-2.29-1.29a10,10,0,0,1-2.23-1.37,6.54,6.54,0,0,1-1.58-2.26Z"/><line class="cls-2" x1="29.48" y1="143.24" x2="39.01" y2="147.48"/><path class="cls-2" d="M29.52,143.14a6.52,6.52,0,0,1,2.75.24,10.08,10.08,0,0,1,2.3,1.25c.76.43,1.51.87,2.26,1.33s1.49.93,2.22,1.43l-.08.18c-.86-.21-1.7-.46-2.55-.69s-1.67-.51-2.5-.79a10.09,10.09,0,0,1-2.47-.88,6.48,6.48,0,0,1-2-1.88Z"/><line class="cls-2" x1="21.06" y1="165.17" x2="30.98" y2="168.39"/><path class="cls-2" d="M21.09,165.08a6.3,6.3,0,0,1,2.76-.05,9.56,9.56,0,0,1,2.42,1c.8.35,1.59.71,2.38,1.09s1.58.77,2.36,1.19l-.06.19c-.88-.12-1.74-.29-2.61-.43s-1.72-.33-2.57-.52a9.52,9.52,0,0,1-2.54-.61,6.47,6.47,0,0,1-2.2-1.66Z"/><line class="cls-2" x1="14.98" y1="187.86" x2="25.18" y2="190.03"/><path class="cls-2" d="M15,187.77a6.47,6.47,0,0,1,2.74-.34,9.5,9.5,0,0,1,2.51.74c.83.26,1.66.54,2.48.83s1.65.6,2.47.94l0,.19c-.88,0-1.76-.1-2.63-.15s-1.75-.15-2.62-.25a9.75,9.75,0,0,1-2.59-.35A6.42,6.42,0,0,1,15,188Z"/><line class="cls-2" x1="11.3" y1="211.07" x2="21.68" y2="212.16"/><path class="cls-2" d="M11.31,211a6.41,6.41,0,0,1,2.69-.62,9.47,9.47,0,0,1,2.57.47c.86.17,1.71.36,2.56.57s1.71.42,2.56.67l0,.2c-.89.07-1.76.08-2.64.12s-1.75,0-2.62,0a10.41,10.41,0,0,1-2.62-.07,6.6,6.6,0,0,1-2.5-1.17Z"/><line class="cls-2" x1="11.3" y1="257.99" x2="21.68" y2="256.9"/><path class="cls-2" d="M11.29,257.9a6.46,6.46,0,0,1,2.5-1.17,10,10,0,0,1,2.62-.08c.87,0,1.74,0,2.62,0s1.75.06,2.64.13l0,.19c-.85.25-1.7.45-2.56.67s-1.7.4-2.56.58a10.3,10.3,0,0,1-2.57.47,6.59,6.59,0,0,1-2.69-.63Z"/><line class="cls-2" x1="14.98" y1="281.2" x2="25.18" y2="279.03"/><path class="cls-2" d="M15,281.1a6.42,6.42,0,0,1,2.36-1.42,9.75,9.75,0,0,1,2.59-.35c.87-.1,1.74-.18,2.62-.25s1.75-.12,2.63-.15l0,.2c-.82.34-1.64.62-2.47.93s-1.65.58-2.48.84a10.31,10.31,0,0,1-2.51.74A6.47,6.47,0,0,1,15,281.3Z"/><line class="cls-2" x1="21.06" y1="303.89" x2="30.98" y2="300.67"/><path class="cls-2" d="M21,303.8a6.34,6.34,0,0,1,2.2-1.66,9.94,9.94,0,0,1,2.54-.62c.85-.19,1.71-.36,2.57-.52s1.73-.31,2.61-.42l.06.19c-.78.42-1.57.79-2.36,1.18s-1.58.75-2.38,1.09a10,10,0,0,1-2.42,1,6.45,6.45,0,0,1-2.76-.05Z"/><line class="cls-2" x1="29.48" y1="325.83" x2="39.01" y2="321.59"/><path class="cls-2" d="M29.44,325.74a6.52,6.52,0,0,1,2-1.89,10.07,10.07,0,0,1,2.47-.87c.83-.28,1.66-.54,2.5-.79s1.69-.49,2.55-.7l.08.19c-.73.5-1.48.95-2.22,1.42s-1.5.91-2.26,1.34a10,10,0,0,1-2.3,1.24,6.52,6.52,0,0,1-2.75.24Z"/><line class="cls-2" x1="52.94" y1="366.47" x2="61.38" y2="360.34"/><path class="cls-2" d="M52.88,366.39a6.58,6.58,0,0,1,1.58-2.27,10.35,10.35,0,0,1,2.23-1.37c.75-.44,1.51-.87,2.29-1.29s1.54-.82,2.34-1.21l.12.17c-.61.64-1.25,1.23-1.88,1.85s-1.28,1.2-1.93,1.78a9.69,9.69,0,0,1-2,1.69,6.45,6.45,0,0,1-2.64.81Z"/><line class="cls-2" x1="67.73" y1="384.73" x2="75.48" y2="377.75"/><path class="cls-2" d="M67.66,384.65A6.6,6.6,0,0,1,69,382.24a9.92,9.92,0,0,1,2.08-1.6c.7-.52,1.41-1,2.14-1.52s1.45-1,2.2-1.45l.13.15c-.53.7-1.11,1.36-1.67,2s-1.14,1.33-1.73,2a9.83,9.83,0,0,1-1.81,1.89,6.29,6.29,0,0,1-2.54,1.08Z"/><line class="cls-2" x1="84.34" y1="401.34" x2="91.32" y2="393.59"/><path class="cls-2" d="M84.26,401.27a6.72,6.72,0,0,1,1.08-2.54,10.1,10.1,0,0,1,1.89-1.8c.65-.59,1.3-1.17,2-1.74s1.34-1.13,2-1.67l.15.13c-.46.76-1,1.47-1.44,2.21s-1,1.44-1.53,2.14a9.74,9.74,0,0,1-1.59,2.07,6.44,6.44,0,0,1-2.42,1.34Z"/><line class="cls-2" x1="102.6" y1="416.12" x2="108.73" y2="407.69"/><path class="cls-2" d="M102.52,416.07a6.44,6.44,0,0,1,.8-2.64,10.07,10.07,0,0,1,1.7-2c.57-.65,1.17-1.29,1.77-1.93s1.22-1.26,1.86-1.87l.16.11c-.38.8-.81,1.57-1.21,2.35s-.85,1.53-1.29,2.29a9.69,9.69,0,0,1-1.37,2.22,6.41,6.41,0,0,1-2.26,1.58Z"/><line class="cls-2" x1="143.24" y1="439.59" x2="147.48" y2="430.06"/><path class="cls-2" d="M143.14,439.55a6.52,6.52,0,0,1,.24-2.75,9.88,9.88,0,0,1,1.25-2.3c.43-.76.87-1.52,1.33-2.26s.93-1.49,1.43-2.22l.18.08c-.21.86-.46,1.69-.69,2.54s-.51,1.68-.79,2.51a9.88,9.88,0,0,1-.88,2.46,6.51,6.51,0,0,1-1.88,2Z"/><line class="cls-2" x1="165.17" y1="448.01" x2="168.39" y2="438.09"/><path class="cls-2" d="M165.08,448a6.3,6.3,0,0,1-.05-2.76,9.56,9.56,0,0,1,1-2.42c.35-.8.71-1.6,1.09-2.39s.77-1.58,1.19-2.36l.19.07c-.12.87-.29,1.73-.43,2.6s-.33,1.72-.52,2.57a9.59,9.59,0,0,1-.61,2.55,6.66,6.66,0,0,1-1.66,2.2Z"/><line class="cls-2" x1="187.86" y1="454.09" x2="190.03" y2="443.88"/><path class="cls-2" d="M187.77,454.07a6.49,6.49,0,0,1-.34-2.74,9.39,9.39,0,0,1,.74-2.51c.26-.83.54-1.66.83-2.49s.6-1.65.94-2.47l.19,0c0,.89-.1,1.76-.15,2.64s-.15,1.74-.25,2.61a9.69,9.69,0,0,1-.35,2.59,6.46,6.46,0,0,1-1.42,2.37Z"/><line class="cls-2" x1="211.07" y1="457.76" x2="212.16" y2="447.39"/><path class="cls-2" d="M211,457.75a6.4,6.4,0,0,1-.62-2.68,9.61,9.61,0,0,1,.47-2.58c.17-.85.36-1.71.57-2.56s.42-1.7.67-2.55l.2,0c.07.88.08,1.76.12,2.63s0,1.76,0,2.63a10.35,10.35,0,0,1-.07,2.61,6.54,6.54,0,0,1-1.17,2.5Z"/><line class="cls-2" x1="257.99" y1="457.76" x2="256.9" y2="447.39"/><path class="cls-2" d="M257.9,457.77a6.39,6.39,0,0,1-1.17-2.5,9.9,9.9,0,0,1-.08-2.61c0-.87,0-1.75,0-2.63s.06-1.75.13-2.63l.19,0c.25.85.45,1.7.67,2.55s.4,1.71.58,2.56a10.46,10.46,0,0,1,.47,2.58,6.58,6.58,0,0,1-.63,2.68Z"/><line class="cls-2" x1="281.2" y1="454.09" x2="279.03" y2="443.88"/><path class="cls-2" d="M281.1,454.11a6.46,6.46,0,0,1-1.42-2.37,9.69,9.69,0,0,1-.35-2.59c-.1-.87-.18-1.74-.25-2.61s-.12-1.75-.15-2.64l.2,0c.34.82.62,1.65.93,2.47s.58,1.66.84,2.49a10.18,10.18,0,0,1,.74,2.51,6.49,6.49,0,0,1-.34,2.74Z"/><line class="cls-2" x1="303.89" y1="448.01" x2="300.67" y2="438.09"/><path class="cls-2" d="M303.8,448a6.53,6.53,0,0,1-1.66-2.2,10,10,0,0,1-.62-2.55c-.19-.85-.36-1.71-.52-2.57s-.31-1.73-.42-2.6l.19-.07c.42.78.79,1.58,1.18,2.36s.75,1.59,1.09,2.39a10,10,0,0,1,1,2.42A6.45,6.45,0,0,1,304,448Z"/><line class="cls-2" x1="325.83" y1="439.59" x2="321.59" y2="430.06"/><path class="cls-2" d="M325.74,439.63a6.55,6.55,0,0,1-1.89-2,9.85,9.85,0,0,1-.87-2.46c-.28-.83-.54-1.67-.79-2.51s-.49-1.68-.7-2.54l.19-.08c.5.73.95,1.48,1.42,2.22s.91,1.5,1.34,2.26a9.84,9.84,0,0,1,1.24,2.3,6.52,6.52,0,0,1,.24,2.75Z"/><line class="cls-2" x1="366.47" y1="416.12" x2="360.34" y2="407.69"/><path class="cls-2" d="M366.39,416.18a6.32,6.32,0,0,1-2.26-1.58,9.72,9.72,0,0,1-1.38-2.22c-.44-.76-.87-1.52-1.29-2.29s-.82-1.55-1.21-2.35l.17-.11c.64.61,1.23,1.25,1.85,1.87s1.2,1.28,1.78,1.93a10,10,0,0,1,1.69,2,6.45,6.45,0,0,1,.81,2.64Z"/><line class="cls-2" x1="384.73" y1="401.34" x2="377.75" y2="393.59"/><path class="cls-2" d="M384.65,401.41a6.48,6.48,0,0,1-2.41-1.34,10.13,10.13,0,0,1-1.6-2.07c-.52-.7-1-1.42-1.52-2.14s-1-1.45-1.45-2.21l.15-.13c.7.54,1.36,1.11,2,1.67s1.33,1.15,2,1.74a10.1,10.1,0,0,1,1.89,1.8,6.41,6.41,0,0,1,1.08,2.54Z"/><line class="cls-2" x1="401.34" y1="384.73" x2="393.59" y2="377.75"/><path class="cls-2" d="M401.27,384.8a6.41,6.41,0,0,1-2.54-1.08,10.1,10.1,0,0,1-1.8-1.89c-.59-.64-1.17-1.3-1.74-2s-1.13-1.34-1.67-2l.13-.15c.76.46,1.47,1,2.21,1.45s1.44,1,2.14,1.52a10.13,10.13,0,0,1,2.07,1.6,6.48,6.48,0,0,1,1.34,2.41Z"/><line class="cls-2" x1="416.12" y1="366.47" x2="407.69" y2="360.34"/><path class="cls-2" d="M416.07,366.55a6.45,6.45,0,0,1-2.64-.81,10,10,0,0,1-2-1.69c-.65-.58-1.29-1.17-1.93-1.78s-1.26-1.21-1.87-1.85l.11-.17c.8.39,1.57.81,2.35,1.21s1.53.85,2.29,1.29a10,10,0,0,1,2.22,1.37,6.45,6.45,0,0,1,1.58,2.27Z"/><line class="cls-2" x1="439.59" y1="325.83" x2="430.06" y2="321.59"/><path class="cls-2" d="M439.55,325.92a6.52,6.52,0,0,1-2.75-.24,9.84,9.84,0,0,1-2.3-1.24c-.76-.43-1.52-.88-2.26-1.34s-1.49-.92-2.22-1.42l.08-.19c.86.21,1.69.47,2.54.7s1.68.51,2.51.79a9.85,9.85,0,0,1,2.46.87,6.55,6.55,0,0,1,2,1.89Z"/><line class="cls-2" x1="448.01" y1="303.89" x2="438.09" y2="300.67"/><path class="cls-2" d="M448,304a6.45,6.45,0,0,1-2.76.05,10,10,0,0,1-2.42-1c-.8-.34-1.6-.71-2.39-1.09s-1.58-.76-2.36-1.18l.07-.19c.87.11,1.73.28,2.6.42s1.72.33,2.57.52a10,10,0,0,1,2.55.62,6.53,6.53,0,0,1,2.2,1.66Z"/><line class="cls-2" x1="454.09" y1="281.2" x2="443.88" y2="279.03"/><path class="cls-2" d="M454.07,281.3a6.49,6.49,0,0,1-2.74.34,10.18,10.18,0,0,1-2.51-.74q-1.24-.39-2.49-.84c-.82-.31-1.65-.59-2.47-.93l0-.2c.89,0,1.76.11,2.64.15s1.74.15,2.61.25a9.69,9.69,0,0,1,2.59.35,6.46,6.46,0,0,1,2.37,1.42Z"/><line class="cls-2" x1="457.76" y1="257.99" x2="447.39" y2="256.9"/><path class="cls-2" d="M457.75,258.09a6.58,6.58,0,0,1-2.68.63,10.46,10.46,0,0,1-2.58-.47c-.85-.18-1.71-.37-2.56-.58s-1.7-.42-2.55-.67l0-.19c.88-.07,1.76-.09,2.63-.13s1.76,0,2.63,0a9.89,9.89,0,0,1,2.61.08,6.39,6.39,0,0,1,2.5,1.17Z"/><line class="cls-2" x1="457.76" y1="211.07" x2="447.39" y2="212.16"/><path class="cls-2" d="M457.77,211.17a6.54,6.54,0,0,1-2.5,1.17,10.34,10.34,0,0,1-2.61.07c-.87,0-1.75,0-2.63,0s-1.75,0-2.63-.12l0-.2c.85-.25,1.7-.44,2.55-.67s1.71-.4,2.56-.57a9.61,9.61,0,0,1,2.58-.47,6.4,6.4,0,0,1,2.68.62Z"/><line class="cls-2" x1="454.09" y1="187.86" x2="443.88" y2="190.03"/><path class="cls-2" d="M454.11,188a6.46,6.46,0,0,1-2.37,1.42,9.69,9.69,0,0,1-2.59.35c-.87.1-1.74.18-2.61.25s-1.75.13-2.64.15l0-.19c.82-.34,1.65-.63,2.47-.94s1.66-.57,2.49-.83a9.39,9.39,0,0,1,2.51-.74,6.49,6.49,0,0,1,2.74.34Z"/><line class="cls-2" x1="448.01" y1="165.17" x2="438.09" y2="168.39"/><path class="cls-2" d="M448,165.27a6.66,6.66,0,0,1-2.2,1.66,9.59,9.59,0,0,1-2.55.61c-.85.19-1.71.37-2.57.52s-1.73.31-2.6.43l-.07-.19c.78-.42,1.58-.79,2.36-1.19s1.59-.74,2.39-1.09a9.56,9.56,0,0,1,2.42-1,6.3,6.3,0,0,1,2.76.05Z"/><line class="cls-2" x1="439.59" y1="143.24" x2="430.06" y2="147.48"/><path class="cls-2" d="M439.63,143.33a6.51,6.51,0,0,1-2,1.88,9.88,9.88,0,0,1-2.46.88c-.83.28-1.67.54-2.51.79s-1.68.48-2.54.69l-.08-.18c.73-.5,1.48-.95,2.22-1.43s1.5-.9,2.26-1.33a9.88,9.88,0,0,1,2.3-1.25,6.52,6.52,0,0,1,2.75-.24Z"/><line class="cls-2" x1="416.12" y1="102.6" x2="407.69" y2="108.73"/><path class="cls-2" d="M416.18,102.68a6.41,6.41,0,0,1-1.58,2.26,9.69,9.69,0,0,1-2.22,1.37c-.76.44-1.52.87-2.29,1.29s-1.55.83-2.35,1.21l-.11-.16c.61-.64,1.25-1.24,1.87-1.86s1.28-1.2,1.93-1.77a10.07,10.07,0,0,1,2-1.7,6.44,6.44,0,0,1,2.64-.8Z"/><line class="cls-2" x1="401.34" y1="84.34" x2="393.59" y2="91.32"/><path class="cls-2" d="M401.41,84.41a6.44,6.44,0,0,1-1.34,2.42A9.74,9.74,0,0,1,398,88.42c-.7.52-1.42,1-2.14,1.53s-1.45,1-2.21,1.44l-.13-.15c.54-.7,1.11-1.36,1.67-2s1.15-1.32,1.74-2a10.1,10.1,0,0,1,1.8-1.89,6.72,6.72,0,0,1,2.54-1.08Z"/><line class="cls-2" x1="384.73" y1="67.73" x2="377.75" y2="75.48"/><path class="cls-2" d="M384.8,67.79a6.29,6.29,0,0,1-1.08,2.54,9.83,9.83,0,0,1-1.89,1.81c-.64.59-1.3,1.17-2,1.73s-1.34,1.14-2,1.67l-.15-.13c.46-.75,1-1.47,1.45-2.2s1-1.44,1.52-2.14a9.92,9.92,0,0,1,1.6-2.08,6.6,6.6,0,0,1,2.41-1.33Z"/><line class="cls-2" x1="366.47" y1="52.94" x2="360.34" y2="61.38"/><path class="cls-2" d="M366.55,53a6.45,6.45,0,0,1-.81,2.64,9.69,9.69,0,0,1-1.69,2c-.58.65-1.17,1.3-1.78,1.93s-1.21,1.27-1.85,1.88l-.17-.12c.39-.8.81-1.56,1.21-2.34s.85-1.54,1.29-2.29a10,10,0,0,1,1.38-2.23,6.44,6.44,0,0,1,2.26-1.58Z"/><line class="cls-2" x1="325.83" y1="29.48" x2="321.59" y2="39.01"/><path class="cls-2" d="M325.92,29.52a6.52,6.52,0,0,1-.24,2.75,10,10,0,0,1-1.24,2.3c-.43.76-.88,1.51-1.34,2.26s-.92,1.49-1.42,2.22l-.19-.08c.21-.86.47-1.7.7-2.55s.51-1.67.79-2.5a10.07,10.07,0,0,1,.87-2.47,6.52,6.52,0,0,1,1.89-2Z"/><line class="cls-2" x1="303.89" y1="21.06" x2="300.67" y2="30.98"/><path class="cls-2" d="M304,21.09a6.45,6.45,0,0,1,.05,2.76,10,10,0,0,1-1,2.42c-.34.8-.71,1.59-1.09,2.38s-.76,1.58-1.18,2.36l-.19-.06c.11-.88.28-1.74.42-2.61s.33-1.72.52-2.57a9.94,9.94,0,0,1,.62-2.54A6.34,6.34,0,0,1,303.8,21Z"/><line class="cls-2" x1="281.2" y1="14.98" x2="279.03" y2="25.18"/><path class="cls-2" d="M281.3,15a6.47,6.47,0,0,1,.34,2.74,10.31,10.31,0,0,1-.74,2.51c-.26.83-.54,1.66-.84,2.48s-.59,1.65-.93,2.47l-.2,0c0-.88.11-1.76.15-2.63s.15-1.75.25-2.62a9.75,9.75,0,0,1,.35-2.59A6.42,6.42,0,0,1,281.1,15Z"/><line class="cls-2" x1="257.99" y1="11.3" x2="256.9" y2="21.68"/><path class="cls-2" d="M258.09,11.31a6.59,6.59,0,0,1,.63,2.69,10.3,10.3,0,0,1-.47,2.57c-.18.86-.37,1.71-.58,2.56s-.42,1.71-.67,2.56l-.19,0c-.07-.89-.09-1.76-.13-2.64s0-1.75,0-2.62a10,10,0,0,1,.08-2.62,6.46,6.46,0,0,1,1.17-2.5Z"/><line class="cls-2" x1="234.53" y1="10.07" x2="234.53" y2="30.94"/><path class="cls-2" d="M234.68,10.07a12.29,12.29,0,0,1,.91,2.61,18.24,18.24,0,0,1,.44,2.61,26,26,0,0,1-.3,5.21q-.18,2.61-.45,5.22c-.2,1.74-.36,3.48-.6,5.22h-.3c-.24-1.74-.4-3.48-.6-5.22s-.32-3.48-.45-5.22a26.81,26.81,0,0,1-.3-5.21,18.27,18.27,0,0,1,.45-2.61,12.25,12.25,0,0,1,.9-2.61Z"/><line class="cls-2" x1="122.3" y1="40.14" x2="132.73" y2="58.21"/><path class="cls-2" d="M122.43,40.07a12.73,12.73,0,0,1,2.09,1.8,19,19,0,0,1,1.69,2,26.52,26.52,0,0,1,2.35,4.67q1.14,2.36,2.22,4.74c.69,1.61,1.42,3.19,2.08,4.82l-.26.15c-1.07-1.39-2.08-2.82-3.12-4.22s-2-2.85-3-4.29a26.13,26.13,0,0,1-2.87-4.37,18.83,18.83,0,0,1-.92-2.48,12.28,12.28,0,0,1-.52-2.71Z"/><line class="cls-2" x1="40.14" y1="122.3" x2="58.21" y2="132.73"/><path class="cls-2" d="M40.22,122.17a12.28,12.28,0,0,1,2.71.52,18.83,18.83,0,0,1,2.48.92,26.13,26.13,0,0,1,4.37,2.87q2.16,1.47,4.29,3c1.4,1,2.83,2.05,4.22,3.12l-.15.26c-1.63-.66-3.21-1.39-4.82-2.08s-3.17-1.46-4.74-2.22a26.52,26.52,0,0,1-4.67-2.35,19,19,0,0,1-2-1.69,12.73,12.73,0,0,1-1.8-2.09Z"/><line class="cls-2" x1="10.07" y1="234.53" x2="30.94" y2="234.53"/><path class="cls-2" d="M10.07,234.38a12.25,12.25,0,0,1,2.61-.9,18.27,18.27,0,0,1,2.61-.45,26.81,26.81,0,0,1,5.21.3q2.61.19,5.22.45c1.74.2,3.48.36,5.22.6v.3c-1.74.24-3.48.4-5.22.6s-3.48.33-5.22.45a26,26,0,0,1-5.21.3,18.24,18.24,0,0,1-2.61-.44,12.29,12.29,0,0,1-2.61-.91Z"/><line class="cls-2" x1="40.14" y1="346.76" x2="58.21" y2="336.33"/><path class="cls-2" d="M40.07,346.63a13.16,13.16,0,0,1,1.8-2.09,18.94,18.94,0,0,1,2-1.68,25.85,25.85,0,0,1,4.67-2.35q2.36-1.14,4.74-2.22c1.61-.7,3.19-1.43,4.82-2.09l.15.26c-1.39,1.08-2.82,2.08-4.22,3.13s-2.85,2-4.29,3a25.47,25.47,0,0,1-4.37,2.86,17.51,17.51,0,0,1-2.48.92,11.73,11.73,0,0,1-2.71.52Z"/><line class="cls-2" x1="122.3" y1="428.92" x2="132.73" y2="410.85"/><path class="cls-2" d="M122.17,428.85a12.37,12.37,0,0,1,.52-2.72,18.83,18.83,0,0,1,.92-2.48,26.46,26.46,0,0,1,2.87-4.36q1.47-2.18,3-4.3c1-1.4,2.05-2.83,3.12-4.21l.26.15c-.66,1.62-1.39,3.21-2.08,4.81s-1.46,3.18-2.22,4.75a26.09,26.09,0,0,1-2.35,4.66,18.11,18.11,0,0,1-1.69,2,12.31,12.31,0,0,1-2.09,1.81Z"/><line class="cls-2" x1="234.53" y1="458.99" x2="234.53" y2="438.13"/><path class="cls-2" d="M234.38,459a12.25,12.25,0,0,1-.9-2.61,17.9,17.9,0,0,1-.45-2.6,26.91,26.91,0,0,1,.3-5.22c.13-1.74.28-3.48.45-5.21s.36-3.48.6-5.22h.3c.24,1.74.4,3.48.6,5.22s.33,3.47.45,5.21a26.14,26.14,0,0,1,.3,5.22,17.88,17.88,0,0,1-.44,2.6,12.29,12.29,0,0,1-.91,2.61Z"/><line class="cls-2" x1="346.76" y1="428.92" x2="336.33" y2="410.85"/><path class="cls-2" d="M346.63,429a12.71,12.71,0,0,1-2.09-1.81,18,18,0,0,1-1.68-2,25.44,25.44,0,0,1-2.35-4.66q-1.14-2.36-2.22-4.75c-.7-1.6-1.43-3.19-2.09-4.81l.26-.15c1.08,1.38,2.08,2.81,3.13,4.21s2,2.85,3,4.3a25.78,25.78,0,0,1,2.86,4.36,17.51,17.51,0,0,1,.92,2.48,11.81,11.81,0,0,1,.52,2.72Z"/><line class="cls-2" x1="428.92" y1="346.76" x2="410.85" y2="336.33"/><path class="cls-2" d="M428.85,346.89a11.81,11.81,0,0,1-2.72-.52,17.51,17.51,0,0,1-2.48-.92,25.78,25.78,0,0,1-4.36-2.86q-2.18-1.47-4.3-3c-1.4-1-2.83-2-4.21-3.13l.15-.26c1.62.66,3.21,1.39,4.81,2.09s3.18,1.46,4.75,2.22a25.44,25.44,0,0,1,4.66,2.35,18,18,0,0,1,2,1.68,12.71,12.71,0,0,1,1.81,2.09Z"/><line class="cls-2" x1="458.99" y1="234.53" x2="438.13" y2="234.53"/><path class="cls-2" d="M459,234.68a12.29,12.29,0,0,1-2.61.91,17.88,17.88,0,0,1-2.6.44,26.14,26.14,0,0,1-5.22-.3c-1.74-.12-3.48-.27-5.21-.45s-3.48-.36-5.22-.6v-.3c1.74-.24,3.48-.4,5.22-.6s3.47-.32,5.21-.45a26.91,26.91,0,0,1,5.22-.3,17.9,17.9,0,0,1,2.6.45,12.25,12.25,0,0,1,2.61.9Z"/><line class="cls-2" x1="428.92" y1="122.3" x2="410.85" y2="132.73"/><path class="cls-2" d="M429,122.43a12.31,12.31,0,0,1-1.81,2.09,18.11,18.11,0,0,1-2,1.69,26.09,26.09,0,0,1-4.66,2.35q-2.36,1.14-4.75,2.22c-1.6.69-3.19,1.42-4.81,2.08l-.15-.26c1.38-1.07,2.81-2.08,4.21-3.12s2.85-2,4.3-3a26.46,26.46,0,0,1,4.36-2.87,18.83,18.83,0,0,1,2.48-.92,12.37,12.37,0,0,1,2.72-.52Z"/><line class="cls-2" x1="346.76" y1="40.14" x2="336.33" y2="58.21"/><path class="cls-2" d="M346.89,40.22a11.73,11.73,0,0,1-.52,2.71,17.51,17.51,0,0,1-.92,2.48,25.47,25.47,0,0,1-2.86,4.37q-1.47,2.16-3,4.29c-1,1.4-2,2.83-3.13,4.22l-.26-.15c.66-1.63,1.39-3.21,2.09-4.82s1.46-3.17,2.22-4.74a25.85,25.85,0,0,1,2.35-4.67,18.94,18.94,0,0,1,1.68-2,13.16,13.16,0,0,1,2.09-1.8Z"/><path class="cls-2" d="M229.44,39.93a5.4,5.4,0,1,1,10.8,0v5.7a5.4,5.4,0,0,1-10.8,0Zm3.45,5.7a1.94,1.94,0,1,0,3.87,0V40a1.94,1.94,0,0,0-3.87,0Z"/><path class="cls-2" d="M323.34,68V59h10.41v3.49h-6.93V64.7h1.92a5.39,5.39,0,1,1-5.4,5.39V70h3.46A1.93,1.93,0,1,0,328.74,68Z"/><path class="cls-2" d="M385,128.86h4.33v16.5H385Z"/><path class="cls-2" d="M394.41,134.25a5.41,5.41,0,0,1,10.81,0V140a5.41,5.41,0,0,1-10.81,0Zm3.46,5.69a1.94,1.94,0,1,0,3.87,0v-5.65a1.94,1.94,0,0,0-3.87,0Z"/><path class="cls-2" d="M138,69.17V60.1h10.4v3.5h-6.93v2.22h1.92A5.39,5.39,0,1,1,138,71.21V71.1h3.45a1.93,1.93,0,1,0,1.94-1.93Z"/><path class="cls-2" d="M152.3,69.17V60.1h10.4v3.5h-6.93v2.22h1.92a5.39,5.39,0,1,1-5.39,5.39V71.1h3.45a1.93,1.93,0,1,0,1.94-1.93Z"/><path class="cls-2" d="M51.28,235.15h3v3.5h-3v3.49H47.8v-3.49H40.25v-3.53l6.65-9.48h4.38Zm-3.48,0v-4.71l-3.3,4.71Z"/><path class="cls-2" d="M56.2,234.71v-9.07H66.61v3.5H59.68v2.22h1.91a5.39,5.39,0,1,1-5.39,5.39v-.11h3.46a1.93,1.93,0,1,0,1.93-1.93Z"/><path class="cls-2" d="M411.45,225.64h4.33v16.5h-4.33Z"/><path class="cls-2" d="M420.88,234.71v-9.07h10.41v3.5h-6.93v2.22h1.92a5.39,5.39,0,1,1-5.4,5.39v-.11h3.46a1.93,1.93,0,1,0,1.94-1.93Z"/><path class="cls-2" d="M69.49,135.8v-9.07h10.4v3.5H73v2.22h1.92a5.4,5.4,0,1,1-5.39,5.4v-.12h3.45a1.93,1.93,0,1,0,1.94-1.93Z"/><path class="cls-2" d="M83.76,132.12a5.41,5.41,0,1,1,10.81,0v5.7a5.41,5.41,0,0,1-10.81,0Zm3.46,5.7a1.94,1.94,0,1,0,3.87,0v-5.65a1.94,1.94,0,0,0-3.87,0Z"/><path class="cls-2" d="M78.86,332.78h3v3.5h-3v3.5H75.38v-3.5H67.84v-3.52l6.64-9.48h4.38Zm-3.48,0v-4.71l-3.3,4.71Z"/><path class="cls-2" d="M83.76,328.67a5.41,5.41,0,0,1,10.81,0v5.7a5.41,5.41,0,0,1-10.81,0Zm3.46,5.69a1.94,1.94,0,1,0,3.87,0v-5.65a1.94,1.94,0,0,0-3.87,0Z"/><path class="cls-2" d="M389.35,323.14a2.64,2.64,0,0,0,.73-1.69,2,2,0,0,0-2-1.89,1.92,1.92,0,0,0-1.91,2h-3.54a5.47,5.47,0,1,1,10.93.06,5.59,5.59,0,0,1-1,3l-3.15,4.46h4.67v3.5H382.71Z"/><path class="cls-2" d="M397.27,321.47a5.41,5.41,0,0,1,10.81,0v5.7a5.41,5.41,0,0,1-10.81,0Zm3.46,5.7a1.94,1.94,0,1,0,3.87,0v-5.65a1.94,1.94,0,0,0-3.87,0Z"/><path class="cls-2" d="M329.7,398.25a2.69,2.69,0,0,0,.73-1.7,2,2,0,0,0-2-1.89,1.93,1.93,0,0,0-1.91,2H323a5.47,5.47,0,1,1,10.93.06,5.59,5.59,0,0,1-1,3l-3.15,4.47h4.67v3.5H323.06Z"/><path class="cls-2" d="M337.64,400.25v-9.07h10.41v3.5h-6.93v2.22H343a5.4,5.4,0,1,1-5.4,5.39v-.11h3.46a1.93,1.93,0,1,0,1.94-1.93Z"/><path class="cls-2" d="M138.45,403.64a1.89,1.89,0,0,0,1.52.59,1.86,1.86,0,0,0,1.79-1.87,1.91,1.91,0,0,0-1.81-2c-1.17,0-1.5.59-1.5.59L136,398.47l2.64-3.81h-3.41v-3.48h10.1l-4.14,5.88a5.48,5.48,0,0,1,4,5.28,5.33,5.33,0,0,1-5.24,5.35,5.69,5.69,0,0,1-4-1.57S138.45,403.61,138.45,403.64Z"/><path class="cls-2" d="M148.79,400.25v-9.07H159.2v3.5h-6.93v2.22h1.91a5.4,5.4,0,1,1-5.39,5.39v-.11h3.46a1.93,1.93,0,1,0,1.93-1.93Z"/><path class="cls-2" d="M224.79,426a1.91,1.91,0,0,0,3.3-1.28,1.91,1.91,0,0,0-1.81-2c-1.16,0-1.49.59-1.49.59l-2.47-2.48L225,417h-3.41v-3.47h10.1l-4.14,5.87a5.48,5.48,0,0,1,4,5.28,5.33,5.33,0,0,1-5.24,5.35,5.69,5.69,0,0,1-4-1.57S224.79,426,224.79,426Z"/><path class="cls-2" d="M235.1,419a5.41,5.41,0,0,1,10.81,0v5.7a5.41,5.41,0,0,1-10.81,0Zm3.46,5.69a1.94,1.94,0,1,0,3.87,0V419a1.94,1.94,0,0,0-3.87,0Z"/></g></g></svg>