<svg xmlns="http://www.w3.org/2000/svg" viewBox="0 0 417.95 417.95"><defs><style>.cls-1{fill:#4779e8;}.cls-1,.cls-2,.cls-3,.cls-4{stroke:#2b498c;stroke-width:5px;}.cls-1,.cls-2,.cls-3,.cls-4,.cls-5,.cls-6,.cls-7{stroke-miterlimit:10;}.cls-2,.cls-8{fill:#fff;}.cls-3{fill:#3c66c2;}.cls-4{fill:#737373;}.cls-5,.cls-6,.cls-7{fill:none;}.cls-5,.cls-6{stroke:#c00;stroke-width:2px;}.cls-6{stroke-dasharray:11.66 11.66;}.cls-7{stroke:red;}</style></defs><title>Asset 1</title><g id="Layer_2" data-name="Layer 2"><g id="Layer_1-2" data-name="Layer 1"><path class="cls-1" d="M415.45,357.32v20a38.13,38.13,0,0,1-38.13,38.13H40.63A38.13,38.13,0,0,1,2.5,377.32v-20a38.13,38.13,0,0,0,38.13,38.13H377.32A38.13,38.13,0,0,0,415.45,357.32Z"/><rect class="cls-2" x="2.5" y="2.5" width="412.95" height="392.95" rx="38.13"/><rect class="cls-3" x="2.5" y="2.5" width="412.95" height="392.95" rx="38.13"/><path class="cls-4" d="M321.93,134.25H96C96,73.63,146.61,24.44,209,24.44S321.93,73.63,321.93,134.25Z"/><path class="cls-5" d="M103.07,133c0-2,.11-4,.25-6"/><path class="cls-6" d="M104.83,115.44C113.92,67.57,157.1,31.28,209,31.28c54.36,0,99.11,39.79,105.21,91"/><path class="cls-5" d="M314.7,128.08c.12,2,.19,4,.19,6"/><line class="cls-7" x1="208.97" y1="24.44" x2="208.97" y2="133.43"/><path class="cls-8" d="M82.66,299.67V196.93H128c16.44,0,30.41,14.11,30.41,30.55A30.06,30.06,0,0,1,151.84,246a30.62,30.62,0,0,1,11.65,23.56c0,16.31-13.84,30.14-30.14,30.14Zm40-62.6a8.91,8.91,0,1,0,0-17.81h-13v17.81Zm5.07,40.41a8.89,8.89,0,0,0,8.91-8.91,9.07,9.07,0,0,0-8.91-8.9H109.65v17.81Z"/><path class="cls-8" d="M233.77,235l41.78-38.08h12.2V299.67H260.62V246.93l-26.85,24.52-27-24.38v52.6H179.66V196.93h12.19Z"/><path class="cls-8" d="M308.3,196.93h27V299.67h-27Z"/></g></g></svg>