<?xml version="1.0" encoding="utf-8"?>
<!-- Generator: Adobe Illustrator 24.0.1, SVG Export Plug-In . SVG Version: 6.00 Build 0)  -->
<svg version="1.1" id="Layer_1" xmlns="http://www.w3.org/2000/svg" xmlns:xlink="http://www.w3.org/1999/xlink" x="0px" y="0px"
	 viewBox="0 0 393.4 393.4" style="enable-background:new 0 0 393.4 393.4;" xml:space="preserve">
<title>Asset 1</title>
<g id="Layer_2_1_">
	<g id="Layer_1-2">
		<path d="M287,129c1.2-1.2,2-1.6,3.5-0.3c2.2,2,4.4,1.4,6.3-0.5c3.4-3.4,6.8-6.8,10.1-10.2c2.1-2.2,2.2-4.5,0.1-6.6
			c-5.7-5.8-11.5-11.6-17.2-17.3c-2-2-4.3-2.1-6.4-0.2c-3.6,3.5-7.1,7.1-10.7,10.7c-1.7,1.8-2.1,3.8-0.5,5.8c3.1,3.7-1.5,4.1-2.5,6
			c-1.3,2.4-2.7,0.7-3.9-0.3c-13.9-11.1-30.2-18.7-47.6-22.4c-2.7-0.6-6.2-0.3-7.8-1.9c-1.9-1.9-0.3-5.5-0.7-8.3
			c-0.5-3.8,0.9-5,4.7-4.8c4.5,0.3,5.8-1.3,5.8-5.7c0-6.1,0-12.2,0-18.3c0-4.2-1.4-5.6-5.6-5.6c-6.5,0-12.9,0-19.4,0l0,0
			c-6.7,0-13.4,0-20.1,0c-3.2,0-5.3,1.2-5.3,4.8c0,6.7,0,13.4,0,20.1c0,2.9,1.6,4.4,4.4,4.7c1.2,0.1,2.4,0.1,3.6,0
			c1.8-0.1,2.6,0.5,2.6,2.4c-0.1,2.9-0.1,5.7,0,8.6c0,1.7-0.5,2.5-2.4,2.8c-20,2.9-38.8,11.2-54.4,24c-1.3,1-2.2,1.2-3.2-0.1
			c-0.7-0.8-1.4-1.6-2.3-2.3c-1.3-1.1-2-2.1-0.4-3.7c1.8-1.8,1.5-4-0.2-5.8c-3.6-3.7-7.2-7.3-10.9-10.9c-1.9-1.8-4.1-1.8-6.1,0.1
			c-5.9,5.8-11.7,11.6-17.5,17.5c-2,2-2,4.3,0,6.3c3.5,3.6,7.1,7.1,10.7,10.7c1.4,1.7,3.9,1.9,5.6,0.5c0.1,0,0.1-0.1,0.2-0.1
			c0.6-0.5,1.3-1.7,2-1.1c1.9,1.4,3.6,3.1,5,5c0.8,1.3-1.2,2.4-2,3.5c-19.6,26.8-27.1,56.7-21,89.3c11.6,62.1,69.3,101.9,131.6,91.4
			c82.5-13.9,121.6-112.4,71.4-179.5C282.9,132.9,282.9,132.9,287,129z M194.1,297.5c-51.1-0.4-92.2-42.3-91.8-93.6
			c0.4-50.4,42.5-91.9,92.8-91.5c51.3,0.3,92.6,42,92.4,93.3c0,0.1,0,0.1,0,0.2C287.2,256.6,245.1,297.9,194.1,297.5z"/>
		<path d="M209.1,191.5c-0.6,1.8-0.4,3.7,0.5,5.4c4.5,8.1,1.5,18.3-6.6,22.8c-0.3,0.2-0.7,0.4-1.1,0.5c-8.5,3.9-18.6,0.1-22.5-8.4
			c-0.1-0.1-0.1-0.3-0.2-0.4c-3.5-8.5,0.5-18.3,9-21.8c0.4-0.2,0.8-0.3,1.3-0.5c2.1-0.7,3-2.1,3.9-3.8c7.7-14.8,15.3-29.7,23.6-44.2
			c1.5-2.8,3.3-5.5,5.3-7.9c-0.1,6.1-1.5,11.1-2.7,16C216.3,163.3,212.7,177.4,209.1,191.5z"/>
		<path d="M392.9,196.7c0,108.4-87.9,196.2-196.2,196.2c-20.4,0-40.6-3.1-60-9.4l26.3-3.2L149.9,363
			c91.9,25.9,187.4-27.5,213.3-119.4S335.7,56.3,243.8,30.3S56.5,57.9,30.5,149.7c-18.3,64.9,2.8,134.6,54.1,178.4l16.3-28.4
			l8.6,14.8l25,43.3l9.8,16.9H57.7l15-26C27,311.5,0.5,255.7,0.5,196.7C0.5,88.3,88.3,0.5,196.7,0.5S392.9,88.3,392.9,196.7z"/>
	</g>
</g>
</svg>
