<svg xmlns="http://www.w3.org/2000/svg" viewBox="0 0 393.42 393.42"><defs><style>.cls-1{fill:#fff;stroke:#231f20;stroke-miterlimit:10;}</style></defs><title>Asset 1</title><g id="Layer_2" data-name="Layer 2"><g id="Layer_1-2" data-name="Layer 1"><path class="cls-1" d="M287,129c1.22-1.18,2-1.63,3.47-.27,2.18,2,4.37,1.41,6.32-.54q5.07-5.09,10.12-10.18c2.15-2.17,2.19-4.47.07-6.62q-8.57-8.7-17.24-17.28c-2-2-4.29-2.14-6.36-.15-3.62,3.48-7.13,7.08-10.66,10.66-1.74,1.77-2.13,3.85-.52,5.8,3.08,3.73-1.54,4.11-2.55,6-1.3,2.42-2.69.66-3.94-.34A113.6,113.6,0,0,0,218.09,93.7c-2.66-.57-6.17-.29-7.79-1.9-1.85-1.86-.29-5.49-.68-8.31-.52-3.75.89-5,4.66-4.75,4.51.25,5.8-1.26,5.82-5.67,0-6.11,0-12.21,0-18.31,0-4.22-1.35-5.56-5.59-5.6-6.46,0-12.93,0-19.39,0v0c-6.7,0-13.4,0-20.1,0-3.16,0-5.33,1.21-5.32,4.83q0,10,0,20.1c0,2.91,1.59,4.38,4.37,4.67a21.52,21.52,0,0,0,3.59,0c1.78-.12,2.64.48,2.56,2.42-.1,2.86-.07,5.74,0,8.61,0,1.7-.5,2.54-2.37,2.82a111.4,111.4,0,0,0-54.45,24c-1.29,1-2.16,1.2-3.24-.14a17.54,17.54,0,0,0-2.27-2.29c-1.34-1.14-2-2.1-.42-3.74,1.75-1.81,1.53-4-.21-5.78-3.58-3.69-7.2-7.35-10.92-10.9-1.93-1.85-4.13-1.79-6.06.12-5.87,5.8-11.73,11.62-17.52,17.5-2,2-2,4.3,0,6.35,3.51,3.59,7.08,7.13,10.66,10.65a4,4,0,0,0,5.8.39c.63-.46,1.25-1.71,2-1.1a21.87,21.87,0,0,1,5,5c.79,1.25-1.15,2.4-2,3.49C84.59,163,77.16,192.9,83.22,225.46c11.55,62.09,69.31,101.88,131.57,91.36,82.47-13.94,121.64-112.37,71.44-179.48C282.9,132.88,282.94,132.93,287,129ZM194.13,297.47c-51.1-.4-92.19-42.28-91.79-93.56.4-50.41,42.46-91.9,92.8-91.54a92.81,92.81,0,0,1,92.35,93.45C287.21,256.57,245.13,297.87,194.13,297.47Z"/><path class="cls-1" d="M209.09,191.52a6.71,6.71,0,0,0,.54,5.39A16.79,16.79,0,0,1,202,220.27a17,17,0,0,1-22.71-8.88,16.7,16.7,0,0,1,10.26-22.31c2.12-.71,3-2.06,3.9-3.78,7.68-14.84,15.29-29.73,23.63-44.22a43.32,43.32,0,0,1,5.34-7.91c-.14,6.12-1.52,11.06-2.71,16C216.29,163.31,212.71,177.42,209.09,191.52Z"/><path class="cls-1" d="M392.92,196.71c0,108.36-87.85,196.21-196.21,196.21a196.06,196.06,0,0,1-60-9.35L163,380.4,149.93,363a172.83,172.83,0,1,0-65.26-34.88L101,299.75l8.55,14.81,25,43.28,9.76,16.91H57.73l15-26A195.81,195.81,0,0,1,.5,196.71C.5,88.35,88.35.5,196.71.5S392.92,88.35,392.92,196.71Z"/></g></g></svg>