<svg xmlns="http://www.w3.org/2000/svg" viewBox="0 0 104.67 119.42">
    <defs>
        <style>.cls-1{fill:#b62525;}</style>
    </defs>
    <title>DeleteIcon</title>
    <g id="Layer_2" data-name="Layer 2">
        <g id="Layer_1-2" data-name="Layer 1">
            <path class="cls-1" d="M91.74,60.77c-.14,1.82-.36,3.64-.55,5.45h.12c-1,13.4-2,26.8-3.11,40.2-.64,8-5.85,12.87-14.14,12.92q-21.64.14-43.3,0c-8.76,0-13.75-4.93-14.42-13.73q-2.73-36-5.51-72c-.22-2.77-.53-5.78,3.19-6.09,3.52-.3,3.64,2.66,3.84,5.2q2.73,35.47,5.44,71c.52,7,2.16,8.6,9.25,8.61q19.92,0,39.82,0c6.74,0,8.45-1.7,8.95-8.4q2.54-34,5.1-68c.09-1.16.3-2.31.39-3.46.21-2.63.66-5.61,4-4.68,1.38.39,3,3.42,2.87,5.19C93.34,42.25,92.46,51.51,91.74,60.77Z" />
            <path class="cls-1" d="M99.57,15.83q-5.73.09-11.45,0c-4-.06-8.86,1.13-11.59-.76C74.1,13.4,74,8.28,73,4.62c-.82-3.19-2.49-4.7-6-4.62-7.8.17-15.6,0-23.4.05-14.43.08-12.1-1.59-14.26,12C29,14.94,28,16,25,15.9c-7-.2-13.95-.17-20.91,0A5.93,5.93,0,0,0,.2,18.22c-.49.64,0,3,.71,3.38A10.63,10.63,0,0,0,6,22.83c15.44.08,30.87.05,46.31,0,15.77,0,31.54.11,47.3-.14,1.77,0,4.79-1.85,5-3.19C105.13,16.3,102.31,15.78,99.57,15.83Zm-63-.22c-.25-8.47-.19-8.53,7.85-8.52h14.4c8.06,0,8.06,0,9.26,8.53Z" />
            <path class="cls-1" d="M76,45.36q-.81,12.15-1.66,24.3h0q-.89,13.39-1.78,26.79c-.17,2.56-.55,5.7-3.9,4.86-1.43-.36-3.12-3.66-3-5.54.89-17,2.16-34.06,3.28-51.09.18-2.74.23-5.9,4-5.56S76.21,42.67,76,45.36Z" />
            <path class="cls-1" d="M39.17,98c-.55.61-1.68,3-3.29,3.42-3,.71-3.68-1.94-3.85-4.46-1.16-17.52-2.43-35-3.35-52.58-.09-1.72,1.95-3.54,3-5.32,1.28,1.57,3.57,3.06,3.7,4.72C36.81,61.24,37.89,78.77,39.17,98Z" />
            <path class="cls-1" d="M55.34,96.43c-.07,1.76-1.86,4.7-3.2,4.91-3.34.53-3.69-2.39-3.69-5.07q0-25.9,0-51.81c0-2.69.31-5.41,3.63-5.36S55.5,42,55.5,44.63c0,8.63,0,17.27,0,25.9S55.67,87.81,55.34,96.43Z" />
        </g>
    </g>
</svg>