<svg xmlns="http://www.w3.org/2000/svg" viewBox="0 0 107.5 105.16">
    <defs>
        <style>.cls-1{fill:#b62525;}</style>
    </defs>
    <title>EditIcon</title>
    <g id="Layer_2" data-name="Layer 2">
        <g id="Layer_1-2" data-name="Layer 1">
            <path class="cls-1" d="M102.22,86.17c0,11.78-7.16,18.9-19,18.93q-32.16.11-64.31,0C7.35,105.05.16,98,.09,86.5Q-.11,53.85.1,21.2C.16,10,7.38,2.86,18.6,2.82c20.23-.08,40.47,0,61.4,0-4,5.9-8.34,8.23-15,8-15.1-.56-30.24-.2-45.36-.16-8.25,0-11.76,3.52-11.78,11.87q-.08,31.39,0,62.8c0,8.51,3.63,12,12.22,12q31.16,0,62.31,0c8.55,0,12-3.52,12-12.18q0-20.43,0-40.87c0-8,0-8,7.63-13.46.07,1.53.18,2.78.18,4C102.24,51.94,102.29,69.06,102.22,86.17Z" />
            <path class="cls-1" d="M97.54,23.37,49.67,71.13,35.82,57.39C52,41.25,68.07,25.19,84.24,9Z" />
            <path class="cls-1" d="M102.66,19.3,88.48,4.87C93-1.41,95-1.56,100.65,4.08c.93.94,1.86,1.87,2.8,2.8C109,12.42,108.9,14.29,102.66,19.3Z" />
            <path class="cls-1" d="M44.46,76.05,28.4,79.24C29.51,73.33,30.53,68,31.47,63Z" />
        </g>
    </g>
</svg>