<svg xmlns="http://www.w3.org/2000/svg" xmlns:xlink="http://www.w3.org/1999/xlink" viewBox="0 0 341.67 360.42"><defs><style>.cls-1,.cls-3,.cls-4{fill:#ff8;}.cls-2{clip-path:url(#clip-path);}.cls-3{stroke:#b62525;}.cls-3,.cls-4{stroke-miterlimit:10;}.cls-4{stroke:#54a3d8;}.cls-5{fill:#dede76;}</style><clipPath id="clip-path"><polygon class="cls-1" points="341.67 0 341.67 273.61 254.86 360.42 0 360.42 0 0 341.67 0"/></clipPath></defs><title>favicon</title><g id="Layer_2" data-name="Layer 2"><g id="Layer_1-2" data-name="Layer 1"><polygon class="cls-1" points="341.67 0 341.67 273.61 254.86 360.42 0 360.42 0 0 341.67 0"/><g class="cls-2"><line class="cls-3" x1="15.28" y1="33.34" x2="321.53" y2="33.34"/><line class="cls-4" x1="15.28" y1="56.95" x2="321.53" y2="56.95"/><line class="cls-4" x1="15.28" y1="76.95" x2="321.53" y2="76.95"/><line class="cls-4" x1="15.28" y1="96.95" x2="321.53" y2="96.95"/><line class="cls-4" x1="15.28" y1="116.95" x2="321.53" y2="116.95"/><line class="cls-4" x1="15.28" y1="136.95" x2="321.53" y2="136.95"/><line class="cls-4" x1="15.28" y1="156.95" x2="321.53" y2="156.95"/><line class="cls-4" x1="15.28" y1="176.95" x2="321.53" y2="176.95"/><line class="cls-4" x1="15.28" y1="196.95" x2="321.53" y2="196.95"/><line class="cls-4" x1="15.28" y1="216.95" x2="321.53" y2="216.95"/><line class="cls-4" x1="15.28" y1="236.95" x2="321.53" y2="236.95"/><line class="cls-4" x1="15.28" y1="256.95" x2="321.53" y2="256.95"/><line class="cls-4" x1="15.28" y1="276.95" x2="321.53" y2="276.95"/><line class="cls-4" x1="15.28" y1="296.95" x2="321.53" y2="296.95"/><line class="cls-4" x1="15.28" y1="316.95" x2="321.53" y2="316.95"/><line class="cls-4" x1="15.28" y1="336.95" x2="321.53" y2="336.95"/></g><polygon class="cls-5" points="254.86 360.42 254.86 273.61 341.67 273.61 254.86 360.42"/></g></g></svg>