<svg xmlns="http://www.w3.org/2000/svg" viewBox="0 0 251.29 290.16"><defs><style>.cls-1{fill:#f0f0f0;}</style></defs><title>Sun</title><g id="Layer_2" data-name="Layer 2"><g id="Layer_1-2" data-name="Layer 1"><path class="cls-1" d="M71.41,72.54A90.46,90.46,0,0,0,35.7,134.38L0,72.54Z"/><path class="cls-1" d="M125.64,54.51A90.08,90.08,0,0,0,90,61.82L125.64,0l35.69,61.82A90.08,90.08,0,0,0,125.64,54.51Z"/><path class="cls-1" d="M71.41,217.62H0l35.7-61.84A90.46,90.46,0,0,0,71.41,217.62Z"/><path class="cls-1" d="M125.64,235.65a90.08,90.08,0,0,0,35.69-7.31l-35.69,61.82L90,228.34A90.08,90.08,0,0,0,125.64,235.65Z"/><path class="cls-1" d="M167.31,217.27A83.36,83.36,0,1,1,209,145.08,83,83,0,0,1,167.31,217.27Z"/><path class="cls-1" d="M251.29,217.62H179.87a90.41,90.41,0,0,0,35.71-61.86Z"/><path class="cls-1" d="M179.87,72.54h71.42L215.58,134.4A90.41,90.41,0,0,0,179.87,72.54Z"/><path class="cls-1" d="M209,145.08A83.3,83.3,0,1,1,167.31,72.9,83.3,83.3,0,0,1,209,145.08Z"/><path class="cls-1" d="M209,145.08A83.3,83.3,0,1,1,167.31,72.9,83.3,83.3,0,0,1,209,145.08Z"/></g></g></svg>