<svg xmlns="http://www.w3.org/2000/svg" viewBox="0 0 596.21 552.37"><defs><style>.cls-1{fill:#de2323;stroke:#000;stroke-miterlimit:10;stroke-width:2px;}</style></defs><title>Asset 1</title><g id="Layer_2" data-name="Layer 2"><g id="Layer_1-2" data-name="Layer 1"><path class="cls-1" d="M365.73,149.17a15.31,15.31,0,0,0-15.3-15.56v-2.55h9.95a15.49,15.49,0,0,0,15.55-15,15.29,15.29,0,0,0-15.3-15.56h-10.2V97.91h15.05a15.49,15.49,0,0,0,15.55-15,15.29,15.29,0,0,0-15.3-15.55h-15.3V64.76h9.95a15.5,15.5,0,0,0,15.55-15.05,15.29,15.29,0,0,0-15.3-15.56H317.28l2.26-2.55h15.33a15.49,15.49,0,0,0,15.56-15A15.3,15.3,0,0,0,335.13,1H314a30.71,30.71,0,0,0-22.89,10.26L259.42,46.87A15.39,15.39,0,0,1,248,52h-2.13a7.63,7.63,0,0,0-7.65,7.65v76.5a7.64,7.64,0,0,0,7.65,7.66h.92a30.9,30.9,0,0,1,11.89,2.39l37.08,15.62a30.53,30.53,0,0,0,11.89,2.39h42.56A15.47,15.47,0,0,0,365.73,149.17Z"/><path class="cls-1" d="M580.46,190.29a15.28,15.28,0,0,0-15.34,15.34v32.8h-3V172.15a15.28,15.28,0,0,0-15.34-15.34,15,15,0,0,0-14.75,15v66.58h-3v-81a15.29,15.29,0,0,0-15.34-15.34,15,15,0,0,0-14.75,15.05v81.24h-3v-65.9a15.28,15.28,0,0,0-15.34-15.34,15,15,0,0,0-14.75,15V261l-11.9-16.37a15,15,0,0,0-24.34,17.69l47.24,65a18.07,18.07,0,0,0,14.61,7.43h74.32a18.05,18.05,0,0,0,17.57-13.92l10-42.37a72,72,0,0,0,1.92-16.54V205.33A15,15,0,0,0,580.46,190.29Z"/><path class="cls-1" d="M412.29,537.1a14.27,14.27,0,0,1,14.27-14.28V520H415.14a14.27,14.27,0,1,1,0-28.54h11.42v-2.86H352.35a17.13,17.13,0,1,1,0-34.25h74.21v-4.84L363.21,424.6a17.13,17.13,0,1,1,12.53-31.88l67.91,26.67,8.87-11.09a14.29,14.29,0,0,1,18.23-3.48l40,22.84a14.28,14.28,0,0,1,7.19,12.39v85.63a14.28,14.28,0,0,1-11,13.89L458.37,551a14.39,14.39,0,0,1-3.27.38H426.56A14.27,14.27,0,0,1,412.29,537.1Z"/><path class="cls-1" d="M213.66,550.1h65.63V510.37a32.85,32.85,0,0,0-5.07-17.52l-55.73-88.23A16.4,16.4,0,0,0,204.62,397h-114a8.2,8.2,0,0,0-8.21,8.2v5.47a19.13,19.13,0,0,0,19.14,19.14h78.61a6.15,6.15,0,0,1,5.68,8.52l-7.32,17.57a10.94,10.94,0,0,1-10.09,6.73H126.16a21.87,21.87,0,0,0-21.87,21.87v2.74a8.2,8.2,0,0,0,8.2,8.2h50.38a16.4,16.4,0,0,1,8.79,2.55l38.19,24.2a8.2,8.2,0,0,1,3.81,6.93Z"/><path class="cls-1" d="M194,207.59,168.2,316A39.29,39.29,0,0,1,130,346.14H81.86a51.38,51.38,0,0,1-35.21-14L5.74,293.67a15.11,15.11,0,0,1,20.71-22l22.89,21.54h0a107.17,107.17,0,0,0-4.41-30.4L28.8,208.38a15.12,15.12,0,1,1,29-8.59l14,47.38a3.15,3.15,0,0,0,6.07-1.68l-19-73.92A15.11,15.11,0,1,1,88.15,164l21.2,82.42a3.94,3.94,0,0,0,7.67-.18l14.23-69.41a15.14,15.14,0,0,1,17.88-11.76c.51.1,1,.24,1.51.39,7.5,2.38,11.66,10.46,10.07,18.17L147.93,246a2.85,2.85,0,0,0,5.57,1.24l11.11-46.65a15.11,15.11,0,0,1,29.4,7Z"/></g></g></svg>