<svg xmlns="http://www.w3.org/2000/svg" viewBox="0 0 215.53 215.53"><defs><style>.cls-1{fill:#7d7d77;}.cls-2{fill:none;}</style></defs><title>Asset 3</title><g id="Layer_2" data-name="Layer 2"><g id="Layer_1-2" data-name="Layer 1"><path class="cls-1" d="M207.77,107.77a9.07,9.07,0,0,1-.45,1,3.38,3.38,0,0,0-.45,0h-2.23c-.15-.31-.29-.6-.44-1a9.85,9.85,0,0,1,.44-1h2.23c.15,0,.3,0,.45,0A8.31,8.31,0,0,1,207.77,107.77Z"/><path class="cls-1" d="M11.33,107.77a9.07,9.07,0,0,1-.45,1,3.23,3.23,0,0,0-.44,0H8.21c-.15-.31-.29-.6-.44-1a9.85,9.85,0,0,1,.44-1h2.23c.15,0,.29,0,.44,0A8.31,8.31,0,0,1,11.33,107.77Z"/><path class="cls-1" d="M107.77,11.34a8.31,8.31,0,0,1-1-.45c0-.15,0-.3,0-.45V8.21a9.85,9.85,0,0,1,1-.44c.4.15.69.29,1,.44v2.23a3.38,3.38,0,0,0,0,.45A9.07,9.07,0,0,1,107.77,11.34Z"/><path class="cls-1" d="M107.77,207.77a8.31,8.31,0,0,1-1-.45c0-.15,0-.29,0-.44v-2.23a9.85,9.85,0,0,1,1-.44c.4.15.69.29,1,.44v2.23a3.23,3.23,0,0,0,0,.44A9.07,9.07,0,0,1,107.77,207.77Z"/><path class="cls-1" d="M194.37,57.77a9.26,9.26,0,0,1-.63,1.52c-.38.2-.75.43-1.13.64l-2.25,1.31-2.26,1.3-1.13.65a10.75,10.75,0,0,1-1.62-.21,11.19,11.19,0,0,1,.62-1.52l1.13-.65,2.26-1.31,2.25-1.3c.38-.22.76-.42,1.12-.66A9.1,9.1,0,0,1,194.37,57.77Z"/><path class="cls-1" d="M21.16,157.77a8.88,8.88,0,0,1,.62-1.53c.39-.2.76-.43,1.13-.64l2.26-1.31,2.26-1.3,1.13-.65a12.43,12.43,0,0,1,1.63.22,13.18,13.18,0,0,1-.63,1.51l-1.13.66L26.17,156l-2.26,1.3c-.37.22-.75.43-1.12.66A9.91,9.91,0,0,1,21.16,157.77Z"/><path class="cls-1" d="M57.77,21.17a9.26,9.26,0,0,1,1.52.62c.2.39.43.76.64,1.13l1.31,2.26,1.3,2.25.65,1.13A10.87,10.87,0,0,1,63,30.19a12.64,12.64,0,0,1-1.52-.63l-.65-1.13L59.5,26.18l-1.3-2.26c-.22-.37-.42-.75-.66-1.12A8.87,8.87,0,0,1,57.77,21.17Z"/><path class="cls-1" d="M157.77,194.38a9.76,9.76,0,0,1-1.53-.63c-.2-.38-.43-.75-.64-1.13l-1.31-2.26L153,188.1l-.65-1.12a12.2,12.2,0,0,1,.22-1.63,10.37,10.37,0,0,1,1.51.63l.66,1.13,1.3,2.25,1.3,2.26c.22.37.43.76.66,1.12A10,10,0,0,1,157.77,194.38Z"/><path class="cls-1" d="M157.77,21.17A9.77,9.77,0,0,1,158,22.8c-.23.37-.44.75-.66,1.12L156,26.18l-1.3,2.25-.66,1.13a13.18,13.18,0,0,1-1.51.63,12.43,12.43,0,0,1-.22-1.63l.65-1.13,1.31-2.25,1.3-2.26c.21-.37.44-.74.64-1.13A9.76,9.76,0,0,1,157.77,21.17Z"/><path class="cls-1" d="M57.77,194.38a10.09,10.09,0,0,1-.23-1.64c.24-.36.44-.75.67-1.12l1.3-2.26,1.3-2.25.65-1.13a10,10,0,0,1,1.52-.63,10.71,10.71,0,0,1,.21,1.63l-.65,1.12-1.3,2.26-1.3,2.26c-.22.38-.45.75-.65,1.13A9.26,9.26,0,0,1,57.77,194.38Z"/><path class="cls-1" d="M30.19,63a10,10,0,0,1-1.64.22c-.36-.23-.75-.44-1.12-.66l-2.26-1.3-2.26-1.3-1.12-.65a11,11,0,0,1-.63-1.52,12.2,12.2,0,0,1,1.63-.22l1.12.66,2.26,1.3,2.26,1.3c.38.21.75.44,1.13.64A9.76,9.76,0,0,1,30.19,63Z"/><path class="cls-1" d="M185.35,152.56a9.82,9.82,0,0,1,1.63-.23c.37.24.75.44,1.12.66l2.26,1.31,2.25,1.3,1.13.65a12.64,12.64,0,0,1,.63,1.52,10.87,10.87,0,0,1-1.63.21l-1.13-.65-2.25-1.3-2.26-1.3c-.38-.22-.75-.45-1.13-.65A8.46,8.46,0,0,1,185.35,152.56Z"/><circle class="cls-2" cx="107.77" cy="107.77" r="107.77"/><path class="cls-1" d="M97.81,16.72c.38-.16.79-.35,1.21-.55s.83-.44,1.23-.68.78-.51,1.15-.78a10.61,10.61,0,0,0,1-.87h2.08V27.7h-3v-10a9.93,9.93,0,0,1-1.34.73q-.75.33-1.44.57Z"/><path class="cls-1" d="M117.69,17.48a3.7,3.7,0,0,1-.3,1.46,7.13,7.13,0,0,1-.78,1.35,11.36,11.36,0,0,1-1.08,1.25c-.4.4-.8.78-1.18,1.14-.2.18-.42.39-.65.63s-.46.47-.67.71-.41.46-.57.67a1.47,1.47,0,0,0-.31.51h6v2.5h-9.24a3,3,0,0,1,0-.56v-.48a4.75,4.75,0,0,1,.31-1.76,6,6,0,0,1,.81-1.49,9.16,9.16,0,0,1,1.13-1.29l1.25-1.2.9-.87c.28-.28.52-.54.74-.8a3.78,3.78,0,0,0,.5-.78,1.89,1.89,0,0,0,.18-.79,1.43,1.43,0,0,0-.5-1.24,2.09,2.09,0,0,0-1.24-.36,2.78,2.78,0,0,0-1,.17,4.26,4.26,0,0,0-.86.4,4.11,4.11,0,0,0-.67.46,3.58,3.58,0,0,0-.42.37l-1.48-2.08a7.3,7.3,0,0,1,2-1.35,5.89,5.89,0,0,1,2.51-.53,6.89,6.89,0,0,1,2.1.28,3.88,3.88,0,0,1,1.45.79,3,3,0,0,1,.84,1.24A4.68,4.68,0,0,1,117.69,17.48Z"/><path class="cls-1" d="M20,108.52a3.37,3.37,0,0,1-.93.29,5.13,5.13,0,0,1-.87.09,6.87,6.87,0,0,1-2.22-.31,3.8,3.8,0,0,1-1.51-.88,3.28,3.28,0,0,1-.87-1.37,5.2,5.2,0,0,1-.28-1.76,5.36,5.36,0,0,1,.27-1.64,4.5,4.5,0,0,1,2.32-2.67,4.71,4.71,0,0,1,2.15-.45A4.76,4.76,0,0,1,22,101.41,7,7,0,0,1,23.27,106a10.72,10.72,0,0,1-.51,3.46A6.19,6.19,0,0,1,21.18,112a7,7,0,0,1-2.73,1.55,13.1,13.1,0,0,1-3.94.55c0-.42,0-.84-.06-1.24s-.06-.81-.08-1.24a14.06,14.06,0,0,0,2.06-.17,5.5,5.5,0,0,0,1.62-.5,3.73,3.73,0,0,0,1.19-.93A4.29,4.29,0,0,0,20,108.52Zm-1.46-1.94a5.54,5.54,0,0,0,1-.09,2,2,0,0,0,.74-.25v-.18a.92.92,0,0,1,0-.16c0-.05,0-.1,0-.14q0-.72-.12-1.35a3.84,3.84,0,0,0-.34-1.1,2,2,0,0,0-.65-.74,1.81,1.81,0,0,0-1-.27,1.67,1.67,0,0,0-1.42.72,2.36,2.36,0,0,0-.33.7,2.46,2.46,0,0,0-.11.74,2.12,2.12,0,0,0,.53,1.6A2.39,2.39,0,0,0,18.55,106.58Z"/><path class="cls-1" d="M195.55,114.32a9.16,9.16,0,0,1-1.14-.07,10.79,10.79,0,0,1-1.16-.19c-.37-.08-.71-.16-1-.26a6.16,6.16,0,0,1-.72-.26l.58-2.48a12.21,12.21,0,0,0,1.33.47,6.82,6.82,0,0,0,2,.25,3.12,3.12,0,0,0,2-.52,1.69,1.69,0,0,0,.64-1.4,1.64,1.64,0,0,0-.23-.91,1.82,1.82,0,0,0-.63-.6,2.8,2.8,0,0,0-.95-.32,7.13,7.13,0,0,0-1.17-.09H194v-2.4h1.32a3.89,3.89,0,0,0,.85-.08,2.18,2.18,0,0,0,.74-.27,1.32,1.32,0,0,0,.5-.52,1.59,1.59,0,0,0,.19-.83,1.4,1.4,0,0,0-.15-.66,1.54,1.54,0,0,0-.42-.46,1.72,1.72,0,0,0-.58-.27,2.46,2.46,0,0,0-.67-.09,4.82,4.82,0,0,0-1.59.26,7.44,7.44,0,0,0-1.33.64l-1.06-2.18.75-.42a9.36,9.36,0,0,1,.95-.4,9,9,0,0,1,1.11-.3,6.31,6.31,0,0,1,1.25-.12,6.89,6.89,0,0,1,2.11.29,4.13,4.13,0,0,1,1.48.82,3.28,3.28,0,0,1,.85,1.24,4.11,4.11,0,0,1,.28,1.55,3,3,0,0,1-.46,1.58,2.86,2.86,0,0,1-1.24,1.17,3.46,3.46,0,0,1,2.26,3.41,4.64,4.64,0,0,1-.32,1.77,3.45,3.45,0,0,1-1,1.4A4.82,4.82,0,0,1,198,114,8.35,8.35,0,0,1,195.55,114.32Z"/><path class="cls-1" d="M108,192.51a6.07,6.07,0,0,1,2.21.35,4.1,4.1,0,0,1,1.49.95,3.69,3.69,0,0,1,.84,1.4,5.55,5.55,0,0,1,.26,1.7,5.11,5.11,0,0,1-.29,1.64,4.83,4.83,0,0,1-.88,1.52,4.91,4.91,0,0,1-1.5,1.12,5,5,0,0,1-2.15.44,4.63,4.63,0,0,1-3.8-1.58,6.67,6.67,0,0,1-1.3-4.36,9.25,9.25,0,0,1,.62-3.54,6.87,6.87,0,0,1,1.77-2.59A7.55,7.55,0,0,1,108,188a11.58,11.58,0,0,1,3.67-.57c0,.41,0,.81.08,1.21s0,.8.08,1.23a10.39,10.39,0,0,0-1.91.19,6,6,0,0,0-1.62.53,4.39,4.39,0,0,0-1.27.93,4,4,0,0,0-.84,1.39,3.24,3.24,0,0,1,.9-.28A4.37,4.37,0,0,1,108,192.51Zm-.38,2.32a5.19,5.19,0,0,0-.94.08,2.37,2.37,0,0,0-.78.22c0,.05,0,.13,0,.24s0,.2,0,.28a8.44,8.44,0,0,0,.1,1.36,3.68,3.68,0,0,0,.34,1.12,1.89,1.89,0,0,0,.64.75,1.73,1.73,0,0,0,1,.27,1.65,1.65,0,0,0,.85-.21,2.1,2.1,0,0,0,.58-.53,2.58,2.58,0,0,0,.34-.71,2.9,2.9,0,0,0,.11-.75,2.21,2.21,0,0,0-.51-1.57A2.24,2.24,0,0,0,107.57,194.83Z"/></g></g></svg>
