<?xml version="1.0" encoding="utf-8"?>
<!-- Generator: Adobe Illustrator 24.0.1, SVG Export Plug-In . SVG Version: 6.00 Build 0)  -->
<svg version="1.1" id="Layer_1" xmlns="http://www.w3.org/2000/svg" xmlns:xlink="http://www.w3.org/1999/xlink" x="0px" y="0px"
	 viewBox="0 0 468.4 468.4" style="enable-background:new 0 0 468.4 468.4;" xml:space="preserve">
<style type="text/css">
	.st0{fill:#FFFFFF;}
	.st1{font-family:'MyriadPro-Regular';}
	.st2{font-size:127.21px;}
	.st3{font-family:'BigJohn';}
	.st4{letter-spacing:-5;}
</style>
<path class="st0" d="M322.5,279.9c-0.1,6.6-0.7,13.3-1.9,19.8c-0.9,3.9-2.8,7.6-5.4,10.7c-6.6,8-9.4,17.1-9.7,27.3
	c-0.1,4.9-1.4,5.9-7.1,6.4c-1.8,0.1-3.7,0.3-5.5,0.3c-3,0-5.3-2.1-6-5.6c-0.6-2.9-0.7-6.1-4.6-7.8c-1.1,2.9-2.3,5.7-3.1,8.6
	c-1,3.3-3.1,4.9-6.5,4.9c-5.4,0.1-10.8,0.3-16.2,0.1c-2.5-0.2-5-0.8-7.3-1.8c-3.1-1.1-2.6-4.1-2.5-6.5c0.2-3.8-0.5-6.7-4-8.8
	c-5.9-3.5-9.3-9.3-12.4-15c-6.5-11.8-13.9-23.1-22.1-33.8c-3.7-4.8-3.4-8.4,0.5-12.9c3.4-3.9,9-5.2,13.3-2.6
	c4.8,2.9,9.3,6.2,14.3,9.5c-0.6-3.5-1-7.1-1.7-10.7c-0.6-3.2-1.6-6.4-2.2-9.7c-1.3-6.6-2.3-13.3-3.8-19.9
	c-1.6-6.9,0.8-14.2,6.2-18.8c3.2-2.6,6.3-1.5,9,0c4.4,2.3,7.4,6.5,8.3,11.3c2,9,4.3,17.8,6.5,26.7c0.1,0.2,0.2,0.4,0.4,0.6
	c5-8.4,18.3-7.6,21.3,1.8c3.7-3.4,6.7-7.7,12.7-6.5c5.9,1.2,7.4,6.2,9.6,10.4c2.2-1.3,4.1-3.1,6.4-3.7c0.5-0.1,1-0.2,1.5-0.3
	c5.6-0.7,10.6,3.3,11.3,8.9C322.5,268.5,322.7,274.2,322.5,279.9z"/>
<title>Asset 1</title>
<g id="Layer_2-2">
	<g id="Layer_1-2-2">
		<g>
			<text transform="matrix(1 0 0 1 6.72 231.69)" class="st1 st2">&lt;</text>
			<text transform="matrix(1 0 0 1 6.72 231.69)" class="st1 st2">&lt;</text>
			<text transform="matrix(1 0 0 1 82.54 231.69)" class="st3 st2">n</text>
			<text transform="matrix(1 0 0 1 82.54 231.69)" class="st3 st2">n</text>
			<text transform="matrix(1 0 0 1 182.14 231.69)" class="st3 st2 st4">a</text>
			<text transform="matrix(1 0 0 1 182.14 231.69)" class="st3 st2 st4">a</text>
			<text transform="matrix(1 0 0 1 282.89 231.69)" class="st3 st2">v</text>
			<text transform="matrix(1 0 0 1 282.89 231.69)" class="st3 st2">v</text>
			<text transform="matrix(1 0 0 1 385.81 231.69)" class="st1 st2">&gt;</text>
			<text transform="matrix(1 0 0 1 385.81 231.69)" class="st1 st2">&gt;</text>
		</g>
		<path d="M321.8,262.8c-0.7-5.6-5.7-9.6-11.3-8.9c-0.5,0.1-1,0.2-1.5,0.3c-2.3,0.6-4.2,2.4-6.4,3.7c-2.2-4.2-3.7-9.2-9.6-10.4
			c-6-1.2-9,3.1-12.7,6.5c-3-9.4-16.3-10.2-21.3-1.8c-0.2-0.2-0.3-0.4-0.4-0.6c-2.2-8.9-4.5-17.7-6.5-26.7c-0.9-4.8-3.9-9-8.3-11.3
			c-2.7-1.5-5.8-2.6-9,0c-5.4,4.6-7.8,11.9-6.2,18.8c1.5,6.6,2.5,13.3,3.8,19.9c0.6,3.3,1.6,6.5,2.2,9.7c0.7,3.6,1.1,7.2,1.7,10.7
			c-5-3.3-9.5-6.6-14.3-9.5c-4.3-2.6-9.9-1.3-13.3,2.6c-3.9,4.5-4.2,8.1-0.5,12.9c8.2,10.7,15.6,22,22.1,33.8
			c3.1,5.7,6.5,11.5,12.4,15c3.5,2.1,4.2,5,4,8.8c-0.1,2.4-0.6,5.4,2.5,6.5c2.3,1,4.8,1.6,7.3,1.8c5.4,0.2,10.8,0,16.2-0.1
			c3.4,0,5.5-1.6,6.5-4.9c0.8-2.9,2-5.7,3.1-8.6c3.9,1.7,4,4.9,4.6,7.8c0.7,3.5,3,5.6,6,5.6c1.8,0,3.7-0.2,5.5-0.3
			c5.7-0.5,7-1.5,7.1-6.4c0.3-10.2,3.1-19.3,9.7-27.3c2.6-3.1,4.5-6.8,5.4-10.7c1.2-6.5,1.8-13.2,1.9-19.8
			C322.7,274.2,322.5,268.5,321.8,262.8z M319,271.6c0,8.8-0.6,17.6-1.8,26.3c-0.6,3.9-3.1,7.7-5.3,11.2c-3.7,5.7-7.7,11.2-8.8,18
			c-0.7,4.3-1.2,8.6-1.8,12.9c-1.8,0.4-3.5,0.6-5.3,0.8c-2.7,0.1-5.3-0.1-6-3.6c-0.3-1.7-0.6-3.6-1.5-4.9c-1.4-1.9-3.2-4.4-5.2-4.8
			c-2.9-0.6-4.5,2.3-5.6,4.7c-0.7,2-1.3,4.1-1.7,6.2c-0.8,3.1-3.6,2.8-5.7,2.8c-5.7,0.1-11.4-0.2-17.1-0.5c-2-0.1-3.2-1-3-3.6
			c0.5-5.6-1.6-9.9-6.4-13.5c-3.5-2.5-6.3-6.3-8.7-10c-6.1-9.5-11.8-19.2-17.8-28.8c-1.9-3-4.7-5.4-6.7-8.3
			c-2.4-3.4-2.1-5.5,0.7-8.7c1.9-2.2,6.1-2.9,8.8-1.7c7.3,3.3,12.8,8.7,17.8,14.8c0.4,0.5,0.9,1,1.4,1.5c1.8-0.7,2.5-1.3,2-3.5
			c-1.4-6.2-2.2-12.4-3.5-18.6c-1.6-8.2-3.6-16.3-5.1-24.6c-0.9-5.1-1.9-10.3,0.5-15.5c3-6.6,9.5-4.9,12.5-0.4
			c1.6,2.4,2.7,5.1,3.3,7.9c2.9,12.7,5.5,25.6,8.1,38.4c0.1,0.4,0.3,0.8,0.5,1.2c1.8-0.3,2.9-0.6,3-3.1c0.1-3,0.7-5.9,1.6-8.7
			c1.2-4,4.3-6.2,7.4-5.8c4.6,0.6,6.9,2.9,7.6,7.5c0.4,2.6,0.5,5.2,1.1,7.8c0.2,0.8,1.2,1.4,1.8,2.1c0.7-0.8,1.8-1.5,2-2.4
			c0.4-2.2,0.3-4.5,0.5-6.6c0.4-3.4,5.1-7.4,8.5-7.6c2.4-0.1,5.8,2.8,6.7,6c0.8,2.8,1.1,5.6,1.9,8.3c0.5,1.2,1.2,2.3,2,3.3
			c0.8-0.9,1.5-1.8,2.2-2.8c1-1.8,1.7-3.7,2.9-5.4c2.7-4,6.9-3.7,9.9,0C319.8,263.7,319,267.8,319,271.6z"/>
		<path class="st0" d="M319,271.6c0,8.8-0.6,17.6-1.8,26.3c-0.6,3.9-3.1,7.7-5.3,11.2c-3.7,5.7-7.7,11.2-8.8,18
			c-0.7,4.3-1.2,8.6-1.8,12.9c-1.8,0.4-3.5,0.6-5.3,0.8c-2.7,0.1-5.3-0.1-6-3.6c-0.3-1.7-0.6-3.6-1.5-4.9c-1.4-1.9-3.2-4.4-5.2-4.8
			c-2.9-0.6-4.5,2.3-5.6,4.7c-0.7,2-1.3,4.1-1.7,6.2c-0.8,3.1-3.6,2.8-5.7,2.8c-5.7,0.1-11.4-0.2-17.1-0.5c-2-0.1-3.2-1-3-3.6
			c0.5-5.6-1.6-9.9-6.4-13.5c-3.5-2.5-6.3-6.3-8.7-10c-6.1-9.5-11.8-19.2-17.8-28.8c-1.9-3-4.7-5.4-6.7-8.3
			c-2.4-3.4-2.1-5.5,0.7-8.7c1.9-2.2,6.1-2.9,8.8-1.7c7.3,3.3,12.8,8.7,17.8,14.8c0.4,0.5,0.9,1,1.4,1.5c1.8-0.7,2.5-1.3,2-3.5
			c-1.4-6.2-2.2-12.4-3.5-18.6c-1.6-8.2-3.6-16.3-5.1-24.6c-0.9-5.1-1.9-10.3,0.5-15.5c3-6.6,9.5-4.9,12.5-0.4
			c1.6,2.4,2.7,5.1,3.3,7.9c2.9,12.7,5.5,25.6,8.1,38.4c0.1,0.4,0.3,0.8,0.5,1.2c1.8-0.3,2.9-0.6,3-3.1c0.1-3,0.7-5.9,1.6-8.7
			c1.2-4,4.3-6.2,7.4-5.8c4.6,0.6,6.9,2.9,7.6,7.5c0.4,2.6,0.5,5.2,1.1,7.8c0.2,0.8,1.2,1.4,1.8,2.1c0.7-0.8,1.8-1.5,2-2.4
			c0.4-2.2,0.3-4.5,0.5-6.6c0.4-3.4,5.1-7.4,8.5-7.6c2.4-0.1,5.8,2.8,6.7,6c0.8,2.8,1.1,5.6,1.9,8.3c0.5,1.2,1.2,2.3,2,3.3
			c0.8-0.9,1.5-1.8,2.2-2.8c1-1.8,1.7-3.7,2.9-5.4c2.7-4,6.9-3.7,9.9,0C319.8,263.7,319,267.8,319,271.6z"/>
	</g>
</g>
<rect x="232" y="-3" class="st0" width="0" height="9"/>
</svg>
