<svg xmlns="http://www.w3.org/2000/svg" viewBox="0 0 717.2 348.84"><defs><style>.cls-1{font-size:200px;stroke:#000;stroke-miterlimit:10;stroke-width:2px;font-family:MyriadPro-Regular, Myriad Pro;}.cls-1,.cls-5{fill:#fff;}.cls-2,.cls-3,.cls-4{font-family:BigJohn, Big John;}.cls-3{letter-spacing:-0.05em;}.cls-4{letter-spacing:0em;}</style></defs><title>Asset 2</title><g id="Layer_2" data-name="Layer 2"><g id="Layer_1-2" data-name="Layer 1"><text class="cls-1" transform="translate(1 171)">&lt;<tspan class="cls-2" x="119.2" y="0">n</tspan><tspan class="cls-3" x="275.8" y="0">a</tspan><tspan class="cls-4" x="434.2" y="0">v</tspan><tspan x="596" y="0">&gt;</tspan></text><path d="M496.42,219.91a16,16,0,0,0-20.13-13.53c-3.58,1-6.66,3.76-10.12,5.81-3.44-6.57-5.77-14.4-15.16-16.31s-14.21,4.85-20,10.26c-4.71-14.83-25.64-16.06-33.51-2.76a3.06,3.06,0,0,1-.6-.88c-3.45-14-7.17-27.91-10.2-42a25.3,25.3,0,0,0-13-17.73c-4.2-2.29-9.07-4.15-14.1,0a29.89,29.89,0,0,0-9.69,29.58c2.35,10.35,3.95,20.87,6,31.29,1,5.12,2.5,10.15,3.48,15.27,1.08,5.62,1.82,11.31,2.67,16.74-7.84-5.24-15-10.37-22.47-14.91-6.76-4.08-15.51-2.1-20.9,4.08-6.19,7.07-6.65,12.71-.84,20.31a426.44,426.44,0,0,1,34.78,53.06c4.93,8.91,10.27,18.1,19.49,23.61,5.48,3.28,6.6,7.9,6.26,13.76-.22,3.77-1,8.46,3.85,10.28,3.66,1.36,7.56,2.66,11.4,2.82,8.47.35,17-.06,25.44-.12,5.37,0,8.7-2.47,10.22-7.77,1.31-4.58,3.16-9,4.8-13.56,6.15,2.68,6.28,7.68,7.24,12.25,1.16,5.53,4.75,8.88,9.51,8.77,2.89-.06,5.78-.27,8.66-.49,9-.7,11-2.36,11.18-10,.4-16,4.85-30.3,15.25-42.9A40.55,40.55,0,0,0,494.47,278c2.07-10.18,2.69-20.73,3-31.16A181.7,181.7,0,0,0,496.42,219.91ZM492,233.71A296.6,296.6,0,0,1,489.15,275c-.89,6.15-4.86,12.13-8.39,17.56-5.81,8.92-12.06,17.54-13.82,28.36-1.11,6.76-1.89,13.58-2.81,20.35a81.55,81.55,0,0,1-8.38,1.27c-4.29.21-8.38-.1-9.43-5.64-.5-2.66-.89-5.66-2.39-7.74-2.18-3-5-6.88-8.13-7.59-4.57-1-7.11,3.6-8.74,7.44-1.3,3.08-1.77,6.51-2.62,9.79-1.25,4.84-5.71,4.32-8.89,4.4-8.94.22-17.92-.23-26.86-.72-3.15-.17-5.09-1.65-4.73-5.71.78-8.81-2.44-15.57-10-21.14-5.46-4-9.86-9.95-13.62-15.75-9.65-14.88-18.51-30.26-28-45.23-3-4.67-7.31-8.47-10.54-13-3.78-5.29-3.28-8.66,1.08-13.62,3.05-3.46,9.59-4.61,13.83-2.71,11.5,5.15,20.16,13.66,27.95,23.24.67.83,1.45,1.58,2.18,2.37,2.75-1.06,3.92-2.05,3.11-5.54-2.24-9.66-3.53-19.53-5.47-29.27-2.57-12.88-5.71-25.66-8-38.59-1.42-8.07-2.92-16.26.8-24.41,4.71-10.35,15-7.7,19.72-.62a37.87,37.87,0,0,1,5.19,12.4c4.48,20,8.57,40.2,12.81,60.31a12.55,12.55,0,0,0,.73,1.8c2.88-.39,4.57-1,4.66-4.85a51.07,51.07,0,0,1,2.5-13.68c1.93-6.25,6.81-9.74,11.61-9.13,7.17.91,10.93,4.58,12,11.85.6,4.08.87,8.22,1.69,12.26.25,1.25,1.83,2.23,2.8,3.34,1.09-1.23,2.89-2.32,3.15-3.71.63-3.41.4-7,.83-10.43.65-5.27,7.95-11.62,13.35-11.88,3.78-.17,9.17,4.42,10.55,9.45,1.19,4.32,1.72,8.82,2.94,13.13.53,1.86,2.06,3.44,3.13,5.15a41.38,41.38,0,0,0,3.38-4.39c1.61-2.76,2.69-5.85,4.49-8.47,4.3-6.24,10.84-5.8,15.57,0C492.9,221.22,492,227.78,492,233.71Z"/><path class="cls-5" d="M492,233.71A296.6,296.6,0,0,1,489.15,275c-.89,6.15-4.86,12.13-8.39,17.56-5.81,8.92-12.06,17.54-13.82,28.36-1.11,6.76-1.89,13.58-2.81,20.35a81.55,81.55,0,0,1-8.38,1.27c-4.29.21-8.38-.1-9.43-5.64-.5-2.66-.89-5.66-2.39-7.74-2.18-3-5-6.88-8.13-7.59-4.57-1-7.11,3.6-8.74,7.44-1.3,3.08-1.77,6.51-2.62,9.79-1.25,4.84-5.71,4.32-8.89,4.4-8.94.22-17.92-.23-26.86-.72-3.15-.17-5.09-1.65-4.73-5.71.78-8.81-2.44-15.57-10-21.14-5.46-4-9.86-9.95-13.62-15.75-9.65-14.88-18.51-30.26-28-45.23-3-4.67-7.31-8.47-10.54-13-3.78-5.29-3.28-8.66,1.08-13.62,3.05-3.46,9.59-4.61,13.83-2.71,11.5,5.15,20.16,13.66,27.95,23.24.67.83,1.45,1.58,2.18,2.37,2.75-1.06,3.92-2.05,3.11-5.54-2.24-9.66-3.53-19.53-5.47-29.27-2.57-12.88-5.71-25.66-8-38.59-1.42-8.07-2.92-16.26.8-24.41,4.71-10.35,15-7.7,19.72-.62a37.87,37.87,0,0,1,5.19,12.4c4.48,20,8.57,40.2,12.81,60.31a12.55,12.55,0,0,0,.73,1.8c2.88-.39,4.57-1,4.66-4.85a51.07,51.07,0,0,1,2.5-13.68c1.93-6.25,6.81-9.74,11.61-9.13,7.17.91,10.93,4.58,12,11.85.6,4.08.87,8.22,1.69,12.26.25,1.25,1.83,2.23,2.8,3.34,1.09-1.23,2.89-2.32,3.15-3.71.63-3.41.4-7,.83-10.43.65-5.27,7.95-11.62,13.35-11.88,3.78-.17,9.17,4.42,10.55,9.45,1.19,4.32,1.72,8.82,2.94,13.13.53,1.86,2.06,3.44,3.13,5.15a41.38,41.38,0,0,0,3.38-4.39c1.61-2.76,2.69-5.85,4.49-8.47,4.3-6.24,10.84-5.8,15.57,0C492.9,221.22,492,227.78,492,233.71Z"/></g></g></svg>