<svg xmlns="http://www.w3.org/2000/svg" viewBox="0 0 370.06 370.06"><defs><style>.cls-1{fill:#231f20;}.cls-1,.cls-10{stroke:#231f20;}.cls-1,.cls-10,.cls-7,.cls-8{stroke-linecap:round;}.cls-1,.cls-10,.cls-11,.cls-7,.cls-8{stroke-miterlimit:10;stroke-width:2px;}.cls-2{opacity:0.88;}.cls-3{fill:lime;}.cls-3,.cls-4,.cls-5,.cls-6{opacity:0.08;}.cls-4{fill:red;}.cls-5{fill:#eee;}.cls-6{fill:blue;}.cls-7{fill:#fff;}.cls-11,.cls-7,.cls-8{stroke:#f0f0f0;}.cls-10,.cls-8{fill:none;}.cls-11,.cls-9{fill:#f0f0f0;}</style></defs><title>Asset 14</title><g id="Layer_2" data-name="Layer 2"><g id="Layer_1-2" data-name="Layer 1"><rect class="cls-1" x="1" y="1" width="368.06" height="368.06" rx="26.84"/><g class="cls-2"><rect class="cls-3" x="190.06" y="11.59" width="167.71" height="167.71" rx="12.23"/><rect class="cls-4" x="12.28" y="11.59" width="167.71" height="167.71" rx="12.23"/><rect class="cls-5" x="190.06" y="190.76" width="167.71" height="167.71" rx="12.23"/><rect class="cls-6" x="12.28" y="190.76" width="167.71" height="167.71" rx="12.23"/></g><line class="cls-7" x1="243.44" y1="30.07" x2="224.2" y2="48.5"/><line class="cls-7" x1="253.83" y1="40.92" x2="244.38" y2="49.98"/><line class="cls-7" x1="264.08" y1="51.62" x2="254.63" y2="60.67"/><line class="cls-7" x1="274.33" y1="62.31" x2="264.87" y2="71.37"/><line class="cls-7" x1="284.57" y1="73" x2="275.12" y2="82.06"/><line class="cls-7" x1="294.82" y1="83.7" x2="285.37" y2="92.75"/><line class="cls-7" x1="305.07" y1="94.39" x2="295.62" y2="103.45"/><line class="cls-7" x1="315.31" y1="105.08" x2="305.86" y2="114.14"/><line class="cls-7" x1="325.56" y1="115.78" x2="316.11" y2="124.83"/><line class="cls-7" x1="335.81" y1="126.47" x2="326.36" y2="135.53"/><line class="cls-7" x1="294.82" y1="83.7" x2="275.59" y2="102.13"/><rect class="cls-8" x="191.43" y="70.51" width="162.85" height="47.95" rx="11.3" transform="translate(152.29 -167.89) rotate(46.22)"/><path class="cls-8" d="M131.69,129.64a34.57,34.57,0,1,1-50.85-30.5V38.91a16.28,16.28,0,0,1,32.56,0V99.14A34.55,34.55,0,0,1,131.69,129.64Z"/><path class="cls-9" d="M126.57,129.64A29.45,29.45,0,1,1,86.87,102V42.45a10.25,10.25,0,0,1,20.49,0V102A29.46,29.46,0,0,1,126.57,129.64Z"/><path class="cls-10" d="M138.47,287.79a38.64,38.64,0,1,1-38.63-38.64A38.63,38.63,0,0,1,138.47,287.79Z"/><path class="cls-11" d="M104.46,239.85v-12H95v12.06c-28.32,4.06-50.54,43.67-50.54,91.93H155.18C155.18,283.44,132.86,243.76,104.46,239.85Zm-4.62,86.56a38.63,38.63,0,1,1,38.63-38.62A38.63,38.63,0,0,1,99.84,326.41Z"/><line class="cls-8" x1="172.27" y1="227.82" x2="104.46" y2="227.82"/><line class="cls-8" x1="95.03" y1="227.82" x2="27.41" y2="227.82"/><line class="cls-8" x1="95.03" y1="239.89" x2="95.03" y2="239.88"/><line class="cls-8" x1="104.46" y1="239.89" x2="104.46" y2="239.85"/><line class="cls-8" x1="99.84" y1="287.78" x2="119.58" y2="263.2"/><circle class="cls-9" cx="99.84" cy="287.78" r="3.1"/><path class="cls-11" d="M233.78,262.85a13.06,13.06,0,0,1,13.35,13.35,13.35,13.35,0,1,1-26.7,0A13.06,13.06,0,0,1,233.78,262.85Z"/><path class="cls-11" d="M274.34,262.85a13.06,13.06,0,0,1,13.35,13.35,13.35,13.35,0,1,1-26.7,0A13.06,13.06,0,0,1,274.34,262.85Z"/><path class="cls-11" d="M314.9,262.85a13.06,13.06,0,0,1,13.35,13.35,13.35,13.35,0,1,1-26.7,0A13.06,13.06,0,0,1,314.9,262.85Z"/></g></g></svg>