<svg xmlns="http://www.w3.org/2000/svg" viewBox="0 0 154.46 154.46"><defs><style>.cls-1{fill:#fffda3;}.cls-2{fill:none;}</style></defs><title>bone</title><g id="Layer_2" data-name="Layer 2"><g id="Layer_1-2" data-name="Layer 1"><path class="cls-1" d="M40.72,71.14l69.78-5.75S114.82,51,124.17,51s20.15,17.26,8.64,25.18c0,0,18.7,11.51,10.07,19.42s-16.55,5-27.34-3.59-74.82-2.88-77,0S31.37,105,22,103.52s-11.51-10.79-4.31-18,7.91-6.47,2.16-9.35S4,67.55,12.66,55.32,45.76,58.19,40.72,71.14Z"/><path d="M40.84,71.05,76,67.38c5.78-.62,11.51-1.21,17.23-1.74s11.43-1.07,17.16-1.57l-1.16.94a35.49,35.49,0,0,1,2.86-6.55,22.51,22.51,0,0,1,4.5-5.71A10.72,10.72,0,0,1,130.75,52a19.24,19.24,0,0,1,5,5.27A19,19,0,0,1,138.48,64a13.09,13.09,0,0,1-.58,7.27A12,12,0,0,1,136,74.41a14.12,14.12,0,0,1-2.73,2.4l0-1.28a47.9,47.9,0,0,1,6.51,5.18,22.73,22.73,0,0,1,5.1,6.62,8.32,8.32,0,0,1,.77,4.25,6.67,6.67,0,0,1-1.91,3.87,19.78,19.78,0,0,1-7,4.56,14.07,14.07,0,0,1-8.35.12,28.86,28.86,0,0,1-7.51-3.59l-1.73-1.14-1.68-1.19c-1.11-.78-2.2-1.75-3.26-2.34a25.76,25.76,0,0,0-7.61-2.22,112,112,0,0,0-16.2-1.1q-8.15,0-16.31.38T57.76,90.15q-4,.39-8.09.93c-2.68.36-5.37.76-7.93,1.35a16,16,0,0,0-1.78.51,1.93,1.93,0,0,0-.31.13l0,0s.17-.14.16-.16c-.18.26-.35.49-.54.78-.73,1.11-1.5,2.3-2.33,3.45a30.85,30.85,0,0,1-2.78,3.31,18.4,18.4,0,0,1-3.49,2.8,13.22,13.22,0,0,1-8.93,1.81,14,14,0,0,1-4.38-1.44,11.64,11.64,0,0,1-2-1.32,11.19,11.19,0,0,1-1.63-1.8A9.47,9.47,0,0,1,11.94,96a11.2,11.2,0,0,1,.41-4.69,17,17,0,0,1,4.83-7.44l3-2.86c.48-.47,1-.93,1.4-1.38a5.75,5.75,0,0,0,.54-.64c.16-.18.18-.36.15-.15a.78.78,0,0,0,.07.3c0,.06,0,0,0,0a3.78,3.78,0,0,0-.59-.41c-.52-.31-1.12-.61-1.72-.92-1.22-.62-2.48-1.27-3.69-2A19.78,19.78,0,0,1,9.8,70l-.55-1a5,5,0,0,1-.46-1.06c-.13-.36-.27-.72-.37-1.1l-.2-1.14a5.4,5.4,0,0,1-.09-.58V63.33c.11-.74.23-1.5.4-2.22S9,59.69,9.26,59l1-2a25.89,25.89,0,0,1,2.52-3.55,11.75,11.75,0,0,1,3.66-2.58,11.94,11.94,0,0,1,4.29-1,15.52,15.52,0,0,1,4.31.34,20.53,20.53,0,0,1,4.05,1.29,23.59,23.59,0,0,1,7,4.6A18.76,18.76,0,0,1,40.83,63a11.36,11.36,0,0,1,.82,4.11A8.75,8.75,0,0,1,40.84,71.05Zm-.24.18a12.42,12.42,0,0,0,.5-4.09,11.12,11.12,0,0,0-1-3.84,17.79,17.79,0,0,0-4.84-6.25A23.88,23.88,0,0,0,32,54.73,21.71,21.71,0,0,0,28.47,53a18.74,18.74,0,0,0-3.79-1.06,13.79,13.79,0,0,0-3.84-.16A9.71,9.71,0,0,0,14.31,55a27.63,27.63,0,0,0-2.1,3.2L11.4,59.9c-.23.59-.38,1.2-.58,1.79a8.48,8.48,0,0,0,1.12,6.88,17.13,17.13,0,0,0,5.72,4.87c1.14.66,2.32,1.24,3.56,1.84.61.3,1.24.6,1.9,1a6.49,6.49,0,0,1,1.09.75,2.61,2.61,0,0,1,.63.75,2.31,2.31,0,0,1,.3,1.28,3.25,3.25,0,0,1-.66,1.7,9.76,9.76,0,0,1-.76.93c-.5.56-1,1-1.48,1.54l-2.91,2.86A19.08,19.08,0,0,0,16.88,89a16.47,16.47,0,0,0-.9,1.58,10.9,10.9,0,0,0-.62,1.67,7.94,7.94,0,0,0-.27,3.41,6.3,6.3,0,0,0,1.22,3,8,8,0,0,0,1.1,1.23,8.78,8.78,0,0,0,1.43.93,10.72,10.72,0,0,0,3.36,1.11A9.89,9.89,0,0,0,29,100.54a17.44,17.44,0,0,0,2.91-2.29,29.54,29.54,0,0,0,2.51-2.93c.79-1.06,1.52-2.15,2.3-3.31.19-.29.42-.6.64-.9a2.83,2.83,0,0,1,.53-.51,4.23,4.23,0,0,1,.41-.23,6.16,6.16,0,0,1,.62-.27,22.5,22.5,0,0,1,2.17-.6c2.78-.59,5.5-1,8.23-1.29s5.47-.61,8.2-.84c5.47-.48,11-.78,16.43-.94s11-.2,16.46,0a116.67,116.67,0,0,1,16.43,1.66,27.07,27.07,0,0,1,8,2.61,40,40,0,0,1,3.32,2.52l1.63,1.22,1.67,1.15a28.09,28.09,0,0,0,7.19,3.53,13.15,13.15,0,0,0,7.78,0,17.85,17.85,0,0,0,6.6-4.32,5.73,5.73,0,0,0,1.64-3.34,7.1,7.1,0,0,0-.76-3.7,21.19,21.19,0,0,0-5-6.16,46.25,46.25,0,0,0-6.48-4.78.77.77,0,0,1-.25-1,.73.73,0,0,1,.19-.2l0,0a12.5,12.5,0,0,0,2.33-2.2,10,10,0,0,0,1.54-2.72,11.18,11.18,0,0,0,.26-6.23,17.5,17.5,0,0,0-7.16-10.32,8.26,8.26,0,0,0-11,.68,20,20,0,0,0-3.93,5,32.86,32.86,0,0,0-2.68,6v0a1.31,1.31,0,0,1-1.14.9c-5.91.46-11.83.92-17.74,1.31s-11.81.8-17.66,1.14Z"/><rect class="cls-2" width="154.46" height="154.46"/></g></g></svg>