<?xml version="1.0" encoding="utf-8"?>
<!-- Generator: Adobe Illustrator 24.0.1, SVG Export Plug-In . SVG Version: 6.00 Build 0)  -->
<svg version="1.1" id="Layer_1" xmlns="http://www.w3.org/2000/svg" xmlns:xlink="http://www.w3.org/1999/xlink" x="0px" y="0px"
	 viewBox="0 0 407.2 407.2" style="enable-background:new 0 0 407.2 407.2;" xml:space="preserve">
<style type="text/css">
	.st0{fill:#F2A541;}
	.st1{fill:#BF2222;}
	.st2{fill:#A1542B;}
	.st3{fill:none;}
</style>
<title>dog</title>
<g id="Layer_2_1_">
	<g id="Layer_1-2">
		<path class="st0" d="M119.2,304.8c11.5,12.2,34.5,14.4,44.6,15.8s89.9,5,121.6-17.3s39.6-38.1,48.2-70.5c0.2-0.8,0.4-1.5,0.5-2.3
			c6.9-31.5-18.8-59.9-31.5-72.6c-13-12.9-29.5-29.5-37.4-39.6c-3.3-4.3-12-10.6-19.9-16.1l0,0c-5.8-3.9-11.2-7.4-13.9-9.1
			c-23.7-15.1-59-4.3-81.3,0c-17.9,3.5-32.1,29.6-37,39.8c-1.2,2.5-1.9,4.1-1.9,4.1C119.9,194,94.3,241.4,94,244.3
			c-0.2,1.9-0.4,3.8-0.5,5.6C91.5,282.2,108.3,293.2,119.2,304.8z M240,231.4c0,0-7.2,1.4-14.4-5.8s-5-12.2,0-13.7s15.8-2.9,23.7,0
			C257.3,214.8,240,231.4,240,231.4z M245.8,287.5c-4.1,0-15.8-9.1-25.1-24.4c22.2-0.1,20.1-28.1,20.1-28.1
			c1.6,5.3,7.9,13,15.2,16.7c-1.7,6.4-3.7,15.5-3.7,21.5C252.3,283.2,250.8,287.5,245.8,287.5L245.8,287.5z"/>
		<path d="M93.4,253.7l0,1.9l0.1,1.9c0.1,1.3,0.1,2.5,0.2,3.8l0.5,3.8c0.8,5,2.3,9.9,4.5,14.5c2.2,4.6,5.1,8.8,8.5,12.6
			c3.4,3.8,7.1,7.3,10.7,10.9c0.9,0.9,1.8,1.8,2.7,2.7c0.9,0.9,1.9,1.7,2.9,2.4c0.5,0.4,1,0.7,1.6,1.1l1.6,1
			c1.1,0.6,2.2,1.2,3.4,1.8c4.6,2.1,9.4,3.8,14.4,4.9c5,1.1,10,2,15,2.6c2.6,0.3,5.1,0.7,7.6,0.9s5.1,0.3,7.6,0.4
			c10.2,0.4,20.3,0.3,30.5-0.2s20.3-1.4,30.3-2.8c10-1.3,19.9-3.5,29.5-6.6c4.8-1.5,9.4-3.5,13.8-5.8c1.1-0.6,2.1-1.2,3.2-1.9
			s2.1-1.3,3.1-2.1c2.1-1.5,4.1-3,6.1-4.5c7.9-6.2,15.5-12.9,21.5-20.9c3-3.9,5.6-8.1,7.8-12.6c2.2-4.5,4.1-9.1,5.7-13.8
			c1.6-4.8,3-9.6,4.3-14.5c0.3-1.2,0.6-2.5,0.9-3.6c0.3-1.2,0.5-2.4,0.7-3.6c0.2-1.2,0.4-2.4,0.5-3.6s0.2-2.4,0.2-3.6
			c0.2-9.7-2.7-19.4-7.1-28.2c-2.2-4.4-4.8-8.7-7.7-12.7c-2.9-4.1-6-8-9.3-11.8c-3.3-3.8-6.8-7.3-10.4-10.9l-10.7-10.9
			c-3.6-3.6-7.1-7.3-10.6-11.1c-3.5-3.7-6.9-7.5-10.3-11.5c-0.8-1-1.7-2-2.5-3l-0.6-0.8l-0.5-0.7c-0.4-0.4-0.8-0.9-1.2-1.3
			c-1.8-1.7-3.6-3.4-5.5-4.9c-3.9-3.2-8-6.1-12.2-9l1.2,0.4l0,0c-0.4,0-0.8-0.1-1.2-0.4l-8.3-5.6c-2.8-1.8-5.5-3.8-8.3-5.3
			c-5.7-3-12-4.9-18.4-5.6c-6.5-0.7-13.1-0.7-19.7-0.1c-6.6,0.6-13.2,1.6-19.7,2.9c-6.5,1.2-13.1,2.7-19.7,3.9
			c-1.6,0.3-3.1,0.8-4.6,1.4c-1.5,0.6-2.9,1.4-4.3,2.3c-2.8,1.8-5.4,3.8-7.7,6.2c-4.7,4.7-8.8,9.9-12.3,15.6
			c-3.5,5.6-6.7,11.5-9.4,17.5V137l0.7,6.9l0.4,3.4c0.1,1.1,0.1,2.3,0.2,3.4l0.3,6.9c0,2.3-0.1,4.6-0.1,6.9l-0.1,3.4l-0.3,3.5
			c-0.2,2.3-0.3,4.6-0.5,6.9c-0.6,4.6-1.1,9.1-2,13.6c-1.6,9-3.7,18-6.4,26.7c-2.7,8.8-6,17.3-10,25.6l0,0l-0.5,5.6L93.4,253.7z
			 M94,244.3L94,244.3c3.9-8.3,7.2-16.9,9.9-25.6c2.7-8.8,4.8-17.7,6.3-26.8c0.8-4.5,1.3-9.1,1.8-13.6c0.2-2.3,0.3-4.6,0.5-6.9
			l0.2-3.4v-3.4c0-2.3,0-4.6,0-6.9l-0.4-6.9c-0.1-1.1-0.1-2.3-0.2-3.4l-0.4-3.4l-0.9-6.8l0,0c0-0.1,0-0.2,0-0.3
			c2.6-6.2,5.7-12.2,9.3-17.9c3.5-5.8,7.6-11.2,12.2-16.1c2.4-2.5,5-4.7,7.8-6.6c1.4-0.9,3-1.8,4.5-2.5c1.6-0.7,3.3-1.3,5-1.7
			c6.5-1.3,13-2.9,19.6-4.3c6.5-1.5,13.1-2.6,19.8-3.4c6.8-0.8,13.6-0.9,20.4-0.3c6.9,0.6,13.6,2.5,19.8,5.6
			c3.2,1.6,5.8,3.6,8.7,5.3l8.5,5.4l-1.2-0.4l0,0c0.4,0,0.8,0.1,1.1,0.3l0,0c4.3,2.8,8.4,5.8,12.5,9c2.1,1.6,4.1,3.3,6,5.2
			c0.5,0.5,0.9,1,1.4,1.5l0.7,0.8l0.6,0.7c0.8,1,1.6,1.9,2.4,2.9c6.6,7.6,13.8,14.8,20.9,22.1l10.8,10.8c3.6,3.6,7.3,7.3,10.7,11.1
			c7,7.7,13,16.3,17.7,25.6c2.4,4.7,4.2,9.6,5.6,14.7c0.7,2.6,1.2,5.2,1.5,7.8c0.3,2.7,0.5,5.3,0.4,8c0,1.3,0,2.6-0.2,4
			c-0.2,1.4-0.3,2.7-0.6,4s-0.5,2.6-0.8,3.9c-0.3,1.3-0.7,2.5-1,3.7c-1.4,4.9-2.9,9.8-4.6,14.7c-1.7,4.9-3.8,9.7-6.1,14.3
			c-2.4,4.7-5.2,9.1-8.5,13.1c-6.5,8.2-14.4,15-22.6,21.2c-2,1.6-4.2,3-6.2,4.5c-1,0.8-2.2,1.4-3.3,2.1c-1.1,0.7-2.3,1.3-3.4,1.9
			c-4.6,2.3-9.5,4.3-14.4,5.7c-9.9,2.9-19.9,4.9-30.1,6.1c-10.2,1.2-20.4,1.9-30.6,2.2s-20.4,0.2-30.6-0.4c-2.6-0.1-5.1-0.3-7.6-0.5
			s-5.1-0.6-7.6-1c-5-0.8-10-1.5-15-2.8c-5-1.2-9.8-2.9-14.4-5c-1.1-0.6-2.3-1.2-3.4-1.8l-1.6-1c-0.5-0.3-1.1-0.7-1.6-1.1
			c-1-0.8-2-1.6-2.9-2.5c-0.9-0.9-1.8-1.8-2.7-2.7c-3.5-3.7-7.3-7.1-10.6-11c-3.4-3.8-6.3-8.1-8.5-12.6c-2.2-4.6-3.7-9.5-4.4-14.6
			l-0.5-3.8c-0.1-1.3-0.1-2.5-0.2-3.8l-0.1-1.9l0-1.9l0.1-3.8L94,244.3z"/>
		<path d="M251.5,214.1c0.2,1,0.1,2-0.3,3c-0.7,1.9-1.6,3.8-2.7,5.5c-1.1,1.8-2.2,3.4-3.4,5.1s-2.5,3.3-3.8,4.9
			c-0.2,0.2-0.4,0.3-0.6,0.4h-0.2c-0.7,0.2-1.4,0.3-2.1,0.3c-0.7,0-1.3,0-2,0c-1.4-0.1-2.7-0.3-4-0.7c-2.6-0.8-5-2.1-7-3.9
			c-0.4-0.4-1-0.9-1.4-1.3s-0.9-0.9-1.3-1.4c-0.9-1-1.7-2.2-2.3-3.4c-0.7-1.3-1.2-2.8-1.3-4.3c-0.1-1.7,0.3-3.4,1.3-4.8
			c1-1.2,2.3-2.2,3.8-2.6c1.3-0.4,2.5-0.6,3.8-0.7c2.4-0.2,4.9-0.3,7.4-0.3c4.8,0,9.6,0.8,14.2,2.3
			C250.4,212.3,251.2,213.1,251.5,214.1z M235.3,211.2c-2.3,0.4-4.6,0.9-6.9,1.6c-1.1,0.3-2.1,0.7-3.1,1.2c-0.8,0.4-1.4,1-1.8,1.7
			c-0.3,0.7-0.4,1.4-0.2,2.1c0.2,0.9,0.5,1.7,1,2.4c1.2,1.8,2.5,3.4,4.1,4.8c1.6,1.4,3.3,2.6,5.3,3.5c1,0.4,2,0.8,3,1
			c0.6,0.1,1.1,0.2,1.6,0.3s1.1,0.1,1.4,0.1l-0.8,0.4c1.5-1.2,3.1-2.5,4.5-3.9c1.5-1.4,2.9-2.8,4.2-4.3c1.3-1.5,2.4-3.2,3.3-5
			c0.4-0.9,0.6-1.9,0.5-2.9c-0.2-1-1-1.8-2-2.1C244.8,210.6,240,210.3,235.3,211.2z"/>
		<path d="M241.6,285.9c-1.3-0.7-2.5-1.6-3.7-2.5c-2.4-1.8-4.6-3.8-6.8-5.9c-2.1-2.1-4.2-4.3-6.1-6.6c-2-2.3-3.7-4.7-5.5-7.2
			c-0.1-0.2-0.2-0.4-0.2-0.6c-0.1-0.7,0.4-1.3,1.1-1.4h0.2c1.5-0.1,3-0.4,4.5-0.8c0.7-0.2,1.4-0.5,2.1-0.7c0.7-0.3,1.3-0.6,1.9-1
			c2.4-1.6,4.4-3.8,5.7-6.4c1.3-2.7,2.3-5.6,2.8-8.5c0.5-3,0.7-6.1,0.6-9.1v-0.1c0-1.1,0.7-2.1,1.8-2.4c1.3-0.4,2.7,0.4,3,1.7
			c0.5,1.6,1.2,3.1,2.1,4.6c1,1.5,2,3,3.2,4.3c2.3,2.8,5.1,5.2,8.2,7.1l0.2,0.1c0.6,0.3,0.8,1,0.6,1.7c-1,3.1-2,6.3-2.8,9.4
			c-0.9,3.2-1.5,6.4-1.9,9.6c-0.1,3.3-0.4,6.6-0.9,9.9c-0.2,1.6-0.8,3.2-1.8,4.6c-0.5,0.7-1.2,1.2-1.9,1.5c-0.8,0.3-1.6,0.4-2.4,0.4
			C244.3,287.3,242.9,286.8,241.6,285.9z M248.2,287c0.8-0.3,1.4-0.9,1.9-1.5c0.9-1.4,1.4-3,1.6-4.6c0.2-1.6,0.3-3.3,0.3-4.9
			c0-1.7-0.1-3.3-0.1-5c0.1-3.3,0.4-6.6,0.9-9.9c0.5-3.3,1-6.6,1.7-9.8l0.8,1.8c-1.9-0.8-3.6-1.8-5.3-3c-1.7-1.2-3.2-2.5-4.7-3.9
			c-1.5-1.4-2.8-3-4-4.7c-1.3-1.8-2.2-3.7-2.9-5.7l4.8-0.9c0.1,1.7,0.1,3.5,0,5.3c-0.1,1.7-0.3,3.4-0.7,5.1
			c-0.6,3.5-1.9,6.8-3.6,9.9c-1.8,3.2-4.6,5.7-7.9,7.4c-1.6,0.8-3.3,1.4-5.1,1.6c-1.7,0.3-3.5,0.4-5.2,0.3l1.1-2
			c1.4,2.6,2.9,5.2,4.5,7.6c1.7,2.5,3.4,4.8,5.4,7.1c1.9,2.3,4.1,4.4,6.3,6.3c1.1,0.9,2.4,1.8,3.6,2.6c1.2,0.8,2.7,1.4,4.1,1.6
			C246.6,287.5,247.4,287.3,248.2,287z"/>
		<path class="st1" d="M240.8,234.9c1.6,5.3,7.9,13,15.2,16.7c-1.7,6.4-3.7,15.5-3.7,21.5c0,10.1-1.5,14.4-6.5,14.4
			c-4.1,0-15.8-9.1-25.1-24.5C242.9,263,240.8,235,240.8,234.9z"/>
		<path d="M221.9,262.9c0.4,0,0.8-0.1,1.3-0.2c0.8-0.2,1.6-0.4,2.3-0.6c0.8-0.2,1.5-0.5,2.2-0.8c0.7-0.3,1.4-0.7,2.1-1.1
			c2.6-1.7,4.7-4.1,6-6.9c1.3-2.8,2.2-5.8,2.6-8.9c0.2-1.5,0.4-3.1,0.4-4.7c0.1-1.5,0-3.1-0.1-4.6c-0.1-1,0.5-1.8,1.4-2.2
			c1.1-0.4,2.3,0.2,2.7,1.3v0.1c0.6,1.6,1.4,3.1,2.4,4.5c1,1.5,2.2,2.9,3.4,4.2c2.4,2.6,5.3,4.7,8.5,6.4c1,0.5,1.6,1.7,1.3,2.8l0,0
			c-1.6,5.9-2.8,11.9-3.6,18c-0.2,1.5-0.1,2.9-0.2,4.5s-0.2,3.2-0.4,4.9c-0.2,1.8-0.6,3.5-1.3,5.2c-0.4,1-1,1.9-1.8,2.6
			c-0.8,0.8-1.8,1.4-2.9,1.7c-0.5,0.1-1,0.2-1.6,0.3h-0.8c-0.3,0-0.6,0-0.9-0.1c-1-0.2-1.9-0.5-2.8-1c-1.5-0.8-2.9-1.7-4.2-2.8
			c-2.5-2-4.8-4.3-6.9-6.8c-2.1-2.4-4-5-5.8-7.6c-0.8-1.4-1.7-2.7-2.5-4.1c-0.4-0.7-0.8-1.5-1.1-2.1s-0.7-1.4-1.1-2
			C221.1,263,221.5,262.9,221.9,262.9z M233,277.1c2.2,2.1,4.6,4,7.1,5.8c1.2,0.8,2.4,1.6,3.8,2.1c0.3,0.1,0.6,0.2,0.9,0.3
			c0.2,0.1,0.5,0.1,0.8,0.1c0.1,0,0.2,0,0.3,0l0.4,0c0.3,0,0.5-0.1,0.8-0.2c0.4-0.1,0.8-0.4,1.1-0.7c0.3-0.4,0.6-0.8,0.8-1.3
			c0.4-1.3,0.7-2.6,0.8-4c0.1-1.5,0.2-3,0.2-4.5s0-3.2,0.1-4.9c0.3-3.2,0.7-6.4,1.4-9.6c0.6-3.1,1.4-6.2,2.2-9.3l1.3,2.9
			c-1.9-1-3.6-2.1-5.2-3.4c-1.6-1.3-3.1-2.7-4.5-4.2c-1.4-1.5-2.6-3.2-3.7-4.9c-1.2-1.8-2.1-3.7-2.7-5.8l4.1-0.8
			c0,1.7,0,3.5-0.2,5.2c-0.2,1.7-0.4,3.4-0.8,5.1c-0.7,3.4-2,6.6-3.8,9.5c-1.8,3-4.5,5.4-7.6,6.9c-3.1,1.4-6.4,1.9-9.8,1.6
			C224.4,268.1,228.5,272.8,233,277.1z"/>
		<path d="M223,222.5c-0.9-1.1-1.5-2.3-1.9-3.7c-0.5-1.4-0.4-2.9,0.2-4.3c0.7-1.4,1.8-2.5,3.2-3.1l1-0.4l1-0.4
			c0.6-0.2,1.3-0.4,2-0.6c1.4-0.4,2.7-0.7,4.1-1c2.8-0.6,5.7-0.9,8.5-0.9c3,0,5.9,0.5,8.7,1.4l0.3,0.1l0.1,0.1l0.2,0.1l0.7,0.4
			c0.3,0.1,0.5,0.3,0.8,0.5c0.3,0.2,0.5,0.4,0.7,0.7c0.8,1,1.3,2.2,1.3,3.5c0,1-0.2,1.9-0.6,2.8c-0.3,0.8-0.6,1.5-1,2.2
			c-1.5,2.5-3.4,4.7-5.5,6.7c-2,2-4.1,3.8-6.3,5.6l-0.1,0.1c-0.1,0.1-0.2,0.1-0.3,0.1c-1.4,0.1-2.9,0-4.2-0.4
			c-1.3-0.3-2.6-0.8-3.8-1.4c-1.2-0.6-2.4-1.3-3.4-2.1c-0.6-0.4-1.1-0.8-1.6-1.3s-1-0.9-1.5-1.4C224.7,224.6,223.8,223.6,223,222.5z
			 M227,226.9c0.5,0.4,1,0.8,1.6,1.2c1.1,0.7,2.3,1.4,3.5,1.8c1.2,0.4,2.5,0.7,3.8,0.9c1.3,0.1,2.5,0,3.8-0.2l-0.4,0.2
			c1.7-2.1,3.4-4.3,4.9-6.5c1.5-2.1,2.8-4.4,3.9-6.7c0.4-0.9,0.7-1.8,0.8-2.8c0-0.3-0.2-0.3-0.1-0.3s0,0,0,0s0-0.1-0.1-0.1l-0.2-0.1
			l0,0h-0.1l-0.2-0.1c-2.4-0.8-4.8-1.3-7.3-1.5c-2.6-0.3-5.2-0.4-7.9-0.4c-1.3,0-2.7,0.1-4,0.2c-0.7,0.1-1.3,0.1-2,0.2l-1,0.2
			l-0.9,0.2c-1.2,0.3-2.3,1-3,2c-0.7,1.1-0.9,2.4-0.6,3.7c0.3,1.3,0.8,2.6,1.6,3.7c0.8,1.1,1.6,2.2,2.6,3.2
			C226.2,226.1,226.6,226.5,227,226.9z"/>
		<path class="st2" d="M281,112c14.4,5.8,52.5,23.8,61.1,30.9c8.6,7.2,33.8,28,40.3,45.3s12.9,39.6-7.2,54
			c-10.5,7.5-27.4-1.4-41.2-11.6c6.9-31.5-18.8-59.9-31.5-72.6c-13-12.9-29.5-29.5-37.4-39.6c-3.3-4.3-12-10.6-19.9-16.1
			C255.6,104.5,271.8,108.2,281,112z"/>
		<path d="M261.9,105.7c5.5,1.3,11,2.6,16.5,4.4c2.7,0.9,5.4,1.9,8,3c2.6,1.1,5.3,2.2,7.9,3.3c5.2,2.2,10.4,4.5,15.5,6.9
			c5.1,2.4,10.3,4.8,15.3,7.4c5.1,2.6,10.1,5.2,15,8.4c1.2,0.8,2.5,1.7,3.6,2.6l3.3,2.7c2.2,1.8,4.4,3.6,6.5,5.5
			c4.3,3.7,8.5,7.6,12.5,11.7c4.1,4.1,7.8,8.4,11.3,13c0.9,1.2,1.7,2.3,2.5,3.6l1.2,1.9c0.4,0.6,0.8,1.2,1.1,1.9s0.7,1.3,1.1,2
			l0.9,2.1c0.6,1.4,1.1,2.7,1.6,4.1c2.1,5.4,3.6,11,4.7,16.7c1.2,5.9,1.1,12-0.1,17.9c-0.7,3-1.8,5.9-3.4,8.5
			c-1.5,2.6-3.5,5.1-5.7,7.2c-0.5,0.5-1.1,1-1.7,1.5c-0.6,0.5-1.1,1-1.8,1.4c-1.3,1-2.6,1.9-4.1,2.5c-3,1.3-6.2,1.8-9.5,1.5
			c-3-0.3-6-1-8.9-2c-2.8-1-5.5-2.2-8.1-3.6c-5.1-2.7-10-5.9-14.6-9.4l0,0c-0.7-0.5-1.1-1.5-0.9-2.4c1.4-6.4,1.5-12.9,0.4-19.3
			c-1.2-6.5-3.3-12.7-6.2-18.6c-5.8-11.9-14.2-22.4-23.6-32.1s-19-19.4-28-29.6c-2.3-2.5-4.5-5.1-6.6-7.7c-1.1-1.3-2.1-2.7-3.1-4
			c-1-1.3-2.2-2.5-3.4-3.6c-5-4.5-10.3-8.7-15.9-12.6C250.9,103.4,256.4,104.5,261.9,105.7z M261.9,114.3c1.3,1.1,2.6,2.3,3.7,3.6
			c1.1,1.3,2.2,2.6,3.3,3.8c2.2,2.5,4.5,5,6.9,7.4c9.4,9.7,19.2,19,28.9,28.6c9.7,9.6,18.6,20.2,25,32.6c3.2,6.2,5.6,12.8,6.9,19.7
			c1.3,7,1.3,14.1-0.1,21.1l-0.9-2.4c4.4,3.3,9.1,6.3,14,8.9c4.8,2.5,10,4.6,15.1,4.9c2.4,0.2,4.9-0.1,7.1-1.1
			c1.1-0.5,2.2-1.2,3.1-1.9c0.5-0.4,1-0.8,1.5-1.3c0.5-0.4,1-0.9,1.4-1.3c1.9-1.8,3.5-3.9,4.8-6.1c1.3-2.2,2.3-4.7,2.9-7.2
			c1.1-5.2,1.2-10.6,0.1-15.9c-1-5.4-2.5-10.8-4.4-15.9c-0.5-1.3-0.9-2.7-1.5-3.9l-0.8-1.8c-0.3-0.6-0.6-1.2-0.9-1.8
			c-0.3-0.6-0.6-1.2-1-1.8l-1.1-1.7c-0.7-1.2-1.5-2.3-2.3-3.4c-3.3-4.5-6.9-8.7-10.8-12.7c-3.9-4-7.9-7.9-12.1-11.7
			c-2.1-1.9-4.2-3.8-6.3-5.6l-3.2-2.8c-1-0.9-2.1-1.7-3.2-2.4c-4.6-3.1-9.5-5.8-14.5-8.5s-10-5.3-15-7.8s-10.1-5-15.2-7.4
			c-2.6-1.2-5.1-2.4-7.7-3.6s-5.1-2.3-7.8-3.3c-5.3-2-10.7-3.6-16.1-5.1c-5.4-1.5-10.9-2.9-16.4-4.2
			C251.1,106,256.6,109.9,261.9,114.3z"/>
		<path class="st2" d="M57.3,190.4c15.8-9.4,27.3-25.2,37.4-36.7c4.7-5.4,12-13.6,18.4-20.6c-1.2,2.5-1.9,4.1-1.9,4.1
			C119.9,194,94.3,241.4,94,244.3c-0.2,1.9-0.4,3.8-0.5,5.6c-17.3,19.3-34.9,27.2-44.1,29.6c-13.7,3.6-28.8-14.4-30.9-36
			C16.3,222,41.5,199.7,57.3,190.4z"/>
		<path d="M22.2,225.6c2.8-5.6,6.4-10.7,10.5-15.4c4.2-4.7,8.7-9,13.5-12.9c2.4-2,4.9-3.8,7.5-5.6s5.3-3.3,7.7-5.2
			c9.9-7.3,17.9-16.9,25.7-26.6c1.9-2.4,3.9-4.8,5.9-7.3l6.1-7.1c4-4.7,8.1-9.4,12.2-14.1c0.6-0.7,1.7-1,2.6-0.6
			c1.1,0.5,1.7,1.8,1.2,3v0.1l-1.8,3.9l0.1-1.2l0.9,6.9l0.4,3.5c0.1,1.2,0.1,2.3,0.2,3.5l0.4,7c0.1,2.3,0,4.7,0,7v3.5l-0.2,3.5
			c-0.2,2.4-0.3,4.7-0.5,7c-0.6,4.6-1.1,9.2-2,13.8c-1.6,9.1-3.8,18.2-6.7,27c-0.7,2.2-1.4,4.4-2.3,6.6s-1.6,4.3-2.5,6.5
			c-1.8,4.3-3.6,8.5-5.8,12.7l0.2-0.5L95,250v0.2c0,0.3-0.2,0.6-0.4,0.8c-3.1,3.3-6.3,6.4-9.7,9.3c-3.4,2.9-7,5.6-10.7,8.2
			c-3.7,2.5-7.6,4.7-11.6,6.7c-4,2-8.2,3.6-12.6,4.7c-2.2,0.6-4.5,0.7-6.8,0.3c-2.2-0.4-4.4-1.3-6.3-2.5c-3.8-2.4-7-5.6-9.5-9.3
			c-5.1-7.4-8.2-15.9-9-24.8C17.8,237.4,19.5,231.1,22.2,225.6z M27.6,268.3c2.6,3.6,5.8,6.7,9.6,9c3.8,2.2,8.4,3.2,12.5,1.8
			c4.2-1.3,8.3-3.1,12.1-5.2c3.9-2.1,7.6-4.4,11.2-7c3.5-2.6,6.9-5.4,10.2-8.4c3.2-3,6.2-6.2,9.1-9.5l-0.4,0.9l0.4-5.7
			c0-0.1,0-0.3,0.1-0.4l0.1-0.1c3.7-8.3,6.8-16.8,9.3-25.5c2.6-8.7,4.6-17.6,6-26.5c0.8-4.5,1.3-9,1.8-13.5c0.2-2.3,0.3-4.5,0.5-6.8
			l0.2-3.4l0-3.4c0-2.3,0.1-4.5,0.1-6.8l-0.3-6.8c-0.1-1.1-0.1-2.3-0.2-3.4l-0.4-3.4l-0.7-6.7v-0.2c0-0.3,0-0.7,0.2-1l2-4.2l3.7,2.5
			c-4.2,4.6-8.4,9.2-12.6,13.7l-6.3,6.8c-2.1,2.3-4.1,4.7-6.2,7c-8.1,9.3-16.7,18.8-27.1,25.9l-2,1.3l-2,1.2c-1.4,0.8-2.7,1.5-4,2.4
			c-2.7,1.6-5.2,3.4-7.7,5.2c-5,3.7-9.6,7.9-13.8,12.4c-4.3,4.5-7.9,9.6-10.8,15.1c-2.8,5.6-4.5,11.8-3.9,18
			C19.3,252.5,22.5,261,27.6,268.3z"/>
		<path d="M241.4,195.7c-3.8,0.1-7.7,0.3-11.5,0.8c-3.8,0.4-7.5,1.1-11.2,2c-7.4,1.7-14.4,4.8-20.6,9.2c-3.1,2.2-5.9,4.8-8.4,7.7
			c-2.5,2.9-4.7,6.1-6.5,9.5c1.3-3.7,3.1-7.2,5.4-10.4c2.3-3.2,5-6.1,8.1-8.6c3.1-2.5,6.5-4.6,10.1-6.3c3.6-1.6,7.4-3,11.2-3.9
			c7.7-1.8,15.6-2.6,23.4-2.3c3.9,0.1,7.8,0.4,11.7,1c3.9,0.6,7.7,1.4,11.4,2.5C256.8,195.9,249.1,195.5,241.4,195.7z"/>
		<path d="M181.1,203.5c-2.1,1.3-4,2.4-5.6,3.5c-1.7,1.1-3.2,2.4-4.6,3.9c-1.8,2-3.5,4-5,6.2c-0.9-1.3-1.4-2.9-1.6-4.5
			c-0.2-1.6-0.1-3.3,0.3-4.9c0.9-3.3,3-6.2,5.8-8.1c2.6-1.8,5.8-2.9,9-3c1.5-0.1,3.1,0.1,4.6,0.5c1.5,0.4,3,1,4.3,1.9
			C185.6,200.9,183.2,202.2,181.1,203.5z"/>
		<path d="M275.6,186.4c-2.5-0.6-4.7-1.1-6.8-1.5c-2.1-0.4-4.2-0.6-6.3-0.5c-2.7,0.1-5.4,0.4-8.1,0.9c0.3-1.6,1.1-3.1,2.1-4.4
			c1-1.3,2.3-2.4,3.8-3.3c3-1.7,6.6-2.2,10-1.6c3.2,0.6,6.2,2,8.7,4.2c1.2,1,2.2,2.2,3.1,3.5c0.9,1.3,1.5,2.8,1.9,4.4
			C280.6,187.7,278.1,187,275.6,186.4z"/>
		<path d="M217,263.6c-1.3,0.1-2.5,0.2-3.8,0.1s-2.5-0.2-3.8-0.4c-1.3-0.2-2.5-0.5-3.7-0.9c-2.5-0.8-4.8-2-6.8-3.7
			c-0.5-0.4-1-0.9-1.4-1.4c-0.4-0.5-0.8-1-1.2-1.5c-0.8-1.1-1.3-2.3-1.5-3.6c0.7,1,1.6,1.8,2.6,2.6c0.4,0.4,0.9,0.8,1.4,1.1
			s1,0.6,1.5,0.9c2,1.2,4.2,2.1,6.4,2.8c1.1,0.4,2.3,0.6,3.4,1l3.5,0.8c1.2,0.2,2.4,0.5,3.6,0.8s2.4,0.5,3.6,0.8
			C219.5,263.3,218.2,263.5,217,263.6z"/>
		<path d="M276.4,246.6c-1.3,2.4-3.1,4.5-5.3,6.1c-0.6,0.3-1.2,0.8-1.8,1.1l-1,0.4c-0.3,0.2-0.7,0.3-1,0.3c-1.4,0.4-2.8,0.5-4.2,0.3
			c-2.7-0.3-5.1-1.5-7.2-3.2c2.4,0.6,4.8,0.9,7.3,0.9c2.2-0.2,4.4-0.9,6.2-2.2c1.9-1.4,3.6-3.1,5-4.9c1.5-1.8,3-3.9,4.4-6
			C278.5,241.9,277.7,244.4,276.4,246.6z"/>
		<path d="M225.6,212c5-1.4,15.8-2.8,23.7,0c7.9,2.8-9.4,19.4-9.4,19.4s-7.2,1.4-14.4-5.8C218.4,218.4,220.6,213.4,225.6,212z"/>
		<path d="M222.9,222.5c-0.8-1.1-1.4-2.4-1.8-3.7c-0.4-1.3-0.2-2.8,0.4-4c0.7-1.2,1.8-2.2,3.1-2.7c1.3-0.5,2.6-0.8,4-1.1
			c1.3-0.3,2.7-0.5,4.1-0.7c2.7-0.4,5.5-0.5,8.3-0.4c2.8,0.1,5.5,0.6,8.2,1.4c0.7,0.2,1.4,0.6,1.9,1.2c0.5,0.6,0.8,1.4,0.8,2.2
			c-0.1,1.4-0.5,2.9-1.2,4.1c-1.4,2.4-3,4.7-4.8,6.7c-1.8,2.1-3.7,4-5.7,5.9l0,0l0,0c-1.3,0.2-2.7,0.1-4-0.2
			c-1.3-0.2-2.6-0.6-3.9-1.2c-1.2-0.5-2.4-1.2-3.5-2c-0.6-0.4-1.1-0.8-1.6-1.2s-1-0.9-1.5-1.4C224.6,224.7,223.7,223.6,222.9,222.5z
			 M227.1,227c0.5,0.4,1,0.9,1.6,1.2c1.1,0.8,2.3,1.4,3.5,1.9c1.2,0.5,2.5,0.9,3.8,1.1c1.3,0.2,2.6,0.2,3.9,0h-0.1
			c1.9-1.9,3.7-4,5.5-6.1c1.7-2.1,3.2-4.3,4.5-6.7c0.6-1.1,1-2.4,1.1-3.7c0-1.2-0.9-2.3-2.1-2.4c-2.6-0.9-5.2-1.4-7.9-1.5
			c-2.7-0.2-5.4-0.1-8.1,0.1c-2.7,0.2-5.4,0.7-8,1.5c-1.3,0.5-2.4,1.3-3.1,2.5c-0.7,1.2-0.8,2.6-0.4,3.9c0.3,1.3,0.9,2.6,1.7,3.7
			c0.8,1.1,1.7,2.2,2.6,3.1C226.2,226.1,226.6,226.6,227.1,227z"/>
		<rect x="0" y="0" class="st3" width="407.2" height="407.2"/>
	</g>
</g>
</svg>
