<svg xmlns="http://www.w3.org/2000/svg" viewBox="0 0 178.13 177.7"><defs><style>.cls-1{fill:none;}.cls-2{fill:#f2b716;}.cls-3{fill:#19b500;}.cls-4{fill:#231f20;}</style></defs><title>Asset 3</title><g id="Layer_2" data-name="Layer 2"><g id="Layer_1-2" data-name="Layer 1"><g id="Layer_2-2" data-name="Layer 2"><g id="Layer_1-2-2" data-name="Layer 1-2"><rect class="cls-1" x="0.43" width="177.7" height="177.7" rx="12.51"/><path class="cls-2" d="M165.62,0H12.94A12.52,12.52,0,0,0,.43,12.51V42.19a52.09,52.09,0,0,0,0,13.32V165.19A12.52,12.52,0,0,0,12.94,177.7H165.62a12.52,12.52,0,0,0,12.51-12.51V12.51A12.52,12.52,0,0,0,165.62,0Z"/><path class="cls-3" d="M14.15,133.61l.47.2-5,8.66-.14.35q-4.68-2-9-4.48v-12A91.41,91.41,0,0,0,14.15,133.61Z"/><path class="cls-3" d="M133.25,0l-3.12,2.55h0l-.13.08c-.51-.89-1.05-1.76-1.57-2.63Z"/><path class="cls-4" d="M14.81,133.35A91.3,91.3,0,0,1,.43,125.7v1.18a90.48,90.48,0,0,0,13.47,7.17l-4.67,8.12h0c-3-1.33-5.94-2.8-8.78-4.38v1.14q4.31,2.37,8.84,4.35l.47.2.19-.46,5.12-9h0l.12-.2.16-.28ZM132.49,0l-2.35,1.91h0c-.38-.64-.77-1.28-1.15-1.9H127.8c.6,1,1.19,1.91,1.75,2.89l.25.43.44-.25.19-.15h0L134,0Z"/><path class="cls-3" d="M150.85,68.64h0A102.52,102.52,0,0,1,30.44,149.38,104,104,0,0,1,20,146.74h0l.18-.53,1.36-9.53.08-.26A92.14,92.14,0,0,0,137.89,77.57a93,93,0,0,0,2.94-11.4H141l9.54,2.38Z"/><path class="cls-4" d="M150.68,68.11,150.2,68l-9.06-2.3-.72,0-.09.41a92.28,92.28,0,0,1-2.91,11.33A91.75,91.75,0,0,1,21.79,136l-.49-.16-.15.49,0,.34-1.4,9.43,0,.09-.31.93.5.15a104.35,104.35,0,0,0,10.48,2.65,102.94,102.94,0,0,0,121-81.13l.08-.44ZM30.54,148.89a101.59,101.59,0,0,1-9.9-2.48l0-.13.82-5.74.5-3.47A92.61,92.61,0,0,0,138.37,77.72a91,91,0,0,0,2.84-10.94s0,0,0,0l9,2.26s0,0,0,0A102.13,102.13,0,0,1,30.54,148.89Z"/><path class="cls-3" d="M14.15,133.61l.47.2-5,8.66-.14.35q-4.68-2-9-4.48v-12A91.41,91.41,0,0,0,14.15,133.61Z"/><path class="cls-3" d="M133.25,0l-3.12,2.55h0l-.13.08c-.51-.89-1.05-1.76-1.57-2.63Z"/><path class="cls-4" d="M14.81,133.35A91.3,91.3,0,0,1,.43,125.7v1.18a90.48,90.48,0,0,0,13.47,7.17l-4.67,8.12h0c-3-1.33-5.94-2.8-8.78-4.38v1.14q4.31,2.37,8.84,4.35l.47.2.19-.46,5.12-9h0l.12-.2.16-.28ZM132.49,0l-2.35,1.91h0c-.38-.64-.77-1.28-1.15-1.9H127.8c.6,1,1.19,1.91,1.75,2.89l.25.43.44-.25.19-.15h0L134,0Z"/><path class="cls-3" d="M150.85,68.64h0A102.52,102.52,0,0,1,30.44,149.38,104,104,0,0,1,20,146.74h0l.18-.53,1.36-9.53.08-.26A92.14,92.14,0,0,0,137.89,77.57a93,93,0,0,0,2.94-11.4H141l9.54,2.38Z"/><path class="cls-4" d="M150.68,68.11,150.2,68l-9.06-2.3-.72,0-.09.41a92.28,92.28,0,0,1-2.91,11.33A91.75,91.75,0,0,1,21.79,136l-.49-.16-.15.49,0,.34-1.4,9.43,0,.09-.31.93.5.15a104.35,104.35,0,0,0,10.48,2.65,102.94,102.94,0,0,0,121-81.13l.08-.44ZM30.54,148.89a101.59,101.59,0,0,1-9.9-2.48l0-.13.82-5.74.5-3.47A92.61,92.61,0,0,0,138.37,77.72a91,91,0,0,0,2.84-10.94s0,0,0,0l9,2.26s0,0,0,0A102.13,102.13,0,0,1,30.54,148.89Z"/><path class="cls-3" d="M116.18,152l.39.63A123.28,123.28,0,0,1,.43,161.39V150a112.78,112.78,0,0,0,111.15-6.42l.17.27Z"/><path class="cls-3" d="M173.43,48.92a122.79,122.79,0,0,1-47,96.68l-.05-.07-6.46-7.83A112.74,112.74,0,0,0,163.08,49a113.42,113.42,0,0,0-.81-13.49l-.47.06-9.54.34H152a106.76,106.76,0,0,1,.81,13v2H142.43v-2a92,92,0,0,0-7.35-36.1l.15-.06L144.43,9l.22-.09a100.21,100.21,0,0,1,5.27,15.91l.64-.16,8.51-2,.86-.2L151.93,0h11.31a122.64,122.64,0,0,1,10.13,48.94Z"/><path class="cls-4" d="M116.61,151.77l-4.43-8.2-.44-.7-.44.27a111.27,111.27,0,0,1-60.76,18h-.17A112.27,112.27,0,0,1,.43,149.5v1.11a113.22,113.22,0,0,0,49.93,11.52h.18a112.42,112.42,0,0,0,60.88-17.86l4.32,8,.14.21A122.6,122.6,0,0,1,.43,160.8v1.1a123,123,0,0,0,49.93,10.54h.19a122.77,122.77,0,0,0,66.28-19.38l.42-.27ZM173.87,48.28h0A122.63,122.63,0,0,0,163.74,0h-1.07a121.83,121.83,0,0,1,10.2,48.94v.66h.06a121.52,121.52,0,0,1-46.43,95.32l-5.88-7.13A113.9,113.9,0,0,0,162.76,35.45L162.7,35l-10.45.45h-.87l.07.57a103.54,103.54,0,0,1,.8,12.93v1.5h-9.32v-1.5a92,92,0,0,0-7.19-35.83l8.64-3.52a101.71,101.71,0,0,1,5.05,15.38l.12.49,11-2.59-.12-.49A113.62,113.62,0,0,0,152.49,0h-1.11c1,2,1.91,4.11,2.76,6.21,0,0,0,0,0,0l3.55,10a.09.09,0,0,1,0,0c.59,1.92,1.12,3.88,1.61,5.85l-8.88,2.09-.17,0a101.68,101.68,0,0,0-5.15-15.5l-.2-.45-9.9,4-.59.26.19.46a90.82,90.82,0,0,1,7.31,35.9v2.5h11.32v-2.5a106.69,106.69,0,0,0-.74-12.5l9.32-.34a112.88,112.88,0,0,1-42.22,101.24l-.42.32,6.83,8.26.3.43.42-.32a122.53,122.53,0,0,0,47.19-97v-.1Z"/><path class="cls-3" d="M.43,55.51V42.19A52.09,52.09,0,0,0,.43,55.51ZM115.87,0H102.43c1.49,1.57,2.89,3.22,4.25,5A71.65,71.65,0,0,1,121.74,45.1H111.43A61,61,0,0,0,87,0H64.33A50.41,50.41,0,0,1,79.54,7.27l0,0,.13.09v0l-5.51,8.75A40.53,40.53,0,0,0,23,78.84L22.9,79,16,86.38A50.64,50.64,0,0,1,.43,58.7V84a61,61,0,0,0,69.95,22.7l.26-.09a1.69,1.69,0,0,0,.24-.08h0l-3.69-9.36L67.07,97a50.93,50.93,0,0,1-39.18-2.42l.11-.23,4.1-9.2A40.53,40.53,0,0,0,86.5,67.29h-.11L77.62,62a30.2,30.2,0,1,1,3-13.08,30.86,30.86,0,0,1-.26,3.85l10,1.18h.26a40.5,40.5,0,0,0-8.8-30.68l.19-.15,8.86-4.77.12-.1A50.86,50.86,0,0,1,81,89.47a49.61,49.61,0,0,1-6,3.91l5,9,.39-.22A61.14,61.14,0,0,0,111,56.91l.44.09,9.87.68a71.26,71.26,0,0,1-2.06,10.37,70.28,70.28,0,0,1-3.59,10l.18.08,8.52,4.43.48.23A81.78,81.78,0,0,0,115.87,0ZM36.3,0H14A61.32,61.32,0,0,0,.43,14V39A50.87,50.87,0,0,1,36.3,0ZM.43,42.19a52.09,52.09,0,0,0,0,13.32Zm94,63.17-.06-.09A71.47,71.47,0,0,1,.43,100.09v13.62a81.78,81.78,0,0,0,99.15.52l.41-.3Z"/><path class="cls-4" d="M80,7A50.82,50.82,0,0,0,66,0H62.32A49.83,49.83,0,0,1,79,7.52l-5,7.92a41,41,0,0,0-51.7,63.43L16,85.68A50.17,50.17,0,0,1,.43,55.51V61a51,51,0,0,0,15.24,25.8l.35.34.27-.28h0l.07-.09h0l7.37-7.9-.37-.34a40,40,0,0,1,50.5-61.92l.43.31.31-.47,5.51-8.73h0l0-.08.2-.33ZM38.37,0H34.68A51.2,51.2,0,0,0,.43,36.75v5.44A50.24,50.24,0,0,1,38.37,0Zm78.07,0H115.2a81.38,81.38,0,0,1,9.38,82.08l-8.28-4.31a71.82,71.82,0,0,0,5.5-20l.07-.53-10.33-.71-1-.19-.07.53A60.91,60.91,0,0,1,80.18,101.7l-4.51-8.12A51.36,51.36,0,0,0,91.38,18l-.3-.4-.4.31-9,4.87-.57.47.31.39a40.16,40.16,0,0,1,8.75,29.84l-9.26-1.09a30,30,0,0,0,.2-3.41A30.94,30.94,0,0,0,63.74,21.21a30.72,30.72,0,1,0,14.07,41.5l8,4.82a40.12,40.12,0,0,1-53.5,17.18l-.46-.24-4.3,9.67-.32.67.44.22a51.82,51.82,0,0,0,39.14,2.59l3.42,8.64A60.54,60.54,0,0,1,.43,83.1v1.75A61.57,61.57,0,0,0,71.05,107l.49-.18-3.92-9.93-.33-.53-.39.13a50.79,50.79,0,0,1-38.35-2.18l3.78-8.52A41.11,41.11,0,0,0,86.94,67.52l.37-.73h-.79L77.8,61.53l-.41-.24-.22.5a30.32,30.32,0,1,1,2.69-9.08l-.07.5.39,0h.06l10.12,1.19h.7l.06-.43A41.2,41.2,0,0,0,82.55,23.4l8.32-4.48A50.37,50.37,0,0,1,80.71,89.07a50.83,50.83,0,0,1-6,3.88l-.44.24,5.27,9.47.11.21.12.19.44-.24A62,62,0,0,0,111.42,57.5l9.32.65a70.39,70.39,0,0,1-5.55,19.65l-.2.46L124.12,83l.95.44.22-.46A82.37,82.37,0,0,0,116.44,0ZM100.58,113.93h0l-.17-.26v0l-5.54-8.56-.36-.54-.43.33A71.08,71.08,0,0,1,.43,99.39v1.41A72.08,72.08,0,0,0,94.24,106l5.06,7.82a81.77,81.77,0,0,1-48.95,16.39A80.87,80.87,0,0,1,.43,113v1.26a81.87,81.87,0,0,0,49.92,16.92,82.76,82.76,0,0,0,49.94-16.88l.36-.28ZM13.2,0A62,62,0,0,0,.43,13.15v1.76A61.1,61.1,0,0,1,14.88,0Zm109,45.08A71.64,71.64,0,0,0,107.07,4.64Q105.18,2.22,103.12,0h-1.38q2.39,2.51,4.55,5.26A70.7,70.7,0,0,1,121.2,44.6h-9.31A61.12,61.12,0,0,0,91.15,2.77C90.05,1.8,88.93.88,87.77,0H86.11c1.51,1.1,3,2.27,4.38,3.52a60.17,60.17,0,0,1,20.44,41.62l0,.46h11.29ZM80,7A50.82,50.82,0,0,0,66,0H62.32A49.83,49.83,0,0,1,79,7.52l-5,7.92a41,41,0,0,0-51.7,63.43L16,85.68A50.17,50.17,0,0,1,.43,55.51V61a51,51,0,0,0,15.24,25.8l.35.34.27-.28h0l.07-.09h0l7.37-7.9-.37-.34a40,40,0,0,1,50.5-61.92l.43.31.31-.47,5.51-8.73h0l0-.08.2-.33ZM38.37,0H34.68A51.2,51.2,0,0,0,.43,36.75v5.44A50.24,50.24,0,0,1,38.37,0Zm83.88,45.6,0-.52A71.64,71.64,0,0,0,107.07,4.64Q105.18,2.22,103.12,0h-.69c1.49,1.57,2.89,3.22,4.25,5A71.65,71.65,0,0,1,121.74,45.1v-.5H122v1ZM80,7A50.82,50.82,0,0,0,66,0H62.32A49.83,49.83,0,0,1,79,7.52l-5,7.92a41,41,0,0,0-51.7,63.43L16,85.68A50.17,50.17,0,0,1,.43,55.51V61a51,51,0,0,0,15.24,25.8l.35.34.27-.28h0l.07-.09h0l7.37-7.9-.37-.34a40,40,0,0,1,50.5-61.92l.43.31.31-.47,5.51-8.73h0l0-.08.2-.33ZM38.37,0H34.68A51.2,51.2,0,0,0,.43,36.75v5.44A50.24,50.24,0,0,1,38.37,0Z"/><path class="cls-3" d="M14.15,133.61l.47.2-5,8.66-.14.35q-4.68-2-9-4.48v-12A91.41,91.41,0,0,0,14.15,133.61Z"/><path class="cls-3" d="M133.25,0l-3.12,2.55h0l-.13.08c-.51-.89-1.05-1.76-1.57-2.63Z"/><path class="cls-4" d="M14.81,133.35A91.3,91.3,0,0,1,.43,125.7v1.18a90.48,90.48,0,0,0,13.47,7.17l-4.67,8.12h0c-3-1.33-5.94-2.8-8.78-4.38v1.14q4.31,2.37,8.84,4.35l.47.2.19-.46,5.12-9h0l.12-.2.16-.28ZM132.49,0l-2.35,1.91h0c-.38-.64-.77-1.28-1.15-1.9H127.8c.6,1,1.19,1.91,1.75,2.89l.25.43.44-.25.19-.15h0L134,0Z"/><path class="cls-3" d="M150.85,68.64h0A102.52,102.52,0,0,1,30.44,149.38,104,104,0,0,1,20,146.74h0l.18-.53,1.36-9.53.08-.26A92.14,92.14,0,0,0,137.89,77.57a93,93,0,0,0,2.94-11.4H141l9.54,2.38Z"/><path class="cls-4" d="M150.68,68.11,150.2,68l-9.06-2.3-.72,0-.09.41a92.28,92.28,0,0,1-2.91,11.33A91.75,91.75,0,0,1,21.79,136l-.49-.16-.15.49,0,.34-1.4,9.43,0,.09-.31.93.5.15a104.35,104.35,0,0,0,10.48,2.65,102.94,102.94,0,0,0,121-81.13l.08-.44ZM30.54,148.89a101.59,101.59,0,0,1-9.9-2.48l0-.13.82-5.74.5-3.47A92.61,92.61,0,0,0,138.37,77.72a91,91,0,0,0,2.84-10.94s0,0,0,0l9,2.26s0,0,0,0A102.13,102.13,0,0,1,30.54,148.89Z"/><polygon class="cls-4" points="77.35 62.43 77.27 62.38 77.79 61.53 77.35 62.43"/><polygon class="cls-4" points="80.24 53.27 80.18 53.26 80.34 52.27 80.24 53.27"/><rect class="cls-4" x="15.9" y="85.93" width="0.12" height="1" transform="translate(-59.15 40.78) rotate(-48.25)"/><polygon class="cls-4" points="80.13 7.67 79.28 7.14 80.17 7.59 80.13 7.67"/><polygon class="cls-4" points="74.55 16.45 73.71 15.9 74.59 16.39 74.55 16.45"/><rect class="cls-4" x="70.37" y="106.56" width="1" height="0.17" transform="translate(-33.13 31.95) rotate(-20.71)"/><rect class="cls-4" x="79.53" y="102.42" width="1" height="0.24" transform="translate(-40.35 53.28) rotate(-29.77)"/><rect class="cls-4" x="121.73" y="44.6" width="0.23" height="1"/><rect class="cls-4" x="99.58" y="113.91" width="1" height="0.34" transform="translate(-46.72 75.61) rotate(-34.06)"/><rect class="cls-4" x="145.29" y="62.49" width="1" height="9.83" transform="translate(45.1 192.55) rotate(-75.99)"/><polygon class="cls-4" points="142.43 51.39 142.39 51.39 142.39 50.39 142.43 51.39"/><polygon class="cls-4" points="134.03 0 130.44 2.94 130.43 2.92 130.43 2.91 130.13 2.55 129.81 2.17 130.15 1.9 132.47 0 134.03 0"/><polygon class="cls-4" points="10.05 142.72 9.19 142.22 14.29 133.37 15.17 133.85 15.06 134.05 10.05 142.72"/><rect class="cls-4" x="16.04" y="140.95" width="9.63" height="1" transform="translate(-122.13 142.2) rotate(-81.92)"/></g></g></g></g></svg>