<svg xmlns="http://www.w3.org/2000/svg" xmlns:xlink="http://www.w3.org/1999/xlink" viewBox="0 0 435.17 235.29"><defs><style>.cls-1{fill:none;}.cls-2{isolation:isolate;}.cls-3{clip-path:url(#clip-path);}.cls-4{fill:#ebe7f1;}.cls-5{fill:#231f20;}</style><clipPath id="clip-path"><polygon class="cls-1" points="88.6 216.89 0 77.47 330.8 95.87 419.4 235.29 88.6 216.89"/></clipPath></defs><title>Markdown</title><g id="Layer_2" data-name="Layer 2"><g id="Layer_1-2" data-name="Layer 1"><g class="cls-2"><g class="cls-3"><path class="cls-4" d="M270.25,148.35l-13.13-.73,13.13,20.66,13.13.73c15.49.87,25.17-3.09,21.55-8.79s-19.2-11-34.68-11.87m-127.42-2.77,37.94-13.5,14.06.79,27.74,43.65-31.3-1.74L177,152.37l-24.36,8.7L114.94,149l14.21,22.36-31.3-1.75L70.1,125.93l14.07.78,58.66,18.87m103.61,32.27L218.7,134.19l43.95,2.45c32.72,1.82,65.5,13.08,73.16,25.13s-12.7,20.35-45.42,18.53l-43.95-2.45m84.36-82L0,77.47,88.6,216.89l330.8,18.4L330.8,95.87"/><polyline class="cls-5" points="194.83 132.87 180.77 132.08 142.83 145.58 84.17 126.71 70.1 125.93 97.84 169.58 129.15 171.33 114.94 148.97 152.67 161.07 177.03 152.37 191.27 174.78 222.57 176.52 194.83 132.87"/><path class="cls-5" d="M270.25,168.28l-13.13-20.66,13.13.73c15.48.86,31.09,6.22,34.68,11.87s-6.06,9.66-21.55,8.79l-13.13-.73m-7.6-31.64-43.95-2.45,27.74,43.66,43.95,2.45c32.72,1.82,53.08-6.48,45.42-18.53s-40.44-23.31-73.16-25.13"/></g></g><path class="cls-5" d="M415.51.06,340.22,168.14l5.26,13.79,14.26-5.44L435.17,8.08S413.54-.82,415.51.06Z"/></g></g></svg>