<?xml version="1.0" encoding="utf-8"?>
<!-- Generator: Adobe Illustrator 24.0.1, SVG Export Plug-In . SVG Version: 6.00 Build 0)  -->
<svg version="1.1" id="Layer_1" xmlns="http://www.w3.org/2000/svg" xmlns:xlink="http://www.w3.org/1999/xlink" x="0px" y="0px"
	 viewBox="0 0 208.4 208.4" style="enable-background:new 0 0 208.4 208.4;" xml:space="preserve">
<style type="text/css">
	.st0{fill:#FFFFFF;}
	.st1{fill:#FFFFFF;stroke:#000000;stroke-miterlimit:10;}
</style>
<title>Asset 2</title>
<g id="Layer_2_1_">
	<g id="Layer_1-2">
		<path class="st0" d="M51.7,71.2h-7.8l-30.8,66h17.4l4-8.6h27l4,8.6h17.3L51.7,71.2z M41.2,113.9L48,99.4l6.6,14.5H41.2z"/>
		<path class="st0" d="M129.2,116.7c0,11.3-9.1,20.5-20.3,20.5c-11.3,0-20.5-9.1-20.5-20.3v-0.2h15.4c0,2.7,2.2,5,4.9,5
			c1.4,0,2.6-0.5,3.5-1.4c0.9-0.9,1.5-2.1,1.5-3.5c0-2.8-2.3-5-5-5c-11.1,0.1-20.2-8.9-20.2-20v-0.2c0-11.2,9-20.3,20.3-20.4
			c11.2,0,20.3,9,20.4,20.3h-15.3c0-2.7-2.3-5-5-5c-2.7,0-4.9,2.3-4.9,5c0,2.7,2.2,4.9,4.9,4.9c0,0,0,0,0,0h0.1
			C120,96.3,129.1,105.4,129.2,116.7z"/>
		<path class="st0" d="M195.3,127.4c-12.8,12.9-33.7,13-46.7,0.2c-12.9-12.8-13-33.7-0.2-46.7c12.8-12.9,33.7-13,46.7-0.2l0,0
			L182.9,93c-3-2.9-7-4.4-11.1-4.3c-9,0-15.5,6.5-15.5,15.5s6.5,15.5,15.5,15.5c4.1,0.1,8.2-1.5,11.1-4.4L195.3,127.4z"/>
		<g id="Layer_2-2">
			<g id="Layer_1-2-2">
				<path class="st1" d="M51.7,71.2h-7.8l-30.8,66h17.4l4-8.6h27l4,8.6h17.3L51.7,71.2z M41.2,113.9L48,99.4l6.6,14.5H41.2z"/>
				<path class="st1" d="M129.2,116.7c0,11.3-9.1,20.5-20.3,20.5c-11.3,0-20.5-9.1-20.5-20.3v-0.2h15.4c0,2.7,2.2,5,4.9,5
					c1.4,0,2.6-0.5,3.5-1.4c0.9-0.9,1.5-2.1,1.5-3.5c0-2.8-2.3-5-5-5c-11.1,0.1-20.2-8.9-20.2-20v-0.2c0-11.2,9-20.3,20.3-20.4
					c11.2,0,20.3,9,20.4,20.3h-15.3c0-2.7-2.3-5-5-5c-2.7,0-4.9,2.3-4.9,5c0,2.7,2.2,4.9,4.9,4.9c0,0,0,0,0,0h0.1
					C120,96.3,129.1,105.4,129.2,116.7z"/>
				<path class="st1" d="M195.3,127.4c-12.8,12.9-33.7,13-46.7,0.2c-12.9-12.8-13-33.7-0.2-46.7c12.8-12.9,33.7-13,46.7-0.2l0,0
					L182.9,93c-3-2.9-7-4.4-11.1-4.3c-9,0-15.5,6.5-15.5,15.5s6.5,15.5,15.5,15.5c4.1,0.1,8.2-1.5,11.1-4.4L195.3,127.4z"/>
			</g>
		</g>
	</g>
</g>
</svg>
