<svg xmlns="http://www.w3.org/2000/svg" viewBox="0 0 470.39 467.49"><defs><style>.cls-1{fill:#fff;}.cls-2{fill:red;}</style></defs><title>Asset 3</title><g id="Layer_2" data-name="Layer 2"><g id="Layer_1-2" data-name="Layer 1"><path class="cls-1" d="M318.48,144.42c-.35,1.43-.72,2.85-1.1,4.28-2.15,8-4.64,15.94-7.57,23.74a194.77,194.77,0,0,1-12.36,27c-.29.54-.6,1.08-.91,1.62q4.63-3.37,9.37-6.57c.19-.35.38-.7.56-1.05a217.39,217.39,0,0,0,10.48-23,234,234,0,0,0,8.11-24.85c.43-1.58.83-3.17,1.21-4.76C323.62,141.92,321,143.14,318.48,144.42Zm-53.76,93c-.35.24-.7.48-1.05.7A63.38,63.38,0,0,1,239.32,248a59.48,59.48,0,0,1-37.22-5.3l-1.2-.61L198.85,244l1.17.64a62.63,62.63,0,0,0,40.78,6.91,65.25,65.25,0,0,0,25.93-10.62l1-.71Zm71.48,51.77q-2.16-.78-4.29-1.68c.36.59.75,1.18,1.16,1.76q2.52,1.35,5.1,2.57C337.48,291,336.83,290.13,336.2,289.23Zm-46.46-29.45-.16-.13c-.27.28-.55.53-.82.78a102.11,102.11,0,0,1-14.37,11.36,85.17,85.17,0,0,1-13.15,6.92l-1.47.59,1.77,1.61,1.47-.6a124.69,124.69,0,0,0,18.42-9.6,107.47,107.47,0,0,0,10.65-7.52c.28-.22.56-.46.83-.69C291.84,261.61,290.79,260.7,289.74,259.78Zm-82.67,23.59c-.51-.1-1-.21-1.52-.33a71.16,71.16,0,0,1-31.84-16.13l-.6-.55c-.71.56-1.42,1.11-2.14,1.64l.6.47a94.25,94.25,0,0,0,21.53,13A83,83,0,0,0,203.29,285c.59.17,1.17.33,1.76.48.77-.69,1.54-1.39,2.3-2.1Zm82.67-23.59-.16-.13c-.27.28-.55.53-.82.78a102.11,102.11,0,0,1-14.37,11.36,85.17,85.17,0,0,1-13.15,6.92l-1.47.59,1.77,1.61,1.47-.6a124.69,124.69,0,0,0,18.42-9.6,107.47,107.47,0,0,0,10.65-7.52c.28-.22.56-.46.83-.69C291.84,261.61,290.79,260.7,289.74,259.78Zm-82.67,23.59c-.51-.1-1-.21-1.52-.33a71.16,71.16,0,0,1-31.84-16.13l-.6-.55c-.71.56-1.42,1.11-2.14,1.64l.6.47a94.25,94.25,0,0,0,21.53,13A83,83,0,0,0,203.29,285c.59.17,1.17.33,1.76.48.77-.69,1.54-1.39,2.3-2.1ZM123,292.69c-.85,1.43-1.76,2.81-2.73,4.17A75.1,75.1,0,0,1,109.47,309q-6.28,5.73-12.55,11.49c-.23.21-.49.39-1,.8v-1.59a114,114,0,0,1,1.24-17.12c-2,.26-4,.45-6.08.59V324c2,.39,4,.72,6.06,1a97.63,97.63,0,0,0,18.06-16.51,106,106,0,0,0,9.66-13.35c.68-1.13,1.35-2.27,2-3.42C125.57,292,124.28,292.38,123,292.69Zm166.76-32.91-.16-.13c-.27.28-.55.53-.82.78a102.11,102.11,0,0,1-14.37,11.36,85.17,85.17,0,0,1-13.15,6.92l-1.47.59,1.77,1.61,1.47-.6a124.69,124.69,0,0,0,18.42-9.6,107.47,107.47,0,0,0,10.65-7.52c.28-.22.56-.46.83-.69C291.84,261.61,290.79,260.7,289.74,259.78Zm-82.67,23.59c-.51-.1-1-.21-1.52-.33a71.16,71.16,0,0,1-31.84-16.13l-.6-.55c-.71.56-1.42,1.11-2.14,1.64l.6.47a94.25,94.25,0,0,0,21.53,13A83,83,0,0,0,203.29,285c.59.17,1.17.33,1.76.48.77-.69,1.54-1.39,2.3-2.1ZM123,292.69c-.85,1.43-1.76,2.81-2.73,4.17A75.1,75.1,0,0,1,109.47,309q-6.28,5.73-12.55,11.49c-.23.21-.49.39-1,.8v-1.59a114,114,0,0,1,1.24-17.12c-2,.26-4,.45-6.08.59V324c2,.39,4,.72,6.06,1a97.63,97.63,0,0,0,18.06-16.51,106,106,0,0,0,9.66-13.35c.68-1.13,1.35-2.27,2-3.42C125.57,292,124.28,292.38,123,292.69Zm166.76-32.91-.16-.13c-.27.28-.55.53-.82.78a102.11,102.11,0,0,1-14.37,11.36,85.17,85.17,0,0,1-13.15,6.92l-1.47.59,1.77,1.61,1.47-.6a124.69,124.69,0,0,0,18.42-9.6,107.47,107.47,0,0,0,10.65-7.52c.28-.22.56-.46.83-.69C291.84,261.61,290.79,260.7,289.74,259.78Zm-82.67,23.59c-.51-.1-1-.21-1.52-.33a71.16,71.16,0,0,1-31.84-16.13l-.6-.55c-.71.56-1.42,1.11-2.14,1.64l.6.47a94.25,94.25,0,0,0,21.53,13A83,83,0,0,0,203.29,285c.59.17,1.17.33,1.76.48.77-.69,1.54-1.39,2.3-2.1ZM123,292.69c-.85,1.43-1.76,2.81-2.73,4.17A75.1,75.1,0,0,1,109.47,309q-6.28,5.73-12.55,11.49c-.23.21-.49.39-1,.8v-1.59a114,114,0,0,1,1.24-17.12c-2,.26-4,.45-6.08.59V324c2,.39,4,.72,6.06,1a97.63,97.63,0,0,0,18.06-16.51,106,106,0,0,0,9.66-13.35c.68-1.13,1.35-2.27,2-3.42C125.57,292,124.28,292.38,123,292.69Zm166.76-32.91-.16-.13c-.27.28-.55.53-.82.78a102.11,102.11,0,0,1-14.37,11.36,85.17,85.17,0,0,1-13.15,6.92l-1.47.59,1.77,1.61,1.47-.6a124.69,124.69,0,0,0,18.42-9.6,107.47,107.47,0,0,0,10.65-7.52c.28-.22.56-.46.83-.69C291.84,261.61,290.79,260.7,289.74,259.78Zm-82.67,23.59c-.51-.1-1-.21-1.52-.33a71.16,71.16,0,0,1-31.84-16.13l-.6-.55c-.71.56-1.42,1.11-2.14,1.64l.6.47a94.25,94.25,0,0,0,21.53,13A83,83,0,0,0,203.29,285c.59.17,1.17.33,1.76.48.77-.69,1.54-1.39,2.3-2.1ZM123,292.69c-.85,1.43-1.76,2.81-2.73,4.17A75.1,75.1,0,0,1,109.47,309q-6.28,5.73-12.55,11.49c-.23.21-.49.39-1,.8v-1.59a114,114,0,0,1,1.24-17.12c-2,.26-4,.45-6.08.59V324c2,.39,4,.72,6.06,1a97.63,97.63,0,0,0,18.06-16.51,106,106,0,0,0,9.66-13.35c.68-1.13,1.35-2.27,2-3.42C125.57,292,124.28,292.38,123,292.69Zm166.76-32.91-.16-.13c-.27.28-.55.53-.82.78a102.11,102.11,0,0,1-14.37,11.36,85.17,85.17,0,0,1-13.15,6.92l-1.47.59,1.77,1.61,1.47-.6a124.69,124.69,0,0,0,18.42-9.6,107.47,107.47,0,0,0,10.65-7.52c.28-.22.56-.46.83-.69C291.84,261.61,290.79,260.7,289.74,259.78Zm-82.67,23.59c-.51-.1-1-.21-1.52-.33a71.16,71.16,0,0,1-31.84-16.13l-.6-.55c-.71.56-1.42,1.11-2.14,1.64l.6.47a94.25,94.25,0,0,0,21.53,13A83,83,0,0,0,203.29,285c.59.17,1.17.33,1.76.48.77-.69,1.54-1.39,2.3-2.1ZM123,292.69c-.85,1.43-1.76,2.81-2.73,4.17A75.1,75.1,0,0,1,109.47,309q-6.28,5.73-12.55,11.49c-.23.21-.49.39-1,.8v-1.59a114,114,0,0,1,1.24-17.12c-2,.26-4,.45-6.08.59V324c2,.39,4,.72,6.06,1a97.63,97.63,0,0,0,18.06-16.51,106,106,0,0,0,9.66-13.35c.68-1.13,1.35-2.27,2-3.42C125.57,292,124.28,292.38,123,292.69Zm166.76-32.91-.16-.13c-.27.28-.55.53-.82.78a102.11,102.11,0,0,1-14.37,11.36,85.17,85.17,0,0,1-13.15,6.92l-1.47.59,1.77,1.61,1.47-.6a124.69,124.69,0,0,0,18.42-9.6,107.47,107.47,0,0,0,10.65-7.52c.28-.22.56-.46.83-.69C291.84,261.61,290.79,260.7,289.74,259.78Zm-82.67,23.59c-.51-.1-1-.21-1.52-.33a71.16,71.16,0,0,1-31.84-16.13l-.6-.55c-.71.56-1.42,1.11-2.14,1.64l.6.47a94.25,94.25,0,0,0,21.53,13A83,83,0,0,0,203.29,285c.59.17,1.17.33,1.76.48.77-.69,1.54-1.39,2.3-2.1ZM123,292.69c-.85,1.43-1.76,2.81-2.73,4.17A75.1,75.1,0,0,1,109.47,309q-6.28,5.73-12.55,11.49c-.23.21-.49.39-1,.8v-1.59a114,114,0,0,1,1.24-17.12c-2,.26-4,.45-6.08.59V324c2,.39,4,.72,6.06,1a97.63,97.63,0,0,0,18.06-16.51,106,106,0,0,0,9.66-13.35c.68-1.13,1.35-2.27,2-3.42C125.57,292,124.28,292.38,123,292.69Zm166.76-32.91-.16-.13c-.27.28-.55.53-.82.78a102.11,102.11,0,0,1-14.37,11.36,85.17,85.17,0,0,1-13.15,6.92l-1.47.59,1.77,1.61,1.47-.6a124.69,124.69,0,0,0,18.42-9.6,107.47,107.47,0,0,0,10.65-7.52c.28-.22.56-.46.83-.69C291.84,261.61,290.79,260.7,289.74,259.78Zm-82.67,23.59c-.51-.1-1-.21-1.52-.33a71.16,71.16,0,0,1-31.84-16.13l-.6-.55c-.71.56-1.42,1.11-2.14,1.64l.6.47a94.25,94.25,0,0,0,21.53,13A83,83,0,0,0,203.29,285c.59.17,1.17.33,1.76.48.77-.69,1.54-1.39,2.3-2.1ZM123,292.69c-.85,1.43-1.76,2.81-2.73,4.17A75.1,75.1,0,0,1,109.47,309q-6.28,5.73-12.55,11.49c-.23.21-.49.39-1,.8v-1.59a114,114,0,0,1,1.24-17.12c-2,.26-4,.45-6.08.59V324c2,.39,4,.72,6.06,1a97.63,97.63,0,0,0,18.06-16.51,106,106,0,0,0,9.66-13.35c.68-1.13,1.35-2.27,2-3.42C125.57,292,124.28,292.38,123,292.69Zm166.76-32.91-.16-.13c-.27.28-.55.53-.82.78a102.11,102.11,0,0,1-14.37,11.36,85.17,85.17,0,0,1-13.15,6.92l-1.47.59,1.77,1.61,1.47-.6a124.69,124.69,0,0,0,18.42-9.6,107.47,107.47,0,0,0,10.65-7.52c.28-.22.56-.46.83-.69C291.84,261.61,290.79,260.7,289.74,259.78Zm-82.67,23.59c-.51-.1-1-.21-1.52-.33a71.16,71.16,0,0,1-31.84-16.13l-.6-.55c-.71.56-1.42,1.11-2.14,1.64l.6.47a94.25,94.25,0,0,0,21.53,13A83,83,0,0,0,203.29,285c.59.17,1.17.33,1.76.48.77-.69,1.54-1.39,2.3-2.1ZM123,292.69c-.85,1.43-1.76,2.81-2.73,4.17A75.1,75.1,0,0,1,109.47,309q-6.28,5.73-12.55,11.49c-.23.21-.49.39-1,.8v-1.59a114,114,0,0,1,1.24-17.12c-2,.26-4,.45-6.08.59V324c2,.39,4,.72,6.06,1a97.63,97.63,0,0,0,18.06-16.51,106,106,0,0,0,9.66-13.35c.68-1.13,1.35-2.27,2-3.42C125.57,292,124.28,292.38,123,292.69Zm166.76-32.91-.16-.13c-.27.28-.55.53-.82.78a102.11,102.11,0,0,1-14.37,11.36,85.17,85.17,0,0,1-13.15,6.92l-1.47.59,1.77,1.61,1.47-.6a124.69,124.69,0,0,0,18.42-9.6,107.47,107.47,0,0,0,10.65-7.52c.28-.22.56-.46.83-.69C291.84,261.61,290.79,260.7,289.74,259.78Zm82.17,35.37c.47,2.38.88,4.76,1.21,7.16a89.48,89.48,0,0,1,.9,14.56c0,.63-.06,1.25-.1,2.13-1.18-.64-2.18-1.16-3.17-1.71A145,145,0,0,1,347.89,302a67.06,67.06,0,0,1-9.72-10.09c-.69-.86-1.34-1.75-2-2.65q-2.16-.78-4.29-1.68c.36.59.75,1.18,1.16,1.76a88.62,88.62,0,0,0,20.46,21.47,94.4,94.4,0,0,0,19.37,11.15,1.61,1.61,0,0,1,1.16,1.57c0,.37,0,.75.06,1.12.13,2.58.31,5.16.47,7.74,0,.3,0,.59,0,.89,1.58-.05,3.16-.13,4.75-.23v-38.3C376.88,295,374.4,295.11,371.91,295.15Zm-82.17-35.37-.16-.13c-.27.28-.55.53-.82.78a102.11,102.11,0,0,1-14.37,11.36,85.17,85.17,0,0,1-13.15,6.92l-1.47.59,1.77,1.61,1.47-.6a124.69,124.69,0,0,0,18.42-9.6,107.47,107.47,0,0,0,10.65-7.52c.28-.22.56-.46.83-.69C291.84,261.61,290.79,260.7,289.74,259.78ZM115.54,141.1c0-.6-.09-1.19-.14-1.79-.19-2.33-.44-4.66-.68-7a113.55,113.55,0,0,0-23.64-.69v37.92A74.29,74.29,0,0,1,116,171c0-1.07.07-2.13.09-3.2C116.29,158.87,116.14,150,115.54,141.1Zm91.53,142.27c-.51-.1-1-.21-1.52-.33a71.16,71.16,0,0,1-31.84-16.13l-.6-.55c-.71.56-1.42,1.11-2.14,1.64l.6.47a94.25,94.25,0,0,0,21.53,13A83,83,0,0,0,203.29,285c.59.17,1.17.33,1.76.48.77-.69,1.54-1.39,2.3-2.1ZM123,292.69c-.85,1.43-1.76,2.81-2.73,4.17A75.1,75.1,0,0,1,109.47,309q-6.28,5.73-12.55,11.49c-.23.21-.49.39-1,.8v-1.59a114,114,0,0,1,1.24-17.12c.15-1.14.34-2.28.53-3.41.22-1.3.45-2.6.68-3.9-2.41-.09-4.85-.28-7.29-.59v38.73q2.86.25,5.72.34-.45-3.51-.8-7c-.11-1,.52-1.32,1.11-1.74l0,0a97.63,97.63,0,0,0,18.06-16.51,106,106,0,0,0,9.66-13.35c.68-1.13,1.35-2.27,2-3.42C125.57,292,124.28,292.38,123,292.69Zm166.76-32.91-.16-.13c-.27.28-.55.53-.82.78a102.11,102.11,0,0,1-14.37,11.36,85.17,85.17,0,0,1-13.15,6.92l-1.47.59,1.77,1.61,1.47-.6a124.69,124.69,0,0,0,18.42-9.6,107.47,107.47,0,0,0,10.65-7.52c.28-.22.56-.46.83-.69C291.84,261.61,290.79,260.7,289.74,259.78ZM123,292.69c-.85,1.43-1.76,2.81-2.73,4.17A75.1,75.1,0,0,1,109.47,309q-6.28,5.73-12.55,11.49c-.23.21-.49.39-1,.8v-1.59a114,114,0,0,1,1.24-17.12c-2,.26-4,.45-6.08.59V324c2,.39,4,.72,6.06,1a97.63,97.63,0,0,0,18.06-16.51,106,106,0,0,0,9.66-13.35c.68-1.13,1.35-2.27,2-3.42C125.57,292,124.28,292.38,123,292.69Zm166.76-32.91-.16-.13c-.27.28-.55.53-.82.78a102.11,102.11,0,0,1-14.37,11.36,85.17,85.17,0,0,1-13.15,6.92l-1.47.59,1.77,1.61,1.47-.6a124.69,124.69,0,0,0,18.42-9.6,107.47,107.47,0,0,0,10.65-7.52c.28-.22.56-.46.83-.69C291.84,261.61,290.79,260.7,289.74,259.78Zm-82.67,23.59c-.51-.1-1-.21-1.52-.33a71.16,71.16,0,0,1-31.84-16.13l-.6-.55c-.71.56-1.42,1.11-2.14,1.64l.6.47a94.25,94.25,0,0,0,21.53,13A83,83,0,0,0,203.29,285c.59.17,1.17.33,1.76.48.77-.69,1.54-1.39,2.3-2.1ZM123,292.69c-.85,1.43-1.76,2.81-2.73,4.17A75.1,75.1,0,0,1,109.47,309q-6.28,5.73-12.55,11.49c-.23.21-.49.39-1,.8v-1.59a114,114,0,0,1,1.24-17.12c-2,.26-4,.45-6.08.59V324c2,.39,4,.72,6.06,1a97.63,97.63,0,0,0,18.06-16.51,106,106,0,0,0,9.66-13.35c.68-1.13,1.35-2.27,2-3.42C125.57,292,124.28,292.38,123,292.69Zm166.76-32.91-.16-.13c-.27.28-.55.53-.82.78a102.11,102.11,0,0,1-14.37,11.36,85.17,85.17,0,0,1-13.15,6.92l-1.47.59,1.77,1.61,1.47-.6a124.69,124.69,0,0,0,18.42-9.6,107.47,107.47,0,0,0,10.65-7.52c.28-.22.56-.46.83-.69C291.84,261.61,290.79,260.7,289.74,259.78Zm-82.67,23.59c-.51-.1-1-.21-1.52-.33a71.16,71.16,0,0,1-31.84-16.13l-.6-.55c-.71.56-1.42,1.11-2.14,1.64l.6.47a94.25,94.25,0,0,0,21.53,13A83,83,0,0,0,203.29,285c.59.17,1.17.33,1.76.48.77-.69,1.54-1.39,2.3-2.1ZM123,292.69c-.85,1.43-1.76,2.81-2.73,4.17A75.1,75.1,0,0,1,109.47,309q-6.28,5.73-12.55,11.49c-.23.21-.49.39-1,.8v-1.59a114,114,0,0,1,1.24-17.12c-2,.26-4,.45-6.08.59V324c2,.39,4,.72,6.06,1a97.63,97.63,0,0,0,18.06-16.51,106,106,0,0,0,9.66-13.35c.68-1.13,1.35-2.27,2-3.42C125.57,292,124.28,292.38,123,292.69Zm166.76-32.91-.16-.13c-.27.28-.55.53-.82.78a102.11,102.11,0,0,1-14.37,11.36,85.17,85.17,0,0,1-13.15,6.92l-1.47.59,1.77,1.61,1.47-.6a124.69,124.69,0,0,0,18.42-9.6,107.47,107.47,0,0,0,10.65-7.52c.28-.22.56-.46.83-.69C291.84,261.61,290.79,260.7,289.74,259.78Zm-82.67,23.59c-.51-.1-1-.21-1.52-.33a71.16,71.16,0,0,1-31.84-16.13l-.6-.55c-.71.56-1.42,1.11-2.14,1.64l.6.47a94.25,94.25,0,0,0,21.53,13A83,83,0,0,0,203.29,285c.59.17,1.17.33,1.76.48.77-.69,1.54-1.39,2.3-2.1ZM123,292.69c-.85,1.43-1.76,2.81-2.73,4.17A75.1,75.1,0,0,1,109.47,309q-6.28,5.73-12.55,11.49c-.23.21-.49.39-1,.8v-1.59a114,114,0,0,1,1.24-17.12c-2,.26-4,.45-6.08.59V324c2,.39,4,.72,6.06,1a97.63,97.63,0,0,0,18.06-16.51,106,106,0,0,0,9.66-13.35c.68-1.13,1.35-2.27,2-3.42C125.57,292,124.28,292.38,123,292.69Zm166.76-32.91-.16-.13c-.27.28-.55.53-.82.78a102.11,102.11,0,0,1-14.37,11.36,85.17,85.17,0,0,1-13.15,6.92l-1.47.59,1.77,1.61,1.47-.6a124.69,124.69,0,0,0,18.42-9.6,107.47,107.47,0,0,0,10.65-7.52c.28-.22.56-.46.83-.69C291.84,261.61,290.79,260.7,289.74,259.78Zm-82.67,23.59c-.51-.1-1-.21-1.52-.33a71.16,71.16,0,0,1-31.84-16.13l-.6-.55c-.71.56-1.42,1.11-2.14,1.64l.6.47a94.25,94.25,0,0,0,21.53,13A83,83,0,0,0,203.29,285c.59.17,1.17.33,1.76.48.77-.69,1.54-1.39,2.3-2.1ZM123,292.69c-.85,1.43-1.76,2.81-2.73,4.17A75.1,75.1,0,0,1,109.47,309q-6.28,5.73-12.55,11.49c-.23.21-.49.39-1,.8v-1.59a114,114,0,0,1,1.24-17.12c-2,.26-4,.45-6.08.59V324c2,.39,4,.72,6.06,1a97.63,97.63,0,0,0,18.06-16.51,106,106,0,0,0,9.66-13.35c.68-1.13,1.35-2.27,2-3.42C125.57,292,124.28,292.38,123,292.69Zm166.76-32.91-.16-.13c-.27.28-.55.53-.82.78a102.11,102.11,0,0,1-14.37,11.36,85.17,85.17,0,0,1-13.15,6.92l-1.47.59,1.77,1.61,1.47-.6a124.69,124.69,0,0,0,18.42-9.6,107.47,107.47,0,0,0,10.65-7.52c.28-.22.56-.46.83-.69C291.84,261.61,290.79,260.7,289.74,259.78Zm-82.67,23.59c-.51-.1-1-.21-1.52-.33a71.16,71.16,0,0,1-31.84-16.13l-.6-.55c-.71.56-1.42,1.11-2.14,1.64l.6.47a94.25,94.25,0,0,0,21.53,13A83,83,0,0,0,203.29,285c.59.17,1.17.33,1.76.48.77-.69,1.54-1.39,2.3-2.1ZM123,292.69c-.85,1.43-1.76,2.81-2.73,4.17A75.1,75.1,0,0,1,109.47,309q-6.28,5.73-12.55,11.49c-.23.21-.49.39-1,.8v-1.59a114,114,0,0,1,1.24-17.12c-2,.26-4,.45-6.08.59V324c2,.39,4,.72,6.06,1a97.63,97.63,0,0,0,18.06-16.51,106,106,0,0,0,9.66-13.35c.68-1.13,1.35-2.27,2-3.42C125.57,292,124.28,292.38,123,292.69Zm166.76-32.91-.16-.13c-.27.28-.55.53-.82.78a102.11,102.11,0,0,1-14.37,11.36,85.17,85.17,0,0,1-13.15,6.92l-1.47.59,1.77,1.61,1.47-.6a124.69,124.69,0,0,0,18.42-9.6,107.47,107.47,0,0,0,10.65-7.52c.28-.22.56-.46.83-.69C291.84,261.61,290.79,260.7,289.74,259.78Zm-82.67,23.59c-.51-.1-1-.21-1.52-.33a71.16,71.16,0,0,1-31.84-16.13l-.6-.55c-.71.56-1.42,1.11-2.14,1.64l.6.47a94.25,94.25,0,0,0,21.53,13A83,83,0,0,0,203.29,285c.59.17,1.17.33,1.76.48.77-.69,1.54-1.39,2.3-2.1ZM123,292.69c-.85,1.43-1.76,2.81-2.73,4.17A75.1,75.1,0,0,1,109.47,309q-6.28,5.73-12.55,11.49c-.23.21-.49.39-1,.8v-1.59a114,114,0,0,1,1.24-17.12c-2,.26-4,.45-6.08.59V324c2,.39,4,.72,6.06,1a97.63,97.63,0,0,0,18.06-16.51,106,106,0,0,0,9.66-13.35c.68-1.13,1.35-2.27,2-3.42C125.57,292,124.28,292.38,123,292.69Zm166.76-32.91-.16-.13c-.27.28-.55.53-.82.78a102.11,102.11,0,0,1-14.37,11.36,85.17,85.17,0,0,1-13.15,6.92l-1.47.59,1.77,1.61,1.47-.6a124.69,124.69,0,0,0,18.42-9.6,107.47,107.47,0,0,0,10.65-7.52c.28-.22.56-.46.83-.69C291.84,261.61,290.79,260.7,289.74,259.78Zm-82.67,23.59c-.51-.1-1-.21-1.52-.33a71.16,71.16,0,0,1-31.84-16.13l-.6-.55c-.71.56-1.42,1.11-2.14,1.64l.6.47a94.25,94.25,0,0,0,21.53,13A83,83,0,0,0,203.29,285c.59.17,1.17.33,1.76.48.77-.69,1.54-1.39,2.3-2.1ZM354.26,132.23l-.27,2.52c-.15,1.37-.28,2.74-.41,4.12q-1.41,14.87-1.56,29.76c0,.93,0,1.87,0,2.8a79.17,79.17,0,0,1,27.32-2V130.76A102.67,102.67,0,0,0,354.26,132.23ZM123,292.69c-.85,1.43-1.76,2.81-2.73,4.17q2.31-.84,4.61-1.79c.68-1.13,1.35-2.27,2-3.42C125.57,292,124.28,292.38,123,292.69Zm166.76-32.91-.16-.13c-.27.28-.55.53-.82.78a102.11,102.11,0,0,1-14.37,11.36,85.17,85.17,0,0,1-13.15,6.92l-1.47.59,1.77,1.61,1.47-.6a124.69,124.69,0,0,0,18.42-9.6,107.47,107.47,0,0,0,10.65-7.52c.28-.22.56-.46.83-.69C291.84,261.61,290.79,260.7,289.74,259.78Zm-82.67,23.59c-.51-.1-1-.21-1.52-.33a71.16,71.16,0,0,1-31.84-16.13l-.6-.55c-.71.56-1.42,1.11-2.14,1.64l.6.47a94.25,94.25,0,0,0,21.53,13A83,83,0,0,0,203.29,285c.59.17,1.17.33,1.76.48.77-.69,1.54-1.39,2.3-2.1Zm18.61-87.1a.77.77,0,0,0,.09.92l.09.08,0,0a.38.38,0,0,0,.13.09,1.93,1.93,0,0,0,.52.2l.39.07.52,0Zm39,41.19c-.35.24-.7.48-1.05.7A63.38,63.38,0,0,1,239.32,248a59.48,59.48,0,0,1-37.22-5.3l-1.2-.61L198.85,244l1.17.64a62.63,62.63,0,0,0,40.78,6.91,65.25,65.25,0,0,0,25.93-10.62l1-.71ZM155.9,188.13c-1.49-3.43-2.87-6.91-4.17-10.44a230.19,230.19,0,0,1-9.37-33.41q-.51-2.46-1-4.95c-2-.78-3.94-1.51-5.94-2.17.31,1.81.66,3.61,1,5.4a201.78,201.78,0,0,0,9.36,31.67c1.42,3.68,2.92,7.3,4.53,10.87,0,0,0,0,0,0l.38.19q2.68,1.56,5.31,3.23C156,188.42,156,188.28,155.9,188.13Zm162.58-43.71c-.35,1.43-.72,2.85-1.1,4.28-2.15,8-4.64,15.94-7.57,23.74a194.77,194.77,0,0,1-12.36,27c-.29.54-.6,1.08-.91,1.62q4.63-3.37,9.37-6.57c.19-.35.38-.7.56-1.05a217.39,217.39,0,0,0,10.48-23,234,234,0,0,0,8.11-24.85c.43-1.58.83-3.17,1.21-4.76C323.62,141.92,321,143.14,318.48,144.42Z"/><path d="M325.22,275.4c-3.31-7.13-6-14.54-9.05-21.78a38.29,38.29,0,0,0-3.45-6.4c-1.21-1.81-3-2-4.83-.79a11.48,11.48,0,0,0-2.49,2.22c-2,2.45-3.74,5.09-5.84,7.44a60.61,60.61,0,0,1-5.22,5.17q3.48,3,7,6A210.33,210.33,0,0,0,319.28,281a96.22,96.22,0,0,0,11.38,4.64A102.11,102.11,0,0,1,325.22,275.4Zm0,0c-3.31-7.13-6-14.54-9.05-21.78a38.29,38.29,0,0,0-3.45-6.4c-1.21-1.81-3-2-4.83-.79a11.48,11.48,0,0,0-2.49,2.22c-2,2.45-3.74,5.09-5.84,7.44a60.61,60.61,0,0,1-5.22,5.17q3.48,3,7,6A210.33,210.33,0,0,0,319.28,281a96.22,96.22,0,0,0,11.38,4.64A102.11,102.11,0,0,1,325.22,275.4Zm0,0c-3.31-7.13-6-14.54-9.05-21.78a38.29,38.29,0,0,0-3.45-6.4c-1.21-1.81-3-2-4.83-.79a11.48,11.48,0,0,0-2.49,2.22c-2,2.45-3.74,5.09-5.84,7.44a60.61,60.61,0,0,1-5.22,5.17q3.48,3,7,6A210.33,210.33,0,0,0,319.28,281a96.22,96.22,0,0,0,11.38,4.64A102.11,102.11,0,0,1,325.22,275.4Zm0,0c-3.31-7.13-6-14.54-9.05-21.78a38.29,38.29,0,0,0-3.45-6.4c-1.21-1.81-3-2-4.83-.79a11.48,11.48,0,0,0-2.49,2.22c-2,2.45-3.74,5.09-5.84,7.44a60.61,60.61,0,0,1-5.22,5.17q3.48,3,7,6A210.33,210.33,0,0,0,319.28,281a96.22,96.22,0,0,0,11.38,4.64A102.11,102.11,0,0,1,325.22,275.4Zm0,0c-3.31-7.13-6-14.54-9.05-21.78a38.29,38.29,0,0,0-3.45-6.4c-1.21-1.81-3-2-4.83-.79a11.48,11.48,0,0,0-2.49,2.22c-2,2.45-3.74,5.09-5.84,7.44a60.61,60.61,0,0,1-5.22,5.17q3.48,3,7,6A210.33,210.33,0,0,0,319.28,281a96.22,96.22,0,0,0,11.38,4.64A102.11,102.11,0,0,1,325.22,275.4Zm0,0c-3.31-7.13-6-14.54-9.05-21.78a38.29,38.29,0,0,0-3.45-6.4c-1.21-1.81-3-2-4.83-.79a11.48,11.48,0,0,0-2.49,2.22c-2,2.45-3.74,5.09-5.84,7.44a60.61,60.61,0,0,1-5.22,5.17q3.48,3,7,6A210.33,210.33,0,0,0,319.28,281a96.22,96.22,0,0,0,11.38,4.64A102.11,102.11,0,0,1,325.22,275.4Zm0,0c-3.31-7.13-6-14.54-9.05-21.78a38.29,38.29,0,0,0-3.45-6.4c-1.21-1.81-3-2-4.83-.79a11.48,11.48,0,0,0-2.49,2.22c-2,2.45-3.74,5.09-5.84,7.44a60.61,60.61,0,0,1-5.22,5.17q3.48,3,7,6A210.33,210.33,0,0,0,319.28,281a96.22,96.22,0,0,0,11.38,4.64A102.11,102.11,0,0,1,325.22,275.4Zm0,0c-3.31-7.13-6-14.54-9.05-21.78a38.29,38.29,0,0,0-3.45-6.4c-1.21-1.81-3-2-4.83-.79a11.48,11.48,0,0,0-2.49,2.22c-2,2.45-3.74,5.09-5.84,7.44a60.61,60.61,0,0,1-5.22,5.17q3.48,3,7,6A210.33,210.33,0,0,0,319.28,281a96.22,96.22,0,0,0,11.38,4.64A102.11,102.11,0,0,1,325.22,275.4Zm0,0c-3.31-7.13-6-14.54-9.05-21.78a38.29,38.29,0,0,0-3.45-6.4c-1.21-1.81-3-2-4.83-.79a11.48,11.48,0,0,0-2.49,2.22c-2,2.45-3.74,5.09-5.84,7.44a60.61,60.61,0,0,1-5.22,5.17q3.48,3,7,6A210.33,210.33,0,0,0,319.28,281a96.22,96.22,0,0,0,11.38,4.64A102.11,102.11,0,0,1,325.22,275.4Zm0,0c-3.31-7.13-6-14.54-9.05-21.78a38.29,38.29,0,0,0-3.45-6.4c-1.21-1.81-3-2-4.83-.79a11.48,11.48,0,0,0-2.49,2.22c-2,2.45-3.74,5.09-5.84,7.44a60.61,60.61,0,0,1-5.22,5.17q3.48,3,7,6A210.33,210.33,0,0,0,319.28,281a96.22,96.22,0,0,0,11.38,4.64A102.11,102.11,0,0,1,325.22,275.4Zm0,0c-3.31-7.13-6-14.54-9.05-21.78a38.29,38.29,0,0,0-3.45-6.4c-1.21-1.81-3-2-4.83-.79a11.48,11.48,0,0,0-2.49,2.22c-2,2.45-3.74,5.09-5.84,7.44a60.61,60.61,0,0,1-5.22,5.17q3.48,3,7,6A210.33,210.33,0,0,0,319.28,281a96.22,96.22,0,0,0,11.38,4.64A102.11,102.11,0,0,1,325.22,275.4Zm0,0c-3.31-7.13-6-14.54-9.05-21.78a38.29,38.29,0,0,0-3.45-6.4c-1.21-1.81-3-2-4.83-.79a11.48,11.48,0,0,0-2.49,2.22c-2,2.45-3.74,5.09-5.84,7.44a60.61,60.61,0,0,1-5.22,5.17q3.48,3,7,6A210.33,210.33,0,0,0,319.28,281a96.22,96.22,0,0,0,11.38,4.64A102.11,102.11,0,0,1,325.22,275.4Zm0,0c-3.31-7.13-6-14.54-9.05-21.78a38.29,38.29,0,0,0-3.45-6.4c-1.21-1.81-3-2-4.83-.79a11.48,11.48,0,0,0-2.49,2.22c-2,2.45-3.74,5.09-5.84,7.44a60.61,60.61,0,0,1-5.22,5.17q3.48,3,7,6A210.33,210.33,0,0,0,319.28,281a96.22,96.22,0,0,0,11.38,4.64A102.11,102.11,0,0,1,325.22,275.4Zm0,0c-3.31-7.13-6-14.54-9.05-21.78a38.29,38.29,0,0,0-3.45-6.4c-1.21-1.81-3-2-4.83-.79a11.48,11.48,0,0,0-2.49,2.22c-2,2.45-3.74,5.09-5.84,7.44a60.61,60.61,0,0,1-5.22,5.17q3.48,3,7,6A210.33,210.33,0,0,0,319.28,281a96.22,96.22,0,0,0,11.38,4.64A102.11,102.11,0,0,1,325.22,275.4Zm0,0c-3.31-7.13-6-14.54-9.05-21.78a38.29,38.29,0,0,0-3.45-6.4c-1.21-1.81-3-2-4.83-.79a11.48,11.48,0,0,0-2.49,2.22c-2,2.45-3.74,5.09-5.84,7.44a60.61,60.61,0,0,1-5.22,5.17q3.48,3,7,6A210.33,210.33,0,0,0,319.28,281a96.22,96.22,0,0,0,11.38,4.64A102.11,102.11,0,0,1,325.22,275.4Zm0,0c-3.31-7.13-6-14.54-9.05-21.78a38.29,38.29,0,0,0-3.45-6.4c-1.21-1.81-3-2-4.83-.79a11.48,11.48,0,0,0-2.49,2.22c-2,2.45-3.74,5.09-5.84,7.44a60.61,60.61,0,0,1-5.22,5.17q3.48,3,7,6A210.33,210.33,0,0,0,319.28,281a96.22,96.22,0,0,0,11.38,4.64A102.11,102.11,0,0,1,325.22,275.4Zm0,0c-3.31-7.13-6-14.54-9.05-21.78a38.29,38.29,0,0,0-3.45-6.4c-1.21-1.81-3-2-4.83-.79a11.48,11.48,0,0,0-2.49,2.22c-2,2.45-3.74,5.09-5.84,7.44a60.61,60.61,0,0,1-5.22,5.17q3.48,3,7,6A210.33,210.33,0,0,0,319.28,281a96.22,96.22,0,0,0,11.38,4.64A102.11,102.11,0,0,1,325.22,275.4Zm0,0c-3.31-7.13-6-14.54-9.05-21.78a38.29,38.29,0,0,0-3.45-6.4c-1.21-1.81-3-2-4.83-.79a11.48,11.48,0,0,0-2.49,2.22c-2,2.45-3.74,5.09-5.84,7.44a60.61,60.61,0,0,1-5.22,5.17q3.48,3,7,6A210.33,210.33,0,0,0,319.28,281a96.22,96.22,0,0,0,11.38,4.64A102.11,102.11,0,0,1,325.22,275.4Zm0,0c-3.31-7.13-6-14.54-9.05-21.78a38.29,38.29,0,0,0-3.45-6.4c-1.21-1.81-3-2-4.83-.79a11.48,11.48,0,0,0-2.49,2.22c-2,2.45-3.74,5.09-5.84,7.44a60.61,60.61,0,0,1-5.22,5.17q3.48,3,7,6A210.33,210.33,0,0,0,319.28,281a96.22,96.22,0,0,0,11.38,4.64A102.11,102.11,0,0,1,325.22,275.4Zm0,0c-3.31-7.13-6-14.54-9.05-21.78a38.29,38.29,0,0,0-3.45-6.4c-1.21-1.81-3-2-4.83-.79a11.48,11.48,0,0,0-2.49,2.22c-2,2.45-3.74,5.09-5.84,7.44a60.61,60.61,0,0,1-5.22,5.17q3.48,3,7,6A210.33,210.33,0,0,0,319.28,281a96.22,96.22,0,0,0,11.38,4.64A102.11,102.11,0,0,1,325.22,275.4Zm0,0c-3.31-7.13-6-14.54-9.05-21.78a38.29,38.29,0,0,0-3.45-6.4c-1.21-1.81-3-2-4.83-.79a11.48,11.48,0,0,0-2.49,2.22c-2,2.45-3.74,5.09-5.84,7.44a60.61,60.61,0,0,1-5.22,5.17q3.48,3,7,6A210.33,210.33,0,0,0,319.28,281a96.22,96.22,0,0,0,11.38,4.64A102.11,102.11,0,0,1,325.22,275.4Zm48.9,49.22c0-.37,0-.75-.06-1.12a1.61,1.61,0,0,0-1.16-1.57,94.4,94.4,0,0,1-19.37-11.15,88.62,88.62,0,0,1-20.46-21.47c-.41-.58-.8-1.17-1.16-1.76-3.12-1.28-6.16-2.72-9.15-4.3-1.17-.75-2.33-1.51-3.48-2.3-1.66-.79-3.29-1.63-4.91-2.52l-.08-.05a176.7,176.7,0,0,1-20.42-15.06l-1-.82c-.27.23-.55.47-.83.69a107.47,107.47,0,0,1-10.65,7.52,124.69,124.69,0,0,1-18.42,9.6l-1.47.6c6.74,6.14,13.52,12.24,20.4,18.22,27,23.49,57.95,35.22,92.63,34.12,0-.3,0-.59,0-.89C374.43,329.78,374.25,327.2,374.12,324.62Zm-48.9-49.22c-3.31-7.13-6-14.54-9.05-21.78a38.29,38.29,0,0,0-3.45-6.4c-1.21-1.81-3-2-4.83-.79a11.48,11.48,0,0,0-2.49,2.22c-2,2.45-3.74,5.09-5.84,7.44a60.61,60.61,0,0,1-5.22,5.17q3.48,3,7,6A210.33,210.33,0,0,0,319.28,281a96.22,96.22,0,0,0,11.38,4.64A102.11,102.11,0,0,1,325.22,275.4Zm0,0c-3.31-7.13-6-14.54-9.05-21.78a38.29,38.29,0,0,0-3.45-6.4c-1.21-1.81-3-2-4.83-.79a11.48,11.48,0,0,0-2.49,2.22c-2,2.45-3.74,5.09-5.84,7.44a60.61,60.61,0,0,1-5.22,5.17q3.48,3,7,6A210.33,210.33,0,0,0,319.28,281a96.22,96.22,0,0,0,11.38,4.64A102.11,102.11,0,0,1,325.22,275.4Zm0,0c-3.31-7.13-6-14.54-9.05-21.78a38.29,38.29,0,0,0-3.45-6.4c-1.21-1.81-3-2-4.83-.79a11.48,11.48,0,0,0-2.49,2.22c-2,2.45-3.74,5.09-5.84,7.44a60.61,60.61,0,0,1-5.22,5.17q3.48,3,7,6A210.33,210.33,0,0,0,319.28,281a96.22,96.22,0,0,0,11.38,4.64A102.11,102.11,0,0,1,325.22,275.4Zm0,0c-3.31-7.13-6-14.54-9.05-21.78a38.29,38.29,0,0,0-3.45-6.4c-1.21-1.81-3-2-4.83-.79a11.48,11.48,0,0,0-2.49,2.22c-2,2.45-3.74,5.09-5.84,7.44a60.61,60.61,0,0,1-5.22,5.17q3.48,3,7,6A210.33,210.33,0,0,0,319.28,281a96.22,96.22,0,0,0,11.38,4.64A102.11,102.11,0,0,1,325.22,275.4Zm0,0c-3.31-7.13-6-14.54-9.05-21.78a38.29,38.29,0,0,0-3.45-6.4c-1.21-1.81-3-2-4.83-.79a11.48,11.48,0,0,0-2.49,2.22c-2,2.45-3.74,5.09-5.84,7.44a60.61,60.61,0,0,1-5.22,5.17q3.48,3,7,6A210.33,210.33,0,0,0,319.28,281a96.22,96.22,0,0,0,11.38,4.64A102.11,102.11,0,0,1,325.22,275.4Zm0,0c-3.31-7.13-6-14.54-9.05-21.78a38.29,38.29,0,0,0-3.45-6.4c-1.21-1.81-3-2-4.83-.79a11.48,11.48,0,0,0-2.49,2.22c-2,2.45-3.74,5.09-5.84,7.44a60.61,60.61,0,0,1-5.22,5.17q3.48,3,7,6A210.33,210.33,0,0,0,319.28,281a96.22,96.22,0,0,0,11.38,4.64A102.11,102.11,0,0,1,325.22,275.4Zm0,0c-3.31-7.13-6-14.54-9.05-21.78a38.29,38.29,0,0,0-3.45-6.4c-1.21-1.81-3-2-4.83-.79a11.48,11.48,0,0,0-2.49,2.22c-2,2.45-3.74,5.09-5.84,7.44a60.61,60.61,0,0,1-5.22,5.17q3.48,3,7,6A210.33,210.33,0,0,0,319.28,281a96.22,96.22,0,0,0,11.38,4.64A102.11,102.11,0,0,1,325.22,275.4Zm0,0c-3.31-7.13-6-14.54-9.05-21.78a38.29,38.29,0,0,0-3.45-6.4c-1.21-1.81-3-2-4.83-.79a11.48,11.48,0,0,0-2.49,2.22c-2,2.45-3.74,5.09-5.84,7.44a60.61,60.61,0,0,1-5.22,5.17q3.48,3,7,6A210.33,210.33,0,0,0,319.28,281a96.22,96.22,0,0,0,11.38,4.64A102.11,102.11,0,0,1,325.22,275.4Zm0,0c-3.31-7.13-6-14.54-9.05-21.78a38.29,38.29,0,0,0-3.45-6.4c-1.21-1.81-3-2-4.83-.79a11.48,11.48,0,0,0-2.49,2.22c-2,2.45-3.74,5.09-5.84,7.44a60.61,60.61,0,0,1-5.22,5.17q3.48,3,7,6A210.33,210.33,0,0,0,319.28,281a96.22,96.22,0,0,0,11.38,4.64A102.11,102.11,0,0,1,325.22,275.4Zm0,0c-3.31-7.13-6-14.54-9.05-21.78a38.29,38.29,0,0,0-3.45-6.4c-1.21-1.81-3-2-4.83-.79a11.48,11.48,0,0,0-2.49,2.22c-2,2.45-3.74,5.09-5.84,7.44a60.61,60.61,0,0,1-5.22,5.17q3.48,3,7,6A210.33,210.33,0,0,0,319.28,281a96.22,96.22,0,0,0,11.38,4.64A102.11,102.11,0,0,1,325.22,275.4Zm0,0c-3.31-7.13-6-14.54-9.05-21.78a38.29,38.29,0,0,0-3.45-6.4c-1.21-1.81-3-2-4.83-.79a11.48,11.48,0,0,0-2.49,2.22c-2,2.45-3.74,5.09-5.84,7.44a60.61,60.61,0,0,1-5.22,5.17q3.48,3,7,6A210.33,210.33,0,0,0,319.28,281a96.22,96.22,0,0,0,11.38,4.64A102.11,102.11,0,0,1,325.22,275.4Zm0,0c-3.31-7.13-6-14.54-9.05-21.78a38.29,38.29,0,0,0-3.45-6.4c-1.21-1.81-3-2-4.83-.79a11.48,11.48,0,0,0-2.49,2.22c-2,2.45-3.74,5.09-5.84,7.44a60.61,60.61,0,0,1-5.22,5.17q3.48,3,7,6A210.33,210.33,0,0,0,319.28,281a96.22,96.22,0,0,0,11.38,4.64A102.11,102.11,0,0,1,325.22,275.4Zm0,0c-3.31-7.13-6-14.54-9.05-21.78a38.29,38.29,0,0,0-3.45-6.4c-1.21-1.81-3-2-4.83-.79a11.48,11.48,0,0,0-2.49,2.22c-2,2.45-3.74,5.09-5.84,7.44a60.61,60.61,0,0,1-5.22,5.17q3.48,3,7,6A210.33,210.33,0,0,0,319.28,281a96.22,96.22,0,0,0,11.38,4.64A102.11,102.11,0,0,1,325.22,275.4Zm0,0c-3.31-7.13-6-14.54-9.05-21.78a38.29,38.29,0,0,0-3.45-6.4c-1.21-1.81-3-2-4.83-.79a11.48,11.48,0,0,0-2.49,2.22c-2,2.45-3.74,5.09-5.84,7.44a60.61,60.61,0,0,1-5.22,5.17q3.48,3,7,6A210.33,210.33,0,0,0,319.28,281a96.22,96.22,0,0,0,11.38,4.64A102.11,102.11,0,0,1,325.22,275.4Zm0,0c-3.31-7.13-6-14.54-9.05-21.78a38.29,38.29,0,0,0-3.45-6.4c-1.21-1.81-3-2-4.83-.79a11.48,11.48,0,0,0-2.49,2.22c-2,2.45-3.74,5.09-5.84,7.44a60.61,60.61,0,0,1-5.22,5.17q3.48,3,7,6A210.33,210.33,0,0,0,319.28,281a96.22,96.22,0,0,0,11.38,4.64A102.11,102.11,0,0,1,325.22,275.4Zm0,0c-3.31-7.13-6-14.54-9.05-21.78a38.29,38.29,0,0,0-3.45-6.4c-1.21-1.81-3-2-4.83-.79a11.48,11.48,0,0,0-2.49,2.22c-2,2.45-3.74,5.09-5.84,7.44a60.61,60.61,0,0,1-5.22,5.17q3.48,3,7,6A210.33,210.33,0,0,0,319.28,281a96.22,96.22,0,0,0,11.38,4.64A102.11,102.11,0,0,1,325.22,275.4Zm0,0c-3.31-7.13-6-14.54-9.05-21.78a38.29,38.29,0,0,0-3.45-6.4c-1.21-1.81-3-2-4.83-.79a11.48,11.48,0,0,0-2.49,2.22c-2,2.45-3.74,5.09-5.84,7.44a60.61,60.61,0,0,1-5.22,5.17q3.48,3,7,6A210.33,210.33,0,0,0,319.28,281a96.22,96.22,0,0,0,11.38,4.64A102.11,102.11,0,0,1,325.22,275.4ZM158.89,256.85a80.92,80.92,0,0,0-7.28-7.07c-2.57-2.09-5.19-1.6-7,1.19a43.81,43.81,0,0,0-3.6,7.14c-2.89,7.23-5.47,14.58-8.46,21.76q-1.89,4.53-4.14,8.84a93.9,93.9,0,0,0,22.74-7.92l.16-.08c6.39-4.22,12.52-8.82,18.47-13.66A123.28,123.28,0,0,1,158.89,256.85Zm0,0a80.92,80.92,0,0,0-7.28-7.07c-2.57-2.09-5.19-1.6-7,1.19a43.81,43.81,0,0,0-3.6,7.14c-2.89,7.23-5.47,14.58-8.46,21.76q-1.89,4.53-4.14,8.84a93.9,93.9,0,0,0,22.74-7.92l.16-.08c6.39-4.22,12.52-8.82,18.47-13.66A123.28,123.28,0,0,1,158.89,256.85ZM203.29,285a83,83,0,0,1-10.19-3.61,94.25,94.25,0,0,1-21.53-13L171,268c-4.74,3.61-9.63,7-14.71,10.15-1.57,1-3.16,1.91-4.77,2.82-1.17.67-2.36,1.32-3.56,1.95s-2.56,1.35-3.87,2a106,106,0,0,1-17.2,6.74c-.65,1.15-1.32,2.29-2,3.42a106,106,0,0,1-9.66,13.35,97.63,97.63,0,0,1-18.06,16.51l0,0c-.59.42-1.22.71-1.11,1.74q.34,3.53.8,7c23.85.84,47.19-5.65,69.74-18.72,14.07-8.17,26.51-18.57,38.51-29.48C204.46,285.37,203.88,285.21,203.29,285Zm-44.4-28.19a80.92,80.92,0,0,0-7.28-7.07c-2.57-2.09-5.19-1.6-7,1.19a43.81,43.81,0,0,0-3.6,7.14c-2.89,7.23-5.47,14.58-8.46,21.76q-1.89,4.53-4.14,8.84a93.9,93.9,0,0,0,22.74-7.92l.16-.08c6.39-4.22,12.52-8.82,18.47-13.66A123.28,123.28,0,0,1,158.89,256.85Zm0,0a80.92,80.92,0,0,0-7.28-7.07c-2.57-2.09-5.19-1.6-7,1.19a43.81,43.81,0,0,0-3.6,7.14c-2.89,7.23-5.47,14.58-8.46,21.76q-1.89,4.53-4.14,8.84a93.9,93.9,0,0,0,22.74-7.92l.16-.08c6.39-4.22,12.52-8.82,18.47-13.66A123.28,123.28,0,0,1,158.89,256.85ZM325.22,275.4c-3.31-7.13-6-14.54-9.05-21.78a38.29,38.29,0,0,0-3.45-6.4c-1.21-1.81-3-2-4.83-.79a11.48,11.48,0,0,0-2.49,2.22c-2,2.45-3.74,5.09-5.84,7.44a60.61,60.61,0,0,1-5.22,5.17q3.48,3,7,6A210.33,210.33,0,0,0,319.28,281a96.22,96.22,0,0,0,11.38,4.64A102.11,102.11,0,0,1,325.22,275.4Zm0,0c-3.31-7.13-6-14.54-9.05-21.78a38.29,38.29,0,0,0-3.45-6.4c-1.21-1.81-3-2-4.83-.79a11.48,11.48,0,0,0-2.49,2.22c-2,2.45-3.74,5.09-5.84,7.44a60.61,60.61,0,0,1-5.22,5.17q3.48,3,7,6A210.33,210.33,0,0,0,319.28,281a96.22,96.22,0,0,0,11.38,4.64A102.11,102.11,0,0,1,325.22,275.4Zm0,0c-3.31-7.13-6-14.54-9.05-21.78a38.29,38.29,0,0,0-3.45-6.4c-1.21-1.81-3-2-4.83-.79a11.48,11.48,0,0,0-2.49,2.22c-2,2.45-3.74,5.09-5.84,7.44a60.61,60.61,0,0,1-5.22,5.17q3.48,3,7,6A210.33,210.33,0,0,0,319.28,281a96.22,96.22,0,0,0,11.38,4.64A102.11,102.11,0,0,1,325.22,275.4Zm0,0c-3.31-7.13-6-14.54-9.05-21.78a38.29,38.29,0,0,0-3.45-6.4c-1.21-1.81-3-2-4.83-.79a11.48,11.48,0,0,0-2.49,2.22c-2,2.45-3.74,5.09-5.84,7.44a60.61,60.61,0,0,1-5.22,5.17q3.48,3,7,6A210.33,210.33,0,0,0,319.28,281a96.22,96.22,0,0,0,11.38,4.64A102.11,102.11,0,0,1,325.22,275.4Z"/><path d="M209.63,231q-5.35,5-10.65,10-2.78-1.53-5.48-3.36c-10.73-7.25-19-16.87-26-27.67a149,149,0,0,1-10.71-19.85c8.11,5.65,16,11.67,23.86,17.67C190.33,215.22,199.66,223,209.63,231Z"/><path d="M318.48,144.42c-.35,1.43-.72,2.85-1.1,4.28-2.15,8-4.64,15.94-7.57,23.74a194.77,194.77,0,0,1-12.36,27c-.29.54-.6,1.08-.91,1.62-13.05,9.45-25.63,19.82-38.42,30.47q3.33,3,6.6,5.93c-.35.24-.7.48-1.05.7A63.38,63.38,0,0,1,239.32,248a59.48,59.48,0,0,1-37.22-5.3l-1.2-.61q5.79-5.43,11.61-10.92c-8.84-7.09-17.12-14-25.7-20.57-10-7.65-20.08-15.33-30.73-22-.05-.14-.12-.28-.18-.43-1.49-3.43-2.87-6.91-4.17-10.44a230.19,230.19,0,0,1-9.37-33.41q-.51-2.46-1-4.95a144.35,144.35,0,0,1,35.82,21c15.89,12.46,31.5,25.27,47.41,38.23l.19.16q5.66,4.6,11.37,9.24c9.27-8.19,19-17.21,29.2-25.7C282.15,168.33,299,154.27,318.48,144.42Z"/><path d="M229.43,39.75l-.5,0c-1.74.19-3.33.32-4.89.58-8.75,1.42-14.47,7.62-15.39,16.39-1.41,13.57-1.12,27.16-.55,40.75.14,3.43.54,6.86.6,10.3.06,3.9,2.05,6.41,5.28,8.2a36.42,36.42,0,0,0,11.18,3.79c1.83.34,1.84.3,1.84,2.13q0,35.63,0,71.27a2.9,2.9,0,0,1-.81,2.36,2.29,2.29,0,0,0-.52.7c-18.76-15.28-37.12-30.38-55.83-45.05a172.4,172.4,0,0,0-29.66-18.94,304,304,0,0,1-3.38-59.23A289.92,289.92,0,0,1,140,39.39c.63-4.06,1.4-8.11,2.16-12.15a2.73,2.73,0,0,1,.84-1.46,75.89,75.89,0,0,1,17.72-10.87C173.27,9.19,186.48,5.64,200,3.18A168.28,168.28,0,0,1,225.11.25c1.2,0,2.4,0,3.6.06a.54.54,0,0,1,.21,0c-.12,4-.4,7.84-.31,11.69.14,5.84.59,11.67.8,17.5C229.53,32.94,229.43,36.33,229.43,39.75Z"/><path d="M294.6,204.36c-6.52,10.72-14.15,20.52-23.88,28.57q-2.12,1.75-4.3,3.33L261,231.45C272.25,222.12,283.31,213,294.6,204.36Z"/><path d="M328.39,69.44q-.43,17.28-2.5,34.45c-1.21,10.08-2.83,20.1-5,30-.31,1.44-.62,2.87-.95,4.3-18.19,10.6-34.52,24.2-50.74,37.72-11.49,9.57-22.47,19.74-32.92,29q-4.45-3.6-8.87-7.21a9,9,0,0,0,5.13-1.19c1.17-.67,1.22-1.66,0-2.28-1-.52-1-1.17-1-2.12q.93-27,1.77-54c.19-5.72.3-11.44.45-17.15,0-.24,0-.47.06-.61,2.39-.61,4.75-1.06,7-1.85,4.67-1.63,8.52-4.34,10.15-9.26a18.13,18.13,0,0,0,.83-5.53c.07-11.2,0-22.4,0-33.6,0-6.2-.11-12.4.06-18.59a6.78,6.78,0,0,0-3.4-6.28c-3.59-2.36-7.64-3.59-11.74-4.67l-.74-.19-2.31-.56c-.08-4-.35-7.94-.21-11.88.31-8.79.84-17.57,1.24-26.35,0-1,.41-1.31,1.44-1.35a195.77,195.77,0,0,1,24.82.23A136.68,136.68,0,0,1,289.11,6a216.71,216.71,0,0,1,36.3,15.23A1.93,1.93,0,0,1,326.59,23q1,9.18,1.46,18.37Q328.77,55.37,328.39,69.44Z"/><path d="M257.32,280.22a80.79,80.79,0,0,1-13.64,3.53,99.56,99.56,0,0,1-33.39.21l4.38-4.08c6.94-6.47,13.79-13,20.83-19.67,1.71,1.61,3,2.91,4.42,4.15Q248.65,272.25,257.32,280.22Z"/><path d="M113.91,122.35c-.27-6.26-.2-12.56.11-18.82a210.55,210.55,0,0,1,4.27-32.3,137.1,137.1,0,0,1,9-29.15c2.6-5.74,5.72-11.15,10.27-15.62.33-.32.7-.62,1.33-1.17-.41,2.6-.78,4.85-1.13,7.11-1.9,12.2-4.22,24.35-4.57,36.74-.12,4.23.12,8.47.12,12.71,0,9.72,0,19.44-.13,29.16a131.54,131.54,0,0,0,1.15,18.51,130.94,130.94,0,0,0-20.37-7.08A.28.28,0,0,1,113.91,122.35Z"/><path d="M150.38,185.1q-4-2.34-8.15-4.44l0,0c-3-1.49-6-2.89-9-4.17A101.14,101.14,0,0,0,116,171c0-1.07.07-2.13.09-3.2.21-8.88.06-17.77-.54-26.65,0-.6-.09-1.19-.14-1.79-.19-2.33-.44-4.66-.68-7a110.75,110.75,0,0,1,20.74,4.84c.31,1.81.66,3.61,1,5.4a201.78,201.78,0,0,0,9.36,31.67C147.27,177.91,148.77,181.53,150.38,185.1Z"/><path d="M123,292.69c-.85,1.43-1.76,2.81-2.73,4.17A75.1,75.1,0,0,1,109.47,309q-6.28,5.73-12.55,11.49c-.23.21-.49.39-1,.8v-1.59a114,114,0,0,1,1.24-17.12c.15-1.14.34-2.28.53-3.41.22-1.3.45-2.6.68-3.9A88.32,88.32,0,0,0,123,292.69Z"/><path d="M197,242.92c-8.23,7.71-16.47,15.29-25,22.38l-.2-.18c-5.53-5.22-10.52-11-15.8-16.53a36.72,36.72,0,0,0-4-3.63c-3.06-2.35-5.68-2-7.9,1.14a35.2,35.2,0,0,0-3.66,6.57q-6.37,15.06-12.53,30.21a68.33,68.33,0,0,1-3,6.48,80.42,80.42,0,0,1-25.49,0c1.81-10.23,3.7-20.46,5.51-30.69,2-11.57,4.16-23.13,6-34.73q3.2-20.33,4.52-40.87.28-4.41.47-8.81a85.62,85.62,0,0,1,25.24,6.54c1.62.68,3.23,1.39,4.81,2.13,1.64,1,3.28,2.09,4.9,3.17a160.71,160.71,0,0,0,20.26,33.49,98.56,98.56,0,0,0,23.22,21.65C195.19,241.82,196.09,242.38,197,242.92Z"/><path d="M289.58,259.65c-.27.28-.55.53-.82.78a102.11,102.11,0,0,1-14.37,11.36,85.17,85.17,0,0,1-13.15,6.92l-1.47.59c-6.8-6.18-13.57-12.4-20.39-18.57-1.22-1.1-2.4-2.25-3.92-3.68-6.24,5.89-12.32,11.71-18.48,17.45-3.2,3-6.4,6-9.63,8.92l-.28-.05c-.51-.1-1-.21-1.52-.33a71.16,71.16,0,0,1-31.84-16.13l-.6-.55c8.92-6.93,17.36-14.54,25.74-22.37l1.17.64a62.63,62.63,0,0,0,40.78,6.91,65.25,65.25,0,0,0,25.93-10.62l1-.71C275.09,246.82,282.26,253.34,289.58,259.65Z"/><path d="M370.69,289.53a91,91,0,0,1-36.09-2.72,61.48,61.48,0,0,1-4.56-8.57c-3.41-7.83-6.42-15.83-9.72-23.71a72.88,72.88,0,0,0-4.74-9.78c-2.2-3.61-5.12-4-8.69-1.73a7,7,0,0,0-1.07.78c-3.28,3.15-6.62,6.24-9.79,9.5-1.66,1.7-3.34,3.39-5,5C283.81,252,276.7,245.55,269.46,239l.16-.11c11.27-8.26,20.17-18.7,27.84-30.26q3.81-5.74,7.14-11.74c7.39-5.34,14.91-10.43,22.67-15.17A83.24,83.24,0,0,1,352,174.47q0,7.28.41,14.55.84,16.13,3.28,32.08c2.08,13.73,5,27.26,8.35,40.73C366.32,271.05,368.59,280.27,370.69,289.53Z"/><path d="M354.26,132.23l-.27,2.52c-.15,1.37-.28,2.74-.41,4.12q-1.41,14.87-1.56,29.76c0,.93,0,1.87,0,2.8a98.61,98.61,0,0,0-20.36,7.68c-1.47.86-2.92,1.73-4.37,2.62-1.49.68-3,1.41-4.43,2.17-5.78,3.31-11.41,6.86-16.93,10.59.19-.35.38-.7.56-1.05a217.39,217.39,0,0,0,10.48-23,234,234,0,0,0,8.11-24.85c.43-1.58.83-3.17,1.21-4.76l.75-.32A128.74,128.74,0,0,1,354.26,132.23Z"/><path d="M355.73,117.69c-.11,1.72-.26,3.45-.43,5.17a156.2,156.2,0,0,0-16.59,5.94c-3.71,1.56-7.33,3.27-10.88,5.1a169.61,169.61,0,0,0,3.4-33.07c.1-15,0-29.91-.86-44.86q-.42-7.36-.77-14.72c-.27-5.56-.52-11.11-.8-16.67,0-.46,0-.93,0-1.61a13.79,13.79,0,0,1,5.58,4.58,62.55,62.55,0,0,1,8.21,14.16A155.7,155.7,0,0,1,353,76,167.32,167.32,0,0,1,355.73,117.69Z"/><path d="M374,316.87c0,.63-.06,1.25-.1,2.13-1.18-.64-2.18-1.16-3.17-1.71A145,145,0,0,1,347.89,302a67.06,67.06,0,0,1-9.72-10.09c-.69-.86-1.34-1.75-2-2.65a96,96,0,0,0,27.11,5.71c2.89.18,5.76.26,8.6.21.47,2.38.88,4.76,1.21,7.16A89.48,89.48,0,0,1,374,316.87Z"/><path class="cls-2" d="M247.39,102.57a10.23,10.23,0,0,1-4.31,9c-7.05,5.13-14.78,6.52-23,3.3a11.33,11.33,0,0,1-7.53-10.27c-.42-6.93-.53-13.9-.41-20.85.15-7.87.63-15.74,1.11-23.6a30.53,30.53,0,0,1,1.24-7.76c1.48-4.38,4.89-7,9.19-8.44a24.12,24.12,0,0,1,5.55-1.17,20.35,20.35,0,0,1,6.18.39,21,21,0,0,1,5.45,2.07,11.55,11.55,0,0,1,6.49,10.91c-.06,7.8,0,15.6,0,23.39S247.25,94.9,247.39,102.57Z"/><path d="M373.56,345.57a112.94,112.94,0,0,1-4.41,19.08c-6.35,19.65-16.88,36.88-30.36,52.4a163.9,163.9,0,0,1-37.17,31.85,125.11,125.11,0,0,1-38.31,16.26,91.72,91.72,0,0,1-32.41,1.57,207.78,207.78,0,0,1-39.17-8.51c-18.81-6.23-35.89-15.52-50.54-29a127.13,127.13,0,0,1-28.34-38.44,166.29,166.29,0,0,1-12.76-37.58q-.8-3.66-1.45-7.33c20.14-2.28,39.91-9.18,59.17-20.34,18.48-10.72,34.44-24.87,50.07-39.35a81.79,81.79,0,0,0,22.91,1.73,98.82,98.82,0,0,0,28.32-6.07c9.52,8.68,19.06,17.34,28.78,25.8C313.39,329.82,342,342.69,373.56,345.57Z"/><path class="cls-1" d="M267.78,240.21l-1,.71c7.35,6.66,14.59,13.2,22,19.51.27-.25.55-.5.82-.78C282.26,253.34,275.09,246.82,267.78,240.21Zm0,0-1,.71c7.35,6.66,14.59,13.2,22,19.51.27-.25.55-.5.82-.78C282.26,253.34,275.09,246.82,267.78,240.21Zm0,0-1,.71c7.35,6.66,14.59,13.2,22,19.51.27-.25.55-.5.82-.78C282.26,253.34,275.09,246.82,267.78,240.21ZM97.16,302.55a114,114,0,0,0-1.24,17.12v1.59c.51-.41.77-.59,1-.8q6.28-5.74,12.55-11.49a75.1,75.1,0,0,0,10.78-12.11A106,106,0,0,1,97.16,302.55Zm170.62-62.34-1,.71c7.35,6.66,14.59,13.2,22,19.51.27-.25.55-.5.82-.78C282.26,253.34,275.09,246.82,267.78,240.21ZM97.16,302.55a114,114,0,0,0-1.24,17.12v1.59c.51-.41.77-.59,1-.8q6.28-5.74,12.55-11.49a75.1,75.1,0,0,0,10.78-12.11A106,106,0,0,1,97.16,302.55Zm170.62-62.34-1,.71c7.35,6.66,14.59,13.2,22,19.51.27-.25.55-.5.82-.78C282.26,253.34,275.09,246.82,267.78,240.21ZM97.16,302.55a114,114,0,0,0-1.24,17.12v1.59c.51-.41.77-.59,1-.8q6.28-5.74,12.55-11.49a75.1,75.1,0,0,0,10.78-12.11A106,106,0,0,1,97.16,302.55Zm170.62-62.34-1,.71c7.35,6.66,14.59,13.2,22,19.51.27-.25.55-.5.82-.78C282.26,253.34,275.09,246.82,267.78,240.21ZM97.16,302.55a114,114,0,0,0-1.24,17.12v1.59c.51-.41.77-.59,1-.8q6.28-5.74,12.55-11.49a75.1,75.1,0,0,0,10.78-12.11A106,106,0,0,1,97.16,302.55Zm170.62-62.34-1,.71c7.35,6.66,14.59,13.2,22,19.51.27-.25.55-.5.82-.78C282.26,253.34,275.09,246.82,267.78,240.21ZM97.16,302.55a114,114,0,0,0-1.24,17.12v1.59c.51-.41.77-.59,1-.8q6.28-5.74,12.55-11.49a75.1,75.1,0,0,0,10.78-12.11A106,106,0,0,1,97.16,302.55Zm170.62-62.34-1,.71c7.35,6.66,14.59,13.2,22,19.51.27-.25.55-.5.82-.78C282.26,253.34,275.09,246.82,267.78,240.21ZM97.16,302.55a114,114,0,0,0-1.24,17.12v1.59c.51-.41.77-.59,1-.8q6.28-5.74,12.55-11.49a75.1,75.1,0,0,0,10.78-12.11A106,106,0,0,1,97.16,302.55Zm170.62-62.34-1,.71c7.35,6.66,14.59,13.2,22,19.51.27-.25.55-.5.82-.78C282.26,253.34,275.09,246.82,267.78,240.21ZM97.16,302.55a114,114,0,0,0-1.24,17.12v1.59c.51-.41.77-.59,1-.8q6.28-5.74,12.55-11.49a75.1,75.1,0,0,0,10.78-12.11A106,106,0,0,1,97.16,302.55Zm170.62-62.34-1,.71c7.35,6.66,14.59,13.2,22,19.51.27-.25.55-.5.82-.78C282.26,253.34,275.09,246.82,267.78,240.21ZM97.16,302.55a114,114,0,0,0-1.24,17.12v1.59c.51-.41.77-.59,1-.8q6.28-5.74,12.55-11.49a75.1,75.1,0,0,0,10.78-12.11A106,106,0,0,1,97.16,302.55Zm170.62-62.34-1,.71c7.35,6.66,14.59,13.2,22,19.51.27-.25.55-.5.82-.78C282.26,253.34,275.09,246.82,267.78,240.21ZM97.16,302.55a114,114,0,0,0-1.24,17.12v1.59c.51-.41.77-.59,1-.8q6.28-5.74,12.55-11.49a75.1,75.1,0,0,0,10.78-12.11A106,106,0,0,1,97.16,302.55Zm170.62-62.34-1,.71c7.35,6.66,14.59,13.2,22,19.51.27-.25.55-.5.82-.78C282.26,253.34,275.09,246.82,267.78,240.21ZM97.16,302.55a114,114,0,0,0-1.24,17.12v1.59c.51-.41.77-.59,1-.8q6.28-5.74,12.55-11.49a75.1,75.1,0,0,0,10.78-12.11A106,106,0,0,1,97.16,302.55Zm170.62-62.34-1,.71c7.35,6.66,14.59,13.2,22,19.51.27-.25.55-.5.82-.78C282.26,253.34,275.09,246.82,267.78,240.21ZM97.16,302.55a114,114,0,0,0-1.24,17.12v1.59c.51-.41.77-.59,1-.8q6.28-5.74,12.55-11.49a75.1,75.1,0,0,0,10.78-12.11A106,106,0,0,1,97.16,302.55Zm170.62-62.34-1,.71c7.35,6.66,14.59,13.2,22,19.51.27-.25.55-.5.82-.78C282.26,253.34,275.09,246.82,267.78,240.21ZM97.16,302.55a114,114,0,0,0-1.24,17.12v1.59c.51-.41.77-.59,1-.8q6.28-5.74,12.55-11.49a75.1,75.1,0,0,0,10.78-12.11A106,106,0,0,1,97.16,302.55Zm0,0a114,114,0,0,0-1.24,17.12v1.59c.51-.41.77-.59,1-.8q6.28-5.74,12.55-11.49a75.1,75.1,0,0,0,10.78-12.11A106,106,0,0,1,97.16,302.55Zm0,0a114,114,0,0,0-1.24,17.12v1.59c.51-.41.77-.59,1-.8q6.28-5.74,12.55-11.49a75.1,75.1,0,0,0,10.78-12.11A106,106,0,0,1,97.16,302.55Zm0,0a114,114,0,0,0-1.24,17.12v1.59c.51-.41.77-.59,1-.8q6.28-5.74,12.55-11.49a75.1,75.1,0,0,0,10.78-12.11A106,106,0,0,1,97.16,302.55ZM225.68,196.27a.77.77,0,0,0,.09.92l.09.08,0,0a.38.38,0,0,0,.13.09,1.93,1.93,0,0,0,.52.2l.39.07.52,0ZM97.16,302.55a114,114,0,0,0-1.24,17.12v1.59c.51-.41.77-.59,1-.8q6.28-5.74,12.55-11.49a75.1,75.1,0,0,0,10.78-12.11A106,106,0,0,1,97.16,302.55Zm0,0a114,114,0,0,0-1.24,17.12v1.59c.51-.41.77-.59,1-.8q6.28-5.74,12.55-11.49a75.1,75.1,0,0,0,10.78-12.11A106,106,0,0,1,97.16,302.55Zm0,0a114,114,0,0,0-1.24,17.12v1.59c.51-.41.77-.59,1-.8q6.28-5.74,12.55-11.49a75.1,75.1,0,0,0,10.78-12.11A106,106,0,0,1,97.16,302.55Zm0,0a114,114,0,0,0-1.24,17.12v1.59c.51-.41.77-.59,1-.8q6.28-5.74,12.55-11.49a75.1,75.1,0,0,0,10.78-12.11A106,106,0,0,1,97.16,302.55Zm0,0a114,114,0,0,0-1.24,17.12v1.59c.51-.41.77-.59,1-.8q6.28-5.74,12.55-11.49a75.1,75.1,0,0,0,10.78-12.11A106,106,0,0,1,97.16,302.55Zm0,0a114,114,0,0,0-1.24,17.12v1.59c.51-.41.77-.59,1-.8q6.28-5.74,12.55-11.49a75.1,75.1,0,0,0,10.78-12.11A106,106,0,0,1,97.16,302.55Zm0,0a114,114,0,0,0-1.24,17.12v1.59c.51-.41.77-.59,1-.8q6.28-5.74,12.55-11.49a75.1,75.1,0,0,0,10.78-12.11A106,106,0,0,1,97.16,302.55Zm0,0a114,114,0,0,0-1.24,17.12v1.59c.51-.41.77-.59,1-.8q6.28-5.74,12.55-11.49a75.1,75.1,0,0,0,10.78-12.11A106,106,0,0,1,97.16,302.55Zm0,0a114,114,0,0,0-1.24,17.12v1.59c.51-.41.77-.59,1-.8q6.28-5.74,12.55-11.49a75.1,75.1,0,0,0,10.78-12.11A106,106,0,0,1,97.16,302.55Zm0,0a114,114,0,0,0-1.24,17.12v1.59c.51-.41.77-.59,1-.8q6.28-5.74,12.55-11.49a75.1,75.1,0,0,0,10.78-12.11A106,106,0,0,1,97.16,302.55Zm0,0a114,114,0,0,0-1.24,17.12v1.59c.51-.41.77-.59,1-.8q6.28-5.74,12.55-11.49a75.1,75.1,0,0,0,10.78-12.11A106,106,0,0,1,97.16,302.55Zm0,0a114,114,0,0,0-1.24,17.12v1.59c.51-.41.77-.59,1-.8q6.28-5.74,12.55-11.49a75.1,75.1,0,0,0,10.78-12.11A106,106,0,0,1,97.16,302.55Zm0,0a114,114,0,0,0-1.24,17.12v1.59c.51-.41.77-.59,1-.8q6.28-5.74,12.55-11.49a75.1,75.1,0,0,0,10.78-12.11A106,106,0,0,1,97.16,302.55Zm0,0a114,114,0,0,0-1.24,17.12v1.59c.51-.41.77-.59,1-.8q6.28-5.74,12.55-11.49a75.1,75.1,0,0,0,10.78-12.11A106,106,0,0,1,97.16,302.55ZM420.27,143.16a95.64,95.64,0,0,0-40.95-12.4,102.67,102.67,0,0,0-25.06,1.47A128.74,128.74,0,0,0,327,140.47l-.75.32c-2.65,1.13-5.24,2.35-7.79,3.63-19.46,9.85-36.33,23.91-53.09,37.87-10.19,8.49-19.93,17.51-29.2,25.7q-5.73-4.63-11.37-9.24l-.19-.16c-15.91-13-31.52-25.77-47.41-38.23a144.35,144.35,0,0,0-35.82-21c-2-.78-3.94-1.51-5.94-2.17a110.75,110.75,0,0,0-20.74-4.84,113.55,113.55,0,0,0-23.64-.69c-.35,0-.71,0-1.06.07q-52,4.19-77,49.24C-2.87,209.6-3.22,240.06,6.59,270.61,14.43,295,29.44,314.52,53.71,324.3a127.61,127.61,0,0,0,37.37,9.08q2.86.25,5.72.34c23.85.84,47.19-5.65,69.74-18.72,14.07-8.17,26.51-18.57,38.51-29.48.77-.69,1.54-1.39,2.3-2.1,3.23-2.95,6.43-5.94,9.63-8.92,6.16-5.74,12.24-11.56,18.48-17.45,1.52,1.43,2.7,2.58,3.92,3.68,6.82,6.17,13.59,12.39,20.39,18.57l1.77,1.61c6.74,6.14,13.52,12.24,20.4,18.22,27,23.49,57.95,35.22,92.63,34.12,1.58-.05,3.16-.13,4.75-.23q4.29-.27,8.64-.81c34.29-4.22,59.26-21.75,73.17-54a113.64,113.64,0,0,0,9.26-45C470.61,193.86,454.71,162.57,420.27,143.16ZM12.59,240.82c-1.49-25.89,6.29-47.93,21.55-62.18A61.76,61.76,0,0,1,55,165.85a77.68,77.68,0,0,1,36.05-4.3,102,102,0,0,1,25,6.2q2,.76,4.08,1.62a169,169,0,0,1,22,11.26l0,0q1,.48,1.92,1l.15.08c.59.31,1.18.62,1.76.94,1.46.79,2.89,1.6,4.32,2.43,0,0,0,0,0,0l.38.19q2.68,1.56,5.31,3.23c10.65,6.7,20.69,14.38,30.73,22,8.58,6.55,16.86,13.48,25.7,20.57q-5.83,5.47-11.61,10.92L198.85,244c-8.38,7.83-16.82,15.44-25.74,22.37-.71.56-1.42,1.11-2.14,1.64-4.74,3.61-9.63,7-14.71,10.15-1.57,1-3.16,1.91-4.77,2.82-1.17.67-2.36,1.32-3.56,1.95a166.41,166.41,0,0,1-15.46,8.7c-2.52,1.24-5,2.39-7.61,3.45q-2.3.94-4.61,1.79a106,106,0,0,1-23.09,5.69c-2,.26-4,.45-6.08.59a99.55,99.55,0,0,1-26.82-1.94,64.66,64.66,0,0,1-34.13-19.55A65.86,65.86,0,0,1,12.59,240.82Zm426.68,42.47q-2.07,2.1-4.38,4.09c-15.88,13.67-35.07,16.79-55.27,15.54l-.3,0q-3.13-.19-6.2-.59a111.3,111.3,0,0,1-34.95-10.43q-2.58-1.22-5.1-2.57c-3.51-1.87-6.94-3.9-10.31-6.06-1.17-.75-2.33-1.51-3.48-2.3-1.66-.79-3.29-1.63-4.91-2.52l-.08-.05a176.7,176.7,0,0,1-20.42-15.06l-1-.82c-1.07-.89-2.12-1.8-3.17-2.72l-.16-.13c-7.32-6.31-14.49-12.83-21.8-19.44l-3.06-2.75q-3.27-3-6.6-5.93c12.79-10.65,25.37-21,38.42-30.47q4.63-3.37,9.37-6.57c5.52-3.73,11.15-7.28,16.93-10.59,1.47-.76,2.94-1.49,4.43-2.17,1.45-.89,2.9-1.76,4.37-2.62q4.46-2.62,9-5.08c3.73-2,7.51-3.81,11.34-5.4a98.62,98.62,0,0,1,27.3-7.15,88,88,0,0,1,18.57,0,67,67,0,0,1,40.94,19.68,68.43,68.43,0,0,1,19.32,41.47C460.45,246,455.62,266.78,439.27,283.29ZM97.16,302.55a114,114,0,0,0-1.24,17.12v1.59c.51-.41.77-.59,1-.8q6.28-5.74,12.55-11.49a75.1,75.1,0,0,0,10.78-12.11A106,106,0,0,1,97.16,302.55Zm0,0a114,114,0,0,0-1.24,17.12v1.59c.51-.41.77-.59,1-.8q6.28-5.74,12.55-11.49a75.1,75.1,0,0,0,10.78-12.11A106,106,0,0,1,97.16,302.55Zm0,0a114,114,0,0,0-1.24,17.12v1.59c.51-.41.77-.59,1-.8q6.28-5.74,12.55-11.49a75.1,75.1,0,0,0,10.78-12.11A106,106,0,0,1,97.16,302.55Zm0,0a114,114,0,0,0-1.24,17.12v1.59c.51-.41.77-.59,1-.8q6.28-5.74,12.55-11.49a75.1,75.1,0,0,0,10.78-12.11A106,106,0,0,1,97.16,302.55Zm0,0a114,114,0,0,0-1.24,17.12v1.59c.51-.41.77-.59,1-.8q6.28-5.74,12.55-11.49a75.1,75.1,0,0,0,10.78-12.11A106,106,0,0,1,97.16,302.55Zm0,0a114,114,0,0,0-1.24,17.12v1.59c.51-.41.77-.59,1-.8q6.28-5.74,12.55-11.49a75.1,75.1,0,0,0,10.78-12.11A106,106,0,0,1,97.16,302.55Zm0,0a114,114,0,0,0-1.24,17.12v1.59c.51-.41.77-.59,1-.8q6.28-5.74,12.55-11.49a75.1,75.1,0,0,0,10.78-12.11A106,106,0,0,1,97.16,302.55Zm0,0a114,114,0,0,0-1.24,17.12v1.59c.51-.41.77-.59,1-.8q6.28-5.74,12.55-11.49a75.1,75.1,0,0,0,10.78-12.11A106,106,0,0,1,97.16,302.55Zm0,0a114,114,0,0,0-1.24,17.12v1.59c.51-.41.77-.59,1-.8q6.28-5.74,12.55-11.49a75.1,75.1,0,0,0,10.78-12.11A106,106,0,0,1,97.16,302.55Zm0,0a114,114,0,0,0-1.24,17.12v1.59c.51-.41.77-.59,1-.8q6.28-5.74,12.55-11.49a75.1,75.1,0,0,0,10.78-12.11A106,106,0,0,1,97.16,302.55Zm0,0a114,114,0,0,0-1.24,17.12v1.59c.51-.41.77-.59,1-.8q6.28-5.74,12.55-11.49a75.1,75.1,0,0,0,10.78-12.11A106,106,0,0,1,97.16,302.55Zm0,0a114,114,0,0,0-1.24,17.12v1.59c.51-.41.77-.59,1-.8q6.28-5.74,12.55-11.49a75.1,75.1,0,0,0,10.78-12.11A106,106,0,0,1,97.16,302.55Zm0,0a114,114,0,0,0-1.24,17.12v1.59c.51-.41.77-.59,1-.8q6.28-5.74,12.55-11.49a75.1,75.1,0,0,0,10.78-12.11A106,106,0,0,1,97.16,302.55Zm0,0a114,114,0,0,0-1.24,17.12v1.59c.51-.41.77-.59,1-.8q6.28-5.74,12.55-11.49a75.1,75.1,0,0,0,10.78-12.11A106,106,0,0,1,97.16,302.55Zm0,0a114,114,0,0,0-1.24,17.12v1.59c.51-.41.77-.59,1-.8q6.28-5.74,12.55-11.49a75.1,75.1,0,0,0,10.78-12.11A106,106,0,0,1,97.16,302.55Zm0,0a114,114,0,0,0-1.24,17.12v1.59c.51-.41.77-.59,1-.8q6.28-5.74,12.55-11.49a75.1,75.1,0,0,0,10.78-12.11A106,106,0,0,1,97.16,302.55Zm0,0a114,114,0,0,0-1.24,17.12v1.59c.51-.41.77-.59,1-.8q6.28-5.74,12.55-11.49a75.1,75.1,0,0,0,10.78-12.11A106,106,0,0,1,97.16,302.55Zm0,0a114,114,0,0,0-1.24,17.12v1.59c.51-.41.77-.59,1-.8q6.28-5.74,12.55-11.49a75.1,75.1,0,0,0,10.78-12.11A106,106,0,0,1,97.16,302.55Zm170.62-62.34-1,.71c7.35,6.66,14.59,13.2,22,19.51.27-.25.55-.5.82-.78C282.26,253.34,275.09,246.82,267.78,240.21ZM97.16,302.55a114,114,0,0,0-1.24,17.12v1.59c.51-.41.77-.59,1-.8q6.28-5.74,12.55-11.49a75.1,75.1,0,0,0,10.78-12.11A106,106,0,0,1,97.16,302.55Zm170.62-62.34-1,.71c7.35,6.66,14.59,13.2,22,19.51.27-.25.55-.5.82-.78C282.26,253.34,275.09,246.82,267.78,240.21ZM97.16,302.55a114,114,0,0,0-1.24,17.12v1.59c.51-.41.77-.59,1-.8q6.28-5.74,12.55-11.49a75.1,75.1,0,0,0,10.78-12.11A106,106,0,0,1,97.16,302.55Zm170.62-62.34-1,.71c7.35,6.66,14.59,13.2,22,19.51.27-.25.55-.5.82-.78C282.26,253.34,275.09,246.82,267.78,240.21ZM97.16,302.55a114,114,0,0,0-1.24,17.12v1.59c.51-.41.77-.59,1-.8q6.28-5.74,12.55-11.49a75.1,75.1,0,0,0,10.78-12.11A106,106,0,0,1,97.16,302.55Zm170.62-62.34-1,.71c7.35,6.66,14.59,13.2,22,19.51.27-.25.55-.5.82-.78C282.26,253.34,275.09,246.82,267.78,240.21ZM97.16,302.55a114,114,0,0,0-1.24,17.12v1.59c.51-.41.77-.59,1-.8q6.28-5.74,12.55-11.49a75.1,75.1,0,0,0,10.78-12.11A106,106,0,0,1,97.16,302.55Zm170.62-62.34-1,.71c7.35,6.66,14.59,13.2,22,19.51.27-.25.55-.5.82-.78C282.26,253.34,275.09,246.82,267.78,240.21ZM97.16,302.55a114,114,0,0,0-1.24,17.12v1.59c.51-.41.77-.59,1-.8q6.28-5.74,12.55-11.49a75.1,75.1,0,0,0,10.78-12.11A106,106,0,0,1,97.16,302.55Zm170.62-62.34-1,.71c7.35,6.66,14.59,13.2,22,19.51.27-.25.55-.5.82-.78C282.26,253.34,275.09,246.82,267.78,240.21ZM97.16,302.55a114,114,0,0,0-1.24,17.12v1.59c.51-.41.77-.59,1-.8q6.28-5.74,12.55-11.49a75.1,75.1,0,0,0,10.78-12.11A106,106,0,0,1,97.16,302.55Zm170.62-62.34-1,.71c7.35,6.66,14.59,13.2,22,19.51.27-.25.55-.5.82-.78C282.26,253.34,275.09,246.82,267.78,240.21ZM97.16,302.55a114,114,0,0,0-1.24,17.12v1.59c.51-.41.77-.59,1-.8q6.28-5.74,12.55-11.49a75.1,75.1,0,0,0,10.78-12.11A106,106,0,0,1,97.16,302.55Zm170.62-62.34-1,.71c7.35,6.66,14.59,13.2,22,19.51.27-.25.55-.5.82-.78C282.26,253.34,275.09,246.82,267.78,240.21ZM97.16,302.55a114,114,0,0,0-1.24,17.12v1.59c.51-.41.77-.59,1-.8q6.28-5.74,12.55-11.49a75.1,75.1,0,0,0,10.78-12.11A106,106,0,0,1,97.16,302.55Zm170.62-62.34-1,.71c7.35,6.66,14.59,13.2,22,19.51.27-.25.55-.5.82-.78C282.26,253.34,275.09,246.82,267.78,240.21ZM97.16,302.55a114,114,0,0,0-1.24,17.12v1.59c.51-.41.77-.59,1-.8q6.28-5.74,12.55-11.49a75.1,75.1,0,0,0,10.78-12.11A106,106,0,0,1,97.16,302.55Zm170.62-62.34-1,.71c7.35,6.66,14.59,13.2,22,19.51.27-.25.55-.5.82-.78C282.26,253.34,275.09,246.82,267.78,240.21ZM97.16,302.55a114,114,0,0,0-1.24,17.12v1.59c.51-.41.77-.59,1-.8q6.28-5.74,12.55-11.49a75.1,75.1,0,0,0,10.78-12.11A106,106,0,0,1,97.16,302.55Zm170.62-62.34-1,.71c7.35,6.66,14.59,13.2,22,19.51.27-.25.55-.5.82-.78C282.26,253.34,275.09,246.82,267.78,240.21ZM97.16,302.55a114,114,0,0,0-1.24,17.12v1.59c.51-.41.77-.59,1-.8q6.28-5.74,12.55-11.49a75.1,75.1,0,0,0,10.78-12.11A106,106,0,0,1,97.16,302.55Zm170.62-62.34-1,.71c7.35,6.66,14.59,13.2,22,19.51.27-.25.55-.5.82-.78C282.26,253.34,275.09,246.82,267.78,240.21Zm0,0-1,.71c7.35,6.66,14.59,13.2,22,19.51.27-.25.55-.5.82-.78C282.26,253.34,275.09,246.82,267.78,240.21Z"/><path class="cls-1" d="M438.83,181.13c-7.57-12.41-18.51-22.86-33-31a88,88,0,0,0-52.25-11.23,110.1,110.1,0,0,0-28.52,6.68q-2.61,1-5.2,2.07c-.83.35-1.66.71-2.48,1.08C297.12,157.78,280,172,263,186.18c-9.4,7.83-18.38,16.14-26.92,23.69C217.71,195,199.93,180.21,181.75,166c-12.32-9.65-25.36-17.12-39.39-21.68-1.94-.64-3.89-1.21-5.87-1.72a101.5,101.5,0,0,0-21.09-3.25,106.87,106.87,0,0,0-14.05.23c-3.52.28-6.95.72-10.27,1.32q-36.68,6.48-56.94,37.78-2,3-3.78,6.3c-14.65,26.42-15,54.5-5.92,82.67a96.73,96.73,0,0,0,5.69,14c8,15.89,20.25,28.41,37.75,35.46A121.75,121.75,0,0,0,91.08,324c2,.39,4,.72,6.06,1,25.63,3.38,50.69-2.44,74.76-16.4,11.38-6.6,21.59-14.79,31.39-23.49.76-.66,1.51-1.33,2.26-2,4.34-3.9,8.6-7.88,12.86-11.85,5.68-5.29,11.28-10.65,17-16.08,1.41,1.31,2.49,2.37,3.62,3.39,7.41,6.71,14.77,13.49,22.18,20.21l1.77,1.6c5.06,4.57,10.14,9.12,15.29,13.59,27.57,24,59.59,34.68,95.82,30.72l1.92-.22c1.1-.14,2.2-.29,3.28-.46,26.78-4.09,47.11-17.37,59.95-40.65q2.28-4.11,4.23-8.64A104.64,104.64,0,0,0,452,233.19C452.15,213.44,447.87,195.9,438.83,181.13ZM171.57,268.47a152,152,0,0,1-15.31,9.68c-1.57,1-3.16,1.91-4.77,2.82-1.17.67-2.36,1.32-3.56,1.95s-2.56,1.35-3.87,2a106,106,0,0,1-17.2,6.74c-1.29.38-2.58.73-3.88,1a88.32,88.32,0,0,1-24.61,2.55c-2.41-.09-4.85-.28-7.29-.59s-5-.71-7.53-1.24c-25.25-5.29-44.37-27.77-45.84-53.56C35.89,208,49.83,182.77,75.36,173.34a67.88,67.88,0,0,1,15.72-3.79A74.29,74.29,0,0,1,116,171a101.14,101.14,0,0,1,17.15,5.51c3.08,1.28,6.09,2.68,9,4.17l0,0q1,.48,1.92,1l.15.08c.59.31,1.18.62,1.76.94,1.46.79,2.89,1.6,4.32,2.43,0,0,0,0,0,0l.38.19q2.59,1.35,5.13,2.8c12.23,7,23.46,15.59,34.69,24.14,7.91,6,15.55,12.43,23.7,19-4.09,3.83-8.13,7.67-12.19,11.45L200,244.63a301.87,301.87,0,0,1-26.31,22.28C173,267.44,172.29,268,171.57,268.47ZM319.28,281c-1.66-.79-3.29-1.63-4.91-2.52l-.08-.05a144.88,144.88,0,0,1-22.21-15.19c-.93-.75-1.86-1.52-2.78-2.3l-.54-.46c-7.44-6.31-14.68-12.85-22-19.51q-1.53-1.36-3.06-2.76-3.63-3.27-7.33-6.58c13.63-11.36,27-22.37,41.11-32.14,3-2.05,6-4.06,9-6,4.88-3.11,9.87-6.07,15-8.82l1.37-.72c1.47-.76,2.94-1.49,4.43-2.17,1.45-.89,2.9-1.76,4.37-2.62A98.61,98.61,0,0,1,352,171.43a79.17,79.17,0,0,1,27.32-2l.2,0A60,60,0,0,1,433,223.68c2.21,22.49-3,42.29-20.64,57.47-9.81,8.45-21,12.35-33,13.57-2.44.25-4.92.39-7.41.43-2.84.05-5.71,0-8.6-.21a96,96,0,0,1-27.11-5.71q-2.16-.78-4.29-1.68c-3.12-1.28-6.16-2.72-9.15-4.3C321.59,282.5,320.43,281.74,319.28,281Z"/><path class="cls-2" d="M267.78,240.21l-1,.71c7.35,6.66,14.59,13.2,22,19.51.27-.25.55-.5.82-.78C282.26,253.34,275.09,246.82,267.78,240.21Zm0,0-1,.71c7.35,6.66,14.59,13.2,22,19.51.27-.25.55-.5.82-.78C282.26,253.34,275.09,246.82,267.78,240.21Zm0,0-1,.71c7.35,6.66,14.59,13.2,22,19.51.27-.25.55-.5.82-.78C282.26,253.34,275.09,246.82,267.78,240.21Zm0,0-1,.71c7.35,6.66,14.59,13.2,22,19.51.27-.25.55-.5.82-.78C282.26,253.34,275.09,246.82,267.78,240.21Zm0,0-1,.71c7.35,6.66,14.59,13.2,22,19.51.27-.25.55-.5.82-.78C282.26,253.34,275.09,246.82,267.78,240.21Zm0,0-1,.71c7.35,6.66,14.59,13.2,22,19.51.27-.25.55-.5.82-.78C282.26,253.34,275.09,246.82,267.78,240.21Zm0,0-1,.71c7.35,6.66,14.59,13.2,22,19.51.27-.25.55-.5.82-.78C282.26,253.34,275.09,246.82,267.78,240.21Zm0,0-1,.71c7.35,6.66,14.59,13.2,22,19.51.27-.25.55-.5.82-.78C282.26,253.34,275.09,246.82,267.78,240.21Zm0,0-1,.71c7.35,6.66,14.59,13.2,22,19.51.27-.25.55-.5.82-.78C282.26,253.34,275.09,246.82,267.78,240.21Zm0,0-1,.71c7.35,6.66,14.59,13.2,22,19.51.27-.25.55-.5.82-.78C282.26,253.34,275.09,246.82,267.78,240.21Zm0,0-1,.71c7.35,6.66,14.59,13.2,22,19.51.27-.25.55-.5.82-.78C282.26,253.34,275.09,246.82,267.78,240.21Zm0,0-1,.71c7.35,6.66,14.59,13.2,22,19.51.27-.25.55-.5.82-.78C282.26,253.34,275.09,246.82,267.78,240.21Zm0,0-1,.71c7.35,6.66,14.59,13.2,22,19.51.27-.25.55-.5.82-.78C282.26,253.34,275.09,246.82,267.78,240.21Zm152.49-97.05a95.64,95.64,0,0,0-40.95-12.4,102.67,102.67,0,0,0-25.06,1.47A128.74,128.74,0,0,0,327,140.47l-.75.32c-2.65,1.13-5.24,2.35-7.79,3.63-19.46,9.85-36.33,23.91-53.09,37.87-10.19,8.49-19.93,17.51-29.2,25.7q-5.73-4.63-11.37-9.24l-.19-.16c-15.91-13-31.52-25.77-47.41-38.23a144.35,144.35,0,0,0-35.82-21c-2-.78-3.94-1.51-5.94-2.17a110.75,110.75,0,0,0-20.74-4.84,113.55,113.55,0,0,0-23.64-.69c-.35,0-.71,0-1.06.07q-52,4.19-77,49.24C-2.87,209.6-3.22,240.06,6.59,270.61,14.43,295,29.44,314.52,53.71,324.3a127.61,127.61,0,0,0,37.37,9.08q2.86.25,5.72.34c23.85.84,47.19-5.65,69.74-18.72,14.07-8.17,26.51-18.57,38.51-29.48.77-.69,1.54-1.39,2.3-2.1,3.23-2.95,6.43-5.94,9.63-8.92,6.16-5.74,12.24-11.56,18.48-17.45,1.52,1.43,2.7,2.58,3.92,3.68,6.82,6.17,13.59,12.39,20.39,18.57l1.77,1.61c6.74,6.14,13.52,12.24,20.4,18.22,27,23.49,57.95,35.22,92.63,34.12,1.58-.05,3.16-.13,4.75-.23q4.29-.27,8.64-.81c34.29-4.22,59.26-21.75,73.17-54a113.64,113.64,0,0,0,9.26-45C470.61,193.86,454.71,162.57,420.27,143.16ZM75.36,173.34a67.88,67.88,0,0,1,15.72-3.79A74.29,74.29,0,0,1,116,171a101.14,101.14,0,0,1,17.15,5.51c3.08,1.28,6.09,2.68,9,4.17l0,0q1,.48,1.92,1l.15.08c.59.31,1.18.62,1.76.94,1.46.79,2.89,1.6,4.32,2.43l.39.23q2.68,1.56,5.31,3.23c10.65,6.7,20.69,14.38,30.73,22,8.58,6.55,16.86,13.48,25.7,20.57q-5.83,5.47-11.61,10.92L198.85,244c-8.38,7.83-16.82,15.44-25.74,22.37-.71.56-1.42,1.11-2.14,1.64-4.74,3.61-9.63,7-14.71,10.15-1.57,1-3.16,1.91-4.77,2.82-1.17.67-2.36,1.32-3.56,1.95s-2.56,1.35-3.87,2a106,106,0,0,1-17.2,6.74c-1.29.38-2.58.73-3.88,1a88.32,88.32,0,0,1-24.61,2.55c-2.41-.09-4.85-.28-7.29-.59s-5-.71-7.53-1.24c-25.25-5.29-44.37-27.77-45.84-53.56C35.89,208,49.83,182.77,75.36,173.34Zm256.28,5.77A98.61,98.61,0,0,1,352,171.43a79.17,79.17,0,0,1,27.32-2l.2,0A60,60,0,0,1,433,223.68c2.21,22.49-3,42.29-20.64,57.47-9.81,8.45-21,12.35-33,13.57-2.44.25-4.92.39-7.41.43-2.84.05-5.71,0-8.6-.21a96,96,0,0,1-27.11-5.71q-2.16-.78-4.29-1.68c-3.12-1.28-6.16-2.72-9.15-4.3s-5.64-3.1-8.39-4.82l-.08-.05a176.7,176.7,0,0,1-20.42-15.06l-1-.82c-1.07-.89-2.12-1.8-3.17-2.72l-.16-.13c-7.32-6.31-14.49-12.83-21.8-19.44l-3.06-2.75q-3.27-3-6.6-5.93c12.79-10.65,25.37-21,38.42-30.47q4.63-3.37,9.37-6.57c5.52-3.73,11.15-7.28,16.93-10.59,2-1.13,3.93-2.23,5.93-3.3C329.72,180.09,330.68,179.59,331.64,179.11Zm-63.86,61.1-1,.71c7.35,6.66,14.59,13.2,22,19.51.27-.25.55-.5.82-.78C282.26,253.34,275.09,246.82,267.78,240.21Zm0,0-1,.71c7.35,6.66,14.59,13.2,22,19.51.27-.25.55-.5.82-.78C282.26,253.34,275.09,246.82,267.78,240.21Zm0,0-1,.71c7.35,6.66,14.59,13.2,22,19.51.27-.25.55-.5.82-.78C282.26,253.34,275.09,246.82,267.78,240.21Zm0,0-1,.71c7.35,6.66,14.59,13.2,22,19.51.27-.25.55-.5.82-.78C282.26,253.34,275.09,246.82,267.78,240.21Zm0,0-1,.71c7.35,6.66,14.59,13.2,22,19.51.27-.25.55-.5.82-.78C282.26,253.34,275.09,246.82,267.78,240.21Zm0,0-1,.71c7.35,6.66,14.59,13.2,22,19.51.27-.25.55-.5.82-.78C282.26,253.34,275.09,246.82,267.78,240.21Zm0,0-1,.71c7.35,6.66,14.59,13.2,22,19.51.27-.25.55-.5.82-.78C282.26,253.34,275.09,246.82,267.78,240.21Zm0,0-1,.71c7.35,6.66,14.59,13.2,22,19.51.27-.25.55-.5.82-.78C282.26,253.34,275.09,246.82,267.78,240.21Zm0,0-1,.71c7.35,6.66,14.59,13.2,22,19.51.27-.25.55-.5.82-.78C282.26,253.34,275.09,246.82,267.78,240.21Zm0,0-1,.71c7.35,6.66,14.59,13.2,22,19.51.27-.25.55-.5.82-.78C282.26,253.34,275.09,246.82,267.78,240.21Zm0,0-1,.71c7.35,6.66,14.59,13.2,22,19.51.27-.25.55-.5.82-.78C282.26,253.34,275.09,246.82,267.78,240.21Zm0,0-1,.71c7.35,6.66,14.59,13.2,22,19.51.27-.25.55-.5.82-.78C282.26,253.34,275.09,246.82,267.78,240.21Zm0,0-1,.71c7.35,6.66,14.59,13.2,22,19.51.27-.25.55-.5.82-.78C282.26,253.34,275.09,246.82,267.78,240.21Z"/></g></g></svg>